<svg width="369" height="356" viewBox="0 0 369 356" fill="none" xmlns="http://www.w3.org/2000/svg">
<g filter="url(#filter0_d)">
<path d="M111.724 314.654C111.724 314.654 169.164 340.045 228.171 309.011C287.179 277.976 319.331 211.071 346.784 157.57C374.236 104.069 362.509 47.23 319.901 18.9334C277.293 -9.36325 245.739 26.4384 184.206 24.439C122.673 22.4397 106.568 12.2162 53.8756 45.3389C1.18326 78.4616 -12.0444 163.647 25.2077 229.617C62.4598 295.586 111.724 314.654 111.724 314.654Z" fill="#92E3A9"/>
<path opacity="0.7" d="M111.724 314.654C111.724 314.654 169.164 340.045 228.171 309.011C287.179 277.976 319.331 211.071 346.784 157.57C374.236 104.069 362.509 47.23 319.901 18.9334C277.293 -9.36325 245.739 26.4384 184.206 24.439C122.673 22.4397 106.568 12.2162 53.8756 45.3389C1.18326 78.4616 -12.0444 163.647 25.2077 229.617C62.4598 295.586 111.724 314.654 111.724 314.654Z" fill="white"/>
<path d="M267.56 73.0234H224.003V129.498H267.56V73.0234Z" fill="#92E3A9"/>
<path d="M322.01 73.0234H278.452V129.498H322.01V73.0234Z" fill="#92E3A9"/>
<path d="M267.56 138.747H224.003V195.222H267.56V138.747Z" fill="#92E3A9"/>
<path d="M322.01 138.747H278.452V195.222H322.01V138.747Z" fill="#92E3A9"/>
<path d="M267.56 204.461H224.003V260.936H267.56V204.461Z" fill="#92E3A9"/>
<path d="M322.01 204.461H278.452V260.936H322.01V204.461Z" fill="#92E3A9"/>
<path d="M258.587 14.5H288.404C292.818 14.4987 297.189 15.3997 301.268 17.1516C305.346 18.9034 309.052 21.4717 312.173 24.7097C315.294 27.9477 317.769 31.7919 319.457 36.0226C321.145 40.2532 322.012 44.7874 322.01 49.366V64.8292H224.991V49.366C224.988 44.7883 225.855 40.2549 227.543 36.0249C229.23 31.7948 231.704 27.9511 234.824 24.7132C237.944 21.4753 241.649 18.9068 245.726 17.1544C249.803 15.402 254.173 14.5 258.587 14.5V14.5Z" fill="#92E3A9"/>
<g opacity="0.54">
<path opacity="0.54" d="M267.56 73.0234H224.003V129.498H267.56V73.0234Z" fill="white"/>
<path opacity="0.54" d="M322.01 73.0234H278.452V129.498H322.01V73.0234Z" fill="white"/>
<path opacity="0.54" d="M267.56 138.747H224.003V195.222H267.56V138.747Z" fill="white"/>
<path opacity="0.54" d="M322.01 138.747H278.452V195.222H322.01V138.747Z" fill="white"/>
<path opacity="0.54" d="M267.56 204.461H224.003V260.936H267.56V204.461Z" fill="white"/>
<path opacity="0.54" d="M322.01 204.461H278.452V260.936H322.01V204.461Z" fill="white"/>
<path opacity="0.54" d="M258.587 14.5H288.404C292.818 14.4987 297.189 15.3997 301.268 17.1516C305.346 18.9034 309.052 21.4717 312.173 24.7097C315.294 27.9477 317.769 31.7919 319.457 36.0226C321.145 40.2532 322.012 44.7874 322.01 49.366V64.8292H224.991V49.366C224.988 44.7883 225.855 40.2549 227.543 36.0249C229.23 31.7948 231.704 27.9511 234.824 24.7132C237.944 21.4753 241.649 18.9068 245.726 17.1544C249.803 15.402 254.173 14.5 258.587 14.5V14.5Z" fill="white"/>
</g>
<path d="M46.0702 84.4294V94.5445H43.0125V83.4543C43.0125 82.1953 42.5303 80.9878 41.672 80.0975C40.8136 79.2072 39.6494 78.707 38.4355 78.707V78.707C37.2216 78.707 36.0575 79.2072 35.1991 80.0975C34.3408 80.9878 33.8586 82.1953 33.8586 83.4543V97.2431H31.0098V89.9351C31.0098 89.4867 30.9245 89.0428 30.7588 88.6287C30.5931 88.2146 30.3502 87.8385 30.0441 87.5219C29.738 87.2053 29.3747 86.9545 28.975 86.7838C28.5753 86.6132 28.147 86.526 27.7148 86.5273V86.5273C26.8434 86.5273 26.0077 86.8863 25.3915 87.5254C24.7754 88.1645 24.4292 89.0313 24.4292 89.9351V101.143C24.4292 101.431 24.484 101.717 24.5906 101.982C24.6971 102.248 24.8532 102.49 25.05 102.693C25.2468 102.896 25.4803 103.057 25.7371 103.166C25.994 103.276 26.2691 103.331 26.5468 103.33H33.8586V111.623H43.0125V100.877H49.3557C49.6949 100.877 50.0308 100.808 50.3442 100.674C50.6575 100.539 50.9423 100.342 51.1821 100.093C51.4219 99.8441 51.6122 99.5487 51.742 99.2237C51.8718 98.8987 51.9386 98.5503 51.9386 98.1985V98.1985V84.4097C51.9386 83.6025 51.6295 82.8284 51.0792 82.2577C50.5289 81.6869 49.7826 81.3663 49.0044 81.3663V81.3663C48.6175 81.3663 48.2344 81.4457 47.8771 81.5998C47.5199 81.754 47.1956 81.98 46.9229 82.2647C46.6501 82.5493 46.4344 82.8872 46.2881 83.2587C46.1417 83.6302 46.0677 84.0281 46.0702 84.4294V84.4294Z" fill="#92E3A9"/>
<path d="M46.5734 110.934H30.478V126.416H46.5734V110.934Z" fill="#CCCCCC"/>
<path d="M47.5321 107.26H29.5186V112.243H47.5321V107.26Z" fill="#CCCCCC"/>
<path d="M41.5308 168.452L35.6528 158.701L39.5746 159.105L39.1758 153.422L43.4869 159.105L43.8762 141.643L47.0098 153.018L50.9221 138.402L52.0996 155.451L59.9242 146.932L54.4451 160.327L59.9242 158.298L49.3553 170.481L41.5308 168.452Z" fill="#92E3A9"/>
<path d="M54.6257 169.772H38.5303V185.255H54.6257V169.772Z" fill="#CCCCCC"/>
<path d="M55.5849 166.108H37.5713V171.092H55.5849V166.108Z" fill="#CCCCCC"/>
<path d="M124.923 168.452L119.045 158.701L122.958 159.105L122.568 153.422L126.879 159.105L127.269 141.643L130.402 153.018L134.315 138.402L135.492 155.451L143.317 146.932L137.838 160.327L143.317 158.298L132.748 170.481L124.923 168.452Z" fill="#92E3A9"/>
<path d="M138.018 169.772H121.922V185.255H138.018V169.772Z" fill="#CCCCCC"/>
<path d="M138.977 166.108H120.964V171.092H138.977V166.108Z" fill="#CCCCCC"/>
<path d="M84.1864 166.424C81.4286 166.381 78.6786 166.108 75.963 165.607C71.6519 164.799 70.8733 161.953 72.8294 161.145C74.7855 160.338 81.4421 161.549 81.4421 161.549C81.4421 161.549 72.8294 161.549 71.6519 156.27C70.4744 150.991 74.7855 151.395 75.963 152.616C77.1405 153.837 80.2646 156.27 80.2646 156.27C80.2646 156.27 73.6176 149.375 73.6176 145.308C73.6176 141.24 77.9287 141.654 79.1061 144.086C80.2836 146.519 83.0184 153.827 83.0184 153.827C83.0184 153.827 78.7073 140.836 84.1959 142.865C89.6845 144.894 88.4975 150.991 88.4975 152.202V157.481C88.4975 157.481 93.9766 146.519 95.9422 148.962C97.9079 151.404 93.198 155.856 93.198 155.856C93.198 155.856 95.9422 145.298 102.589 145.702C109.236 146.106 102.988 150.981 101.811 153.01C100.633 155.039 95.5434 159.51 95.5434 159.51C95.5434 159.51 106.938 154.231 112.38 154.231C117.821 154.231 112.769 160.722 109.645 161.126C106.521 161.529 100.633 162.337 100.633 162.337C100.633 162.337 108.467 165.991 105.334 166.808C102.2 167.626 94.3754 165.991 94.3754 165.991L84.1864 166.424Z" fill="#92E3A9"/>
<path d="M96.9011 169.772H80.8057V185.255H96.9011V169.772Z" fill="#CCCCCC"/>
<path d="M97.87 166.108H79.8564V171.092H97.87V166.108Z" fill="#CCCCCC"/>
<path d="M108.429 91.4717V98.9669H110.689V90.733C110.689 90.2704 110.777 89.8124 110.948 89.3851C111.119 88.9579 111.37 88.5698 111.685 88.2432C112.001 87.9166 112.376 87.6578 112.788 87.4816C113.201 87.3055 113.643 87.2155 114.089 87.2168V87.2168C114.988 87.2168 115.85 87.5873 116.486 88.2467C117.121 88.9061 117.479 89.8004 117.479 90.733V100.927H119.568V95.5197C119.568 94.8483 119.825 94.2045 120.282 93.7298C120.74 93.2551 121.361 92.9884 122.008 92.9884C122.654 92.991 123.272 93.2589 123.728 93.7333C124.183 94.2077 124.439 94.85 124.439 95.5197V103.822C124.439 104.035 124.398 104.246 124.32 104.443C124.241 104.64 124.125 104.818 123.98 104.968C123.834 105.118 123.661 105.237 123.471 105.318C123.281 105.398 123.078 105.439 122.872 105.438H117.479V111.584H110.689V103.635H106.027C105.523 103.635 105.04 103.428 104.684 103.058C104.328 102.689 104.127 102.188 104.127 101.666V91.4717C104.13 90.8743 104.36 90.3021 104.767 89.8797C105.174 89.4573 105.726 89.2188 106.302 89.2162V89.2162C106.87 89.2291 107.411 89.4724 107.809 89.894C108.207 90.3156 108.429 90.8819 108.429 91.4717V91.4717Z" fill="#92E3A9"/>
<path d="M121.391 110.934H105.295V126.416H121.391V110.934Z" fill="#CCCCCC"/>
<path d="M122.35 107.26H104.336V112.243H122.35V107.26Z" fill="#CCCCCC"/>
<path d="M46.2695 209.317V216.803H48.539V208.588C48.5415 207.663 48.8959 206.775 49.5252 206.119C50.1545 205.462 51.0081 205.09 51.9006 205.082V205.082C52.7997 205.082 53.6619 205.452 54.2977 206.112C54.9334 206.771 55.2906 207.666 55.2906 208.598V218.772H57.3797V213.365C57.3797 212.694 57.6368 212.05 58.0944 211.575C58.5521 211.101 59.1728 210.834 59.8201 210.834C60.4657 210.837 61.084 211.104 61.5396 211.579C61.9952 212.053 62.251 212.696 62.251 213.365V221.727C62.251 222.158 62.0859 222.571 61.7921 222.876C61.4983 223.181 61.0998 223.352 60.6842 223.352H55.3191V229.488H48.539V221.54H43.8386C43.3349 221.54 42.8519 221.332 42.4957 220.963C42.1395 220.594 41.9395 220.093 41.9395 219.57V209.317C41.942 208.72 42.1719 208.148 42.5791 207.725C42.9864 207.303 43.538 207.064 44.114 207.062V207.062C44.6874 207.067 45.2357 207.307 45.6394 207.729C46.0431 208.152 46.2696 208.722 46.2695 209.317V209.317Z" fill="#92E3A9"/>
<path d="M59.2312 228.779H43.1357V244.262H59.2312V228.779Z" fill="#CCCCCC"/>
<path d="M60.1903 225.115H42.1768V230.099H60.1903V225.115Z" fill="#CCCCCC"/>
<path d="M126.12 209.317V216.803H128.38V208.588C128.38 207.656 128.737 206.762 129.373 206.102C130.009 205.443 130.871 205.072 131.77 205.072C132.669 205.072 133.531 205.443 134.167 206.102C134.803 206.762 135.16 207.656 135.16 208.588V218.772H137.249V213.365C137.249 212.694 137.506 212.05 137.964 211.575C138.421 211.101 139.042 210.834 139.689 210.834V210.834C140.009 210.834 140.326 210.9 140.622 211.027C140.917 211.154 141.186 211.341 141.412 211.576C141.638 211.811 141.816 212.09 141.938 212.397C142.06 212.704 142.122 213.033 142.12 213.365V221.727C142.122 221.94 142.082 222.151 142.005 222.348C141.927 222.545 141.812 222.725 141.668 222.876C141.523 223.027 141.351 223.147 141.161 223.228C140.972 223.31 140.768 223.352 140.563 223.352H135.16V229.488H128.38V221.54H123.679C123.176 221.54 122.693 221.333 122.337 220.963C121.98 220.594 121.78 220.093 121.78 219.57V209.317C121.783 208.718 122.014 208.145 122.423 207.722C122.833 207.299 123.387 207.062 123.964 207.062C124.537 207.07 125.084 207.31 125.487 207.732C125.89 208.154 126.117 208.723 126.12 209.317V209.317Z" fill="#92E3A9"/>
<path d="M139.072 228.779H122.977V244.262H139.072V228.779Z" fill="#CCCCCC"/>
<path d="M140.031 225.115H122.018V230.099H140.031V225.115Z" fill="#CCCCCC"/>
<path d="M85.1355 228.453C83.6178 225.87 81.7248 223.544 79.5235 221.559C75.9626 218.388 74.937 210.991 74.937 210.991C74.937 210.991 76.4658 210.469 79.5235 213.63C81.5486 215.84 83.265 218.333 84.6228 221.037C84.6228 221.037 82.5812 212.055 82.5812 208.883C82.5812 205.712 87.6804 197.783 87.6804 197.783C87.6804 197.783 89.2092 203.594 89.2092 206.234V218.388C89.2092 218.388 92.2669 212.055 96.3406 208.351C100.414 204.648 106.53 203.062 106.53 203.062C106.53 203.062 107.042 209.405 105.001 211.523C102.959 213.64 94.299 221.037 94.299 221.037L106.026 218.939L94.3085 226.336C94.3085 226.336 92.1245 229.291 90.2348 228.453C88.3451 227.616 85.1355 228.453 85.1355 228.453Z" fill="#92E3A9"/>
<path d="M96.4167 228.779H80.3213V244.262H96.4167V228.779Z" fill="#CCCCCC"/>
<path d="M97.3852 225.115H79.3716V230.099H97.3852V225.115Z" fill="#CCCCCC"/>
<path d="M135.464 107.536C135.464 107.536 130.374 103.074 128.817 101.449C127.26 99.8239 123.338 95.3524 126.462 96.9775C128.792 98.2764 131.015 99.7719 133.109 101.449C133.109 101.449 130.374 92.9196 130.374 90.4869C130.374 88.0542 134.287 89.6694 136.243 93.7273C138.199 97.7851 139.376 100.622 139.376 100.622C139.376 100.622 135.853 84.3804 138.987 83.5728C142.121 82.7652 142.899 94.1311 142.899 94.1311C142.899 94.1311 145.644 74.2259 149.546 78.6975C153.449 83.169 146.859 94.9486 146.859 94.9486C146.859 94.9486 154.693 89.2656 153.126 93.7273C152.591 95.0987 151.795 96.3448 150.787 97.392C149.779 98.4391 148.579 99.266 147.258 99.8239C147.258 99.8239 158.605 96.9775 155.472 101.449C152.338 105.921 142.178 109.565 142.178 109.565L135.464 107.536Z" fill="#92E3A9"/>
<path d="M149.147 110.934H133.052V126.416H149.147V110.934Z" fill="#CCCCCC"/>
<path d="M150.106 107.26H132.093V112.243H150.106V107.26Z" fill="#CCCCCC"/>
<path d="M72.8485 107.536C72.8485 107.536 67.7587 103.074 66.2014 101.449C64.6441 99.8239 60.7223 95.3524 63.8559 96.9775C66.1861 98.2764 68.4093 99.7719 70.503 101.449C70.503 101.449 67.7587 92.9196 67.7587 90.4869C67.7587 88.0542 71.671 89.6694 73.6272 93.7273C75.5833 97.7851 76.7608 100.622 76.7608 100.622C76.7608 100.622 73.2378 84.3804 76.3714 83.5728C79.5051 82.7652 80.2837 94.1311 80.2837 94.1311C80.2837 94.1311 83.028 74.2259 86.9308 78.6975C90.8336 83.169 84.1865 94.9486 84.1865 94.9486C84.1865 94.9486 92.0111 89.2656 90.4443 93.7273C89.9086 95.0987 89.1132 96.3448 88.1053 97.392C87.0973 98.4391 85.8972 99.266 84.5758 99.8239C84.5758 99.8239 95.9708 96.9775 92.7992 101.449C89.6276 105.921 79.5051 109.565 79.5051 109.565L72.8485 107.536Z" fill="#92E3A9"/>
<path d="M86.5031 110.934H70.4077V126.416H86.5031V110.934Z" fill="#CCCCCC"/>
<path d="M87.4716 107.26H69.458V112.243H87.4716V107.26Z" fill="#CCCCCC"/>
<path d="M27.3633 283.185V251.362H160.457V283.185H165.509V125.599H22.3115V283.185H27.3633ZM27.3633 133.084H160.457V184.723H27.3633V133.084ZM27.3633 192.179H160.457V243.818H27.3633V192.179Z" fill="#CCCCCC"/>
<path d="M32.4717 283.511H35.5483L35.5483 109.476H32.4717L32.4717 283.511Z" fill="#263238"/>
<path d="M28.4365 102.946C32.1209 96.554 38.4831 93.3432 43.3355 95.1259L68.281 96.3767L40.952 141.949L27.9142 119.394V119.325C25.018 115.445 25.056 108.796 28.4365 102.946Z" fill="#263238"/>
<path d="M77.7853 133.986C85.5938 120.442 84.1848 104.663 74.6382 98.7419C65.0917 92.8205 51.0226 98.9992 43.2142 112.542C35.4057 126.086 36.8147 141.865 46.3613 147.786C55.9078 153.708 69.9769 147.529 77.7853 133.986Z" fill="white"/>
<path d="M30.288 190.584H37.3149V179.651H30.288V190.584Z" fill="#263238"/>
<path d="M30.288 257.549H37.3149V246.616H30.288V257.549Z" fill="#263238"/>
<path d="M350.297 109.486H347.221V283.521H350.297V109.486Z" fill="#263238"/>
<path d="M354.343 102.946C350.658 96.554 344.286 93.3432 339.444 95.1259L314.498 96.3767L341.818 141.949L354.865 119.394L354.817 119.296C357.761 115.445 357.714 108.796 354.343 102.946Z" fill="#263238"/>
<path d="M336.411 147.765C345.957 141.844 347.366 126.064 339.558 112.521C331.749 98.978 317.68 92.7993 308.134 98.7207C298.587 104.642 297.178 120.421 304.987 133.964C312.795 147.508 326.864 153.686 336.411 147.765Z" fill="white"/>
<path d="M352.491 179.642H345.464V190.574H352.491V179.642Z" fill="#263238"/>
<path d="M352.491 246.615H345.464V257.548H352.491V246.615Z" fill="#263238"/>
<path d="M190.198 62.7909C190.198 62.7909 188.717 101.37 187.397 115.71C186.077 130.051 185.099 138.235 185.099 138.235C185.099 138.235 197.272 137.891 205.173 134.138C213.073 130.386 240.165 132.415 240.868 124.22C241.57 116.026 239.918 68.5724 239.918 68.5724C239.918 68.5724 234.268 54.5472 234.107 53.3554C233.945 52.1637 206.702 53.3554 197.975 54.6063C189.248 55.8571 190.198 62.7909 190.198 62.7909Z" fill="#263238"/>
<path d="M169.649 227.498C169.649 227.498 180.673 205.652 184.453 196.778C188.232 187.904 190.549 182.103 193.673 176.804C196.797 171.505 193.673 152.575 190.711 147.454C187.748 142.332 181.737 137.289 179.059 138.875C176.381 140.461 174.587 153.422 174.748 158.711C174.91 164 171.453 176.44 169.81 183.639C168.167 190.839 157.143 209.405 156.317 217.599C155.491 225.794 160.58 232.619 169.649 227.498Z" fill="#92E3A9"/>
<g style="mix-blend-mode:multiply" opacity="0.31">
<path d="M190.018 169.526C190.018 169.526 169.602 204.983 166.278 211.877C162.955 218.772 160.476 229.822 170.732 225.282C180.987 220.742 194.927 186.87 194.291 181.837C193.655 176.805 200.036 164.109 190.018 169.526Z" fill="black"/>
</g>
<path d="M169.649 227.498C169.649 227.498 180.673 205.652 184.453 196.778C188.232 187.904 190.549 182.103 193.673 176.804C196.797 171.505 193.673 152.575 190.711 147.454C187.748 142.332 181.737 137.289 179.059 138.875C176.381 140.461 174.587 153.422 174.748 158.711C174.91 164 171.453 176.44 169.81 183.639C168.167 190.839 157.143 209.405 156.317 217.599C155.491 225.794 160.58 232.619 169.649 227.498Z" stroke="#263238" stroke-linecap="round" stroke-linejoin="round"/>
<path d="M213.197 107.013C213.197 107.013 215.581 115.512 214.09 120.004C212.599 124.495 207.082 127.115 199.476 130.207C191.87 133.3 181.282 133.615 179.041 138.875C176.8 144.134 186.951 169.19 188.138 178.774C189.325 188.357 193.664 200.126 195.155 205.849C196.646 211.571 196.788 213.118 196.788 214.043C196.788 214.969 188.736 247.333 186.201 258.739C184.546 266.946 183.501 275.274 183.076 283.647H280.304C280.304 283.647 275.68 250.859 270.609 237.356C265.538 223.853 257.191 213.078 257.191 208.282C257.191 203.485 268.814 166.826 270.609 157.391C272.404 147.956 276.572 143.159 273.144 136.708C269.716 130.257 262.556 128.159 262.556 128.159L252.263 123.096C252.263 123.096 238.693 120.004 237.649 118.763C236.604 117.522 233.775 114.124 232.578 104.383C231.843 97.4998 231.545 90.574 231.686 83.6504C231.686 83.6504 221.402 101.566 213.197 107.013Z" fill="#92E3A9"/>
<g style="mix-blend-mode:multiply" opacity="0.31">
<path d="M267.684 237.397C262.622 223.943 254.266 213.119 254.266 208.322C254.266 203.525 265.898 166.867 267.684 157.431C268.303 154.471 269.109 151.556 270.095 148.705L250.24 165.587C250.24 165.587 245.017 186.27 234.097 196.611C223.177 206.953 217.954 209.908 223.177 214.34C228.399 218.772 234.572 231.576 234.572 233.546C234.572 235.516 229.349 253.244 235.996 252.259C242.643 251.274 246.441 228.129 248.341 236.993C249.898 244.262 250.506 270.401 250.667 283.648H277.379C277.379 283.648 272.754 250.86 267.684 237.397Z" fill="black"/>
</g>
<g style="mix-blend-mode:multiply" opacity="0.31">
<path d="M193.816 191.194C193.816 191.194 215.656 202.028 207.585 204.491C199.513 206.953 192.866 198.581 193.816 191.194Z" fill="black"/>
</g>
<path d="M213.197 107.013C213.197 107.013 215.581 115.512 214.09 120.004C212.599 124.495 207.082 127.115 199.476 130.207C191.87 133.3 181.282 133.615 179.041 138.875C176.8 144.134 186.951 169.19 188.138 178.774C189.325 188.357 193.664 200.126 195.155 205.849C196.646 211.571 196.788 213.118 196.788 214.043C196.788 214.969 188.736 247.333 186.201 258.739C184.546 266.946 183.501 275.274 183.076 283.647H280.304C280.304 283.647 275.68 250.859 270.609 237.356C265.538 223.853 257.191 213.078 257.191 208.282C257.191 203.485 268.814 166.826 270.609 157.391C272.404 147.956 276.572 143.159 273.144 136.708C269.716 130.257 262.556 128.159 262.556 128.159L252.263 123.096C252.263 123.096 238.693 120.004 237.649 118.763C236.604 117.522 233.775 114.124 232.578 104.383C231.843 97.4998 231.545 90.574 231.686 83.6504C231.686 83.6504 221.402 101.566 213.197 107.013Z" stroke="#263238" stroke-linecap="round" stroke-linejoin="round"/>
<path d="M10.4326 283.647H364" stroke="#263238" stroke-linecap="round" stroke-linejoin="round"/>
<path d="M204.783 127.922C205.03 135.073 205.847 151.639 208.268 160.218C210.42 167.399 213.738 174.147 218.077 180.172C218.077 180.172 231.647 163.773 239.101 144.282C242.025 136.929 244.109 129.247 245.311 121.392C241.788 120.467 238.133 119.423 237.61 118.763C236.566 117.522 233.736 114.124 232.54 104.383C231.805 97.4998 231.506 90.574 231.647 83.6504C231.647 83.6504 221.401 101.566 213.196 107.013C213.196 107.013 215.58 115.512 214.089 120.004C212.978 123.352 209.607 125.677 204.783 127.922Z" fill="white"/>
<path d="M232.578 104.383C231.843 97.4998 231.545 90.574 231.685 83.6504C231.685 83.6504 221.401 101.566 213.197 107.013C213.197 107.013 215.162 114.035 214.393 118.684C219.008 119.285 226.32 118.546 233.879 111.08C233.276 108.887 232.841 106.647 232.578 104.383V104.383Z" fill="#92E3A9"/>
<path opacity="0.5" d="M232.578 104.383C231.843 97.4998 231.545 90.574 231.685 83.6504C231.685 83.6504 221.401 101.566 213.197 107.013C213.197 107.013 215.162 114.035 214.393 118.684C219.008 119.285 226.32 118.546 233.879 111.08C233.276 108.887 232.841 106.647 232.578 104.383V104.383Z" fill="white"/>
<path d="M204.783 127.922C205.03 135.073 205.847 151.639 208.268 160.218C210.42 167.399 213.738 174.147 218.077 180.172C218.077 180.172 231.647 163.773 239.101 144.282C242.025 136.929 244.109 129.247 245.311 121.392C241.788 120.467 238.133 119.423 237.61 118.763C236.566 117.522 233.736 114.124 232.54 104.383C231.805 97.4998 231.506 90.574 231.647 83.6504C231.647 83.6504 221.401 101.566 213.196 107.013C213.196 107.013 215.58 115.512 214.089 120.004C212.978 123.352 209.607 125.677 204.783 127.922Z" stroke="#263238" stroke-linecap="round" stroke-linejoin="round"/>
<path d="M208.278 160.218C210.427 167.399 213.741 174.147 218.078 180.172C224.441 172.161 229.997 163.494 234.657 154.309C225.524 156.96 215.83 156.679 206.854 153.501C207.196 155.768 207.672 158.011 208.278 160.218V160.218Z" fill="white" stroke="#263238" stroke-linecap="round" stroke-linejoin="round"/>
<path d="M193.483 68.4439C193.483 68.4439 195.876 82.0555 195.876 87.9256C195.876 93.7957 201.982 105.871 207.955 110.362C213.928 114.853 218.837 113.76 223.614 110.204C228.39 106.649 233.451 101.34 237.031 89.6295C240.611 77.9188 236.737 67.0946 234.648 61.1851C232.559 55.2756 217.052 51.4345 206.16 54.2218C195.269 57.0091 193.635 63.805 193.483 68.4439Z" fill="white"/>
<path d="M230.593 93.6285C228.741 103.596 224.677 108.195 218.761 111.652C217.603 112.322 216.549 112.864 215.599 113.307C218.521 113.185 221.329 112.098 223.614 110.205C228.361 106.649 233.451 101.34 237.031 89.6297C239.984 79.9185 237.857 70.8375 235.844 64.6621L229.852 68.3162C229.852 68.3162 232.445 83.6611 230.593 93.6285Z" fill="#92E3A9"/>
<path opacity="0.5" d="M230.593 93.6285C228.741 103.596 224.677 108.195 218.761 111.652C217.603 112.322 216.549 112.864 215.599 113.307C218.521 113.185 221.329 112.098 223.614 110.205C228.361 106.649 233.451 101.34 237.031 89.6297C239.984 79.9185 237.857 70.8375 235.844 64.6621L229.852 68.3162C229.852 68.3162 232.445 83.6611 230.593 93.6285Z" fill="white"/>
<path d="M193.483 68.4439C193.483 68.4439 195.876 82.0555 195.876 87.9256C195.876 93.7957 201.982 105.871 207.955 110.362C213.928 114.853 218.837 113.76 223.614 110.204C228.39 106.649 233.451 101.34 237.031 89.6295C240.611 77.9188 236.737 67.0946 234.648 61.1851C232.559 55.2756 217.052 51.4345 206.16 54.2218C195.269 57.0091 193.635 63.805 193.483 68.4439Z" stroke="#263238" stroke-linecap="round" stroke-linejoin="round"/>
<path d="M209 91.6387C209 91.6387 209.892 93.9631 213.168 93.9631" stroke="#263238" stroke-linecap="round" stroke-linejoin="round"/>
<path d="M209.588 98.6114C209.588 98.6114 213.472 102.019 219.73 97.2227" stroke="#263238" stroke-linecap="round" stroke-linejoin="round"/>
<path d="M217.793 81.8683C217.793 81.8683 224.801 84.0352 228.533 79.5439" stroke="#263238" stroke-linecap="round" stroke-linejoin="round"/>
<path d="M218.391 82.3604C218.909 82.9216 219.536 83.3634 220.229 83.657C220.923 83.9505 221.669 84.0893 222.417 84.0643C223.248 84.0132 224.052 83.7453 224.756 83.2856C225.46 82.8259 226.04 82.1892 226.444 81.4346C223.843 82.284 221.108 82.5985 218.391 82.3604Z" fill="#263238"/>
<path d="M197.31 79.5439C197.31 79.5439 203.321 83.8579 208.211 80.7948" stroke="#263238" stroke-linecap="round" stroke-linejoin="round"/>
<path d="M197.738 80.1836C198.056 80.8922 198.516 81.5223 199.087 82.0319C199.659 82.5414 200.329 82.9186 201.052 83.1383C201.856 83.3574 202.701 83.3622 203.508 83.1521C204.315 82.9421 205.057 82.524 205.667 81.9368C202.939 81.895 200.245 81.2994 197.738 80.1836V80.1836Z" fill="#263238"/>
<path d="M188.906 53.3847L185.792 69.3108C188.316 70.4395 190.972 71.221 193.692 71.6352C197.566 72.0981 199.959 72.4034 199.959 72.4034L201.593 68.0796L202.495 72.561C205.171 73.2603 207.944 73.4703 210.69 73.1815C212.761 72.813 214.856 72.6056 216.957 72.561L218.742 68.8478L219.34 72.561H222.474C225.074 72.5093 227.645 71.986 230.071 71.0147C230.071 71.0147 235.17 89.7477 235.17 117.572C235.17 145.395 231.884 165.054 231.884 165.054C231.884 165.054 237.401 161.804 238.598 160.13C239.794 158.455 243.669 145.12 243.669 145.12L244.561 153.787C247.388 151.044 249.847 147.92 251.873 144.499C255.007 139.092 257.988 124.702 257.988 124.702L258.881 128.416L267.38 132.286C267.38 132.286 259.517 77.7318 254.446 59.9442C249.376 42.1566 246.85 35.3213 237.145 27.9345C227.44 20.5476 209.522 23.5516 200.273 30.5051C191.024 37.4586 188.906 53.3847 188.906 53.3847Z" fill="#263238"/>
<path d="M256.754 93.6871C257.386 93.9484 257.956 94.3475 258.426 94.8572C258.896 95.367 259.255 95.9756 259.479 96.6419C259.346 95.8047 259.204 94.9675 259.061 94.1303C258.515 93.5208 257.838 93.052 257.086 92.7613C256.81 92.6528 256.516 92.6055 256.221 92.6225C255.927 92.6395 255.639 92.7203 255.377 92.8598C252.746 94.15 250.543 100.857 248.939 105.752C248.509 107.211 247.995 108.642 247.4 110.037C247.21 110.401 247.021 110.46 246.888 110.47C245.786 110.598 243.555 107.85 241.931 105.851C241.162 104.866 240.44 104.019 239.813 103.369C239.606 103.146 239.35 102.978 239.068 102.877C238.786 102.776 238.485 102.745 238.189 102.788C236.224 103.024 233.755 106.058 232.207 108.274C232.207 108.825 232.207 109.377 232.207 109.938C233.717 107.634 236.471 104.029 238.265 103.763C238.417 103.738 238.573 103.752 238.718 103.804C238.864 103.855 238.995 103.943 239.101 104.058C239.699 104.689 240.411 105.555 241.162 106.491C243.156 108.934 245.207 111.416 246.793 111.416H246.945C247.217 111.377 247.476 111.266 247.696 111.093C247.915 110.921 248.088 110.693 248.198 110.431C248.822 108.99 249.358 107.509 249.803 105.999C251.265 101.537 253.478 94.8001 255.747 93.6773C255.906 93.603 256.078 93.5654 256.252 93.5671C256.425 93.5688 256.597 93.6097 256.754 93.6871V93.6871Z" fill="#474747"/>
<path d="M232.558 54.2904C232.863 54.2705 233.158 54.1695 233.414 53.9969C233.67 53.8244 233.879 53.5862 234.021 53.3055C235.122 51.5326 235.17 48.9029 235.217 46.4111C235.265 43.9192 235.312 41.2107 236.727 40.994C238.341 40.7478 240.383 44.3723 241.883 47.0316C243.384 49.6908 244.295 51.2175 245.254 51.2175C247.334 51.2175 248.435 47.8786 248.483 47.7407C248.52 47.6153 248.509 47.48 248.452 47.3627C248.396 47.2454 248.298 47.1551 248.179 47.1104C248.059 47.0726 247.93 47.0843 247.819 47.1431C247.707 47.2018 247.622 47.303 247.581 47.4255C247.324 48.2036 246.413 50.2325 245.254 50.2325C244.78 50.2325 243.526 47.9968 242.709 46.5293C240.886 43.3086 238.816 39.6349 236.585 40.019C234.353 40.4031 234.325 43.2889 234.268 46.3914C234.268 48.6862 234.173 51.316 233.223 52.8229C232.948 53.2661 232.701 53.3252 232.539 53.3252C231.191 53.3252 228.903 49.9568 227.06 47.2581C226.062 45.6264 224.893 44.1137 223.575 42.7472C223.413 42.5942 223.219 42.4832 223.008 42.4233C222.796 42.3634 222.574 42.3563 222.36 42.4025C221.106 42.6881 220.147 44.7663 218.818 47.6521C217.223 51.0993 215.238 55.3935 212.513 56.2898C209.151 57.4027 205.951 52.5471 203.378 48.6567C201.944 46.4899 200.7 44.6087 199.532 43.7321C199.251 43.5045 198.922 43.3499 198.572 43.2814C198.221 43.2128 197.86 43.2323 197.519 43.3381C195.496 44.0079 194.157 47.8195 193.084 50.8826C192.771 51.7789 192.496 52.557 192.258 53.1085C192.222 53.2089 192.161 53.2974 192.081 53.3649C192.001 53.4324 191.904 53.4765 191.802 53.4926C190.634 53.7191 188.004 51.8084 186.01 50.0159L185.792 51.119C187.615 52.7047 190.368 54.773 191.983 54.4578C192.238 54.4083 192.477 54.2918 192.676 54.1194C192.876 53.947 193.029 53.7244 193.122 53.4729C193.379 52.8918 193.654 52.094 193.977 51.1781C194.87 48.6271 196.227 44.7663 197.775 44.2837C197.977 44.2249 198.189 44.2175 198.394 44.262C198.599 44.3066 198.791 44.4019 198.953 44.5397C199.978 45.2784 201.232 47.1695 202.552 49.1688C205.011 52.882 207.993 57.4027 211.468 57.4027C211.907 57.4021 212.343 57.329 212.76 57.1861C215.874 56.2011 217.963 51.6508 219.635 48.0362C220.66 45.8103 221.724 43.5056 222.531 43.3184C222.605 43.3061 222.682 43.3131 222.753 43.3389C222.824 43.3647 222.888 43.4084 222.939 43.4662C224.181 44.7821 225.289 46.2277 226.244 47.7801C228.57 51.1584 230.716 54.2904 232.558 54.2904Z" fill="#474747"/>
<path d="M163.144 356C176.575 356 187.463 350.801 187.463 344.388C187.463 337.974 176.575 332.775 163.144 332.775C149.713 332.775 138.825 337.974 138.825 344.388C138.825 350.801 149.713 356 163.144 356Z" fill="#92E3A9"/>
<path opacity="0.5" d="M163.144 356C176.575 356 187.463 350.801 187.463 344.388C187.463 337.974 176.575 332.775 163.144 332.775C149.713 332.775 138.825 337.974 138.825 344.388C138.825 350.801 149.713 356 163.144 356Z" fill="white"/>
<path d="M136.642 299.278L147.505 341.63C147.505 344.506 154.836 346.84 163.876 346.84C172.916 346.84 180.246 344.506 180.246 341.63L191.11 299.278H136.642Z" fill="white"/>
<g style="mix-blend-mode:multiply" opacity="0.31">
<path d="M163.876 346.81C167.553 346.858 171.22 346.411 174.786 345.481L185.602 299.278H139.851L151.009 344.841C155.156 346.263 159.509 346.929 163.876 346.81V346.81Z" fill="black"/>
</g>
<path d="M136.642 299.278L147.505 341.63C147.505 344.506 154.836 346.84 163.876 346.84C172.916 346.84 180.246 344.506 180.246 341.63L191.11 299.278H136.642Z" stroke="#263238" stroke-linecap="round" stroke-linejoin="round"/>
<path d="M191.11 299.279C191.11 302.154 178.917 304.479 163.876 304.479C148.834 304.479 136.642 302.154 136.642 299.279C136.642 296.403 148.834 294.068 163.876 294.068C178.917 294.068 191.11 296.403 191.11 299.279Z" fill="white" stroke="#263238" stroke-linecap="round" stroke-linejoin="round"/>
<path d="M163.876 303.12C176.945 303.12 187.539 301.4 187.539 299.279C187.539 297.157 176.945 295.438 163.876 295.438C150.806 295.438 140.212 297.157 140.212 299.279C140.212 301.4 150.806 303.12 163.876 303.12Z" fill="#263238" stroke="#263238" stroke-linecap="round" stroke-linejoin="round"/>
<path d="M161.16 284.17C161.16 284.17 160.666 281.61 162.48 277C163.491 274.368 164.764 271.853 166.278 269.495C167.935 272.361 169.316 275.39 170.399 278.537C171.172 280.966 171.613 283.495 171.71 286.052C171.71 286.052 169.573 290.976 167.598 292.71C165.623 294.443 164.142 293.557 162.85 291.508C161.559 289.459 161.16 284.17 161.16 284.17Z" fill="#92E3A9" stroke="#263238" stroke-linecap="round" stroke-linejoin="round"/>
<path d="M155.405 289.459C155.008 287.611 154.842 285.718 154.911 283.826C154.911 279.886 156.554 273.76 156.554 273.76C158.38 275.809 159.929 278.105 161.16 280.585C162.802 284.17 165.765 291.173 165.765 291.173C166.554 288.671 167.604 286.267 168.899 284.003C171.035 280.25 176.296 275.296 176.296 275.296V282.791C176.282 285.606 175.723 288.389 174.653 290.976C174.653 290.976 174.159 292.69 167.911 294.049C161.663 295.408 156.554 293.901 155.405 289.459Z" fill="#92E3A9" stroke="#263238" stroke-linecap="round" stroke-linejoin="round"/>
<path d="M150.79 295.782C150.016 295.015 149.409 294.084 149.013 293.053C148.616 292.021 148.439 290.913 148.492 289.803C148.508 287.147 148.827 284.503 149.442 281.924C150.576 282.578 151.626 283.379 152.566 284.308C154.873 286.356 159.973 291.655 159.973 291.99C160.653 290.645 161.482 289.385 162.442 288.237C164.417 286.021 170.342 280.732 170.342 280.732C170.741 282.989 171.014 285.268 171.159 287.558C171.159 289.607 171.491 292.482 171.491 292.482C172.956 290.186 174.667 288.068 176.59 286.169C178.451 284.533 180.432 283.052 182.516 281.737C182.516 281.737 183.01 282.929 182.848 286.337C182.687 289.744 180.379 296.068 179.714 297.092C179.05 298.116 176.752 300.165 172.317 301.189C167.883 302.213 160.296 302.893 156.355 301.701C152.414 300.51 150.79 295.782 150.79 295.782Z" fill="#92E3A9" stroke="#263238" stroke-linecap="round" stroke-linejoin="round"/>
<path d="M148.492 302.263C146.692 300.601 145.039 298.775 143.554 296.806C141.242 293.799 139.466 290.387 138.312 286.731C140.198 287.082 141.993 287.837 143.583 288.947C146.868 290.995 156.744 299.022 156.744 299.022C155.675 296.8 155.442 294.244 156.089 291.852C156.584 289.912 157.482 288.107 158.719 286.563C158.719 286.563 162.176 289.804 163.325 292.364C164.473 294.925 165.793 298.678 165.793 298.678C166.857 295.821 168.357 293.16 170.237 290.798C172.133 288.688 174.292 286.849 176.657 285.332C176.657 285.332 178.138 289.094 177.15 292.335C176.163 295.575 175.175 298.136 175.175 298.136C175.175 298.136 178.793 291.655 181.756 290.119C184.719 288.582 191.138 287.164 191.138 287.164C191.138 287.164 188.507 293.31 186.39 296.028C184.733 298.057 182.974 299.994 181.12 301.829C181.12 301.829 164.616 305.336 148.492 302.263Z" fill="#92E3A9" stroke="#263238" stroke-linecap="round" stroke-linejoin="round"/>
<path d="M252.566 146.449C252.566 146.449 248.388 166.561 248.094 167.95C247.799 169.339 240.336 183.708 237.506 191.588C235.67 196.389 234.271 201.359 233.328 206.431C233.176 207.829 223.034 224.996 217.669 234.008C212.304 243.02 205.325 255.046 203.653 256.435C201.982 257.823 194.556 260.453 192.163 261.694C189.77 262.935 187.245 264.324 185.602 266.491C183.959 268.657 179.79 274.528 177.407 276.389C175.023 278.251 172.184 278.861 173.077 280.25C173.969 281.639 176.21 281.954 178.594 280.87C181.485 279.337 184.232 277.527 186.798 275.463C187.6 274.782 188.447 274.16 189.334 273.602C189.334 273.602 182.43 295.861 181.832 298.953C181.7 299.416 181.709 299.91 181.857 300.368C182.005 300.825 182.285 301.225 182.659 301.512C183.033 301.799 183.484 301.96 183.949 301.972C184.414 301.985 184.872 301.849 185.26 301.583C186.153 300.815 193.664 281.796 194.851 279.482C196.038 277.167 196.75 275.148 197.234 275.926C197.718 276.704 197.234 282.259 195.601 286.445C193.968 290.631 189.486 301.603 190.226 302.834C190.967 304.065 192.619 302.676 194.253 300.362C195.886 298.047 198.136 294.324 199.323 292.63C200.51 290.936 202.011 289.38 206.483 286.287C210.956 283.195 213.795 277.315 215.874 270.046C217.954 262.777 217.669 259.212 219.008 256.119C220.347 253.027 243.612 232.767 248.388 224.878C253.165 216.989 255.69 207.248 256.289 205.544C256.887 203.84 265.984 188.682 269.858 176.312C273.733 163.941 273.59 151.561 274.34 145.533C275.09 139.506 272.84 132.729 267.323 130.681" fill="#92E3A9"/>
<g style="mix-blend-mode:multiply" opacity="0.31">
<path d="M256.289 205.535C256.887 203.831 265.984 188.673 269.858 176.302C273.732 163.932 273.59 151.552 274.34 145.524C275.024 139.93 273.144 133.705 268.472 131.193C270.627 136.827 273.865 148.38 269.782 159.677C264.085 175.436 252.69 193.164 249.366 204.491C246.043 215.817 238.446 227.144 228.475 238.47C218.505 249.797 214.232 258.169 214.232 269.003C214.191 271.998 213.789 274.975 213.035 277.867C214.192 275.357 215.145 272.751 215.884 270.076C217.973 262.808 217.679 259.242 219.018 256.15C220.356 253.057 243.621 232.797 248.398 224.908C253.174 217.019 255.69 207.239 256.289 205.535Z" fill="black"/>
</g>
<path d="M252.566 146.449C252.566 146.449 248.388 166.561 248.094 167.95C247.799 169.339 240.336 183.708 237.506 191.588C235.67 196.389 234.271 201.359 233.328 206.431C233.176 207.829 223.034 224.996 217.669 234.008C212.304 243.02 205.325 255.046 203.653 256.435C201.982 257.823 194.556 260.453 192.163 261.694C189.77 262.935 187.245 264.324 185.602 266.491C183.959 268.657 179.79 274.528 177.407 276.389C175.023 278.251 172.184 278.861 173.077 280.25C173.969 281.639 176.21 281.954 178.594 280.87C181.485 279.337 184.232 277.527 186.798 275.463C187.6 274.782 188.447 274.16 189.334 273.602C189.334 273.602 182.43 295.861 181.832 298.953C181.7 299.416 181.709 299.91 181.857 300.368C182.005 300.825 182.285 301.225 182.659 301.512C183.033 301.799 183.484 301.96 183.949 301.972C184.414 301.985 184.872 301.849 185.26 301.583C186.153 300.815 193.664 281.796 194.851 279.482C196.038 277.167 196.75 275.148 197.234 275.926C197.718 276.704 197.234 282.259 195.601 286.445C193.968 290.631 189.486 301.603 190.226 302.834C190.967 304.065 192.619 302.676 194.253 300.362C195.886 298.047 198.136 294.324 199.323 292.63C200.51 290.936 202.011 289.38 206.483 286.287C210.956 283.195 213.795 277.315 215.874 270.046C217.954 262.777 217.669 259.212 219.008 256.119C220.347 253.027 243.612 232.767 248.388 224.878C253.165 216.989 255.69 207.248 256.289 205.544C256.887 203.84 265.984 188.682 269.858 176.312C273.733 163.941 273.59 151.561 274.34 145.533C275.09 139.506 272.84 132.729 267.323 130.681" stroke="#263238" stroke-linecap="round" stroke-linejoin="round"/>
<path d="M210.908 245.364C207.566 250.919 204.641 255.627 203.653 256.464C202.011 257.853 194.556 260.483 192.163 261.724C189.77 262.965 187.245 264.354 185.602 266.52C183.959 268.687 179.79 274.557 177.407 276.419C175.023 278.28 172.184 278.891 173.077 280.28C173.969 281.668 176.21 281.984 178.594 280.9C181.485 279.367 184.232 277.557 186.798 275.493C187.6 274.811 188.447 274.189 189.334 273.632C189.334 273.632 182.43 295.891 181.832 298.983C181.7 299.446 181.709 299.94 181.857 300.398C182.005 300.855 182.285 301.255 182.659 301.542C183.033 301.829 183.484 301.989 183.949 302.002C184.414 302.015 184.872 301.879 185.26 301.613C186.153 300.845 193.664 281.826 194.851 279.512C196.038 277.197 196.75 275.178 197.234 275.956C197.718 276.734 197.234 282.289 195.601 286.475C193.968 290.661 189.486 301.633 190.226 302.864C190.967 304.095 192.619 302.706 194.253 300.392C195.886 298.077 198.136 294.354 199.323 292.66C200.51 290.966 202.011 289.41 206.483 286.317C210.956 283.225 213.795 277.345 215.874 270.076C217.954 262.807 217.669 259.242 219.008 256.149C219.855 254.864 220.847 253.687 221.961 252.643C217.365 246.28 213.168 245.286 210.908 245.364Z" fill="white" stroke="#263238" stroke-linecap="round" stroke-linejoin="round"/>
<path d="M200.216 291.38L204.394 280.093" stroke="#263238" stroke-linecap="round" stroke-linejoin="round"/>
<path d="M205.144 287.046L207.822 281.639" stroke="#263238" stroke-linecap="round" stroke-linejoin="round"/>
<path d="M207.974 141.348L176.914 137.615C175.865 137.486 174.805 137.728 173.905 138.302C173.006 138.876 172.319 139.748 171.957 140.776L169.953 146.449C169.953 146.449 170.561 152.979 176.144 152.625C180.797 152.329 181.035 148.941 180.978 147.828L204.717 150.783L207.974 141.348Z" fill="white" stroke="#263238" stroke-linecap="round" stroke-linejoin="round"/>
<path d="M204.698 150.783L204.841 170.58L208.126 163.311L207.974 141.348L204.698 150.783Z" fill="#263238" stroke="#263238" stroke-linecap="round" stroke-linejoin="round"/>
<path d="M204.841 170.58L170.542 165.32L169.943 146.449L204.698 150.783L204.841 170.58Z" fill="#263238" stroke="#263238" stroke-linecap="round" stroke-linejoin="round"/>
<path d="M180.978 147.858L181.291 167.073C181.291 167.073 180.607 168.767 177.493 169.486C174.378 170.205 172.336 170.107 170.846 168.058C170.254 167.193 169.923 166.164 169.896 165.104V146.449L180.978 147.858Z" fill="#263238" stroke="#263238" stroke-linecap="round" stroke-linejoin="round"/>
<path d="M195.478 166.059C195.949 164.869 196.191 163.594 196.19 162.307C196.258 159.984 195.476 157.722 193.999 155.975C192.523 154.227 190.462 153.126 188.234 152.892C186.005 152.659 183.774 153.31 181.99 154.716C180.207 156.121 179.003 158.175 178.622 160.465L177.246 166.118L179.525 166.837C180.263 168.328 181.381 169.58 182.757 170.459C184.133 171.337 185.714 171.808 187.33 171.821C188.823 171.822 190.289 171.418 191.584 170.649L194.243 171.496L195.478 166.059Z" fill="#263238" stroke="white" stroke-linecap="round" stroke-linejoin="round"/>
<path d="M185.536 179.089C190.434 179.089 194.405 174.829 194.405 169.575C194.405 164.32 190.434 160.061 185.536 160.061C180.637 160.061 176.667 164.32 176.667 169.575C176.667 174.829 180.637 179.089 185.536 179.089Z" fill="#263238" stroke="white" stroke-linecap="round" stroke-linejoin="round"/>
<path d="M185.535 176.42C189.06 176.42 191.917 173.355 191.917 169.575C191.917 165.794 189.06 162.729 185.535 162.729C182.011 162.729 179.154 165.794 179.154 169.575C179.154 173.355 182.011 176.42 185.535 176.42Z" fill="#263238" stroke="white" stroke-linecap="round" stroke-linejoin="round"/>
<path d="M185.137 136.709L182.753 145.977L196.665 147.839L198.982 138.196L185.137 136.709Z" fill="#263238" stroke="white" stroke-linecap="round" stroke-linejoin="round"/>
<path d="M182.753 145.977V150.517L194.68 152.162L196.665 147.838L182.753 145.977Z" fill="#263238" stroke="white" stroke-linecap="round" stroke-linejoin="round"/>
<path d="M205.002 144.548C205.002 145.966 203.492 147.109 201.631 147.109C199.77 147.109 198.26 145.966 198.26 144.548C198.26 143.13 199.77 141.987 201.631 141.987C203.492 141.987 205.002 143.14 205.002 144.548Z" fill="white" stroke="#263238" stroke-linecap="round" stroke-linejoin="round"/>
<path d="M179.145 146.163C179.145 147.582 177.597 148.724 175.688 148.724C173.78 148.724 172.232 147.582 172.232 146.163C172.232 144.745 173.78 143.603 175.688 143.603C177.597 143.603 179.145 144.755 179.145 146.163Z" fill="white" stroke="#263238" stroke-linecap="round" stroke-linejoin="round"/>
<path d="M175.46 138.826C175.46 138.826 170.475 139.89 167.218 140.156C163.961 140.422 163.097 141.584 163.097 142.923C163.097 144.263 161.891 154.585 161.891 154.585L166.354 153.068L167.389 144.342C169.299 144.49 171.219 144.34 173.086 143.898C175.318 143.189 176.685 142.293 176.685 140.944C176.685 139.594 176.742 138.826 175.46 138.826Z" fill="white" stroke="#263238" stroke-linecap="round" stroke-linejoin="round"/>
<path d="M157.855 164.916C157.855 164.916 161.549 175.681 162.413 178.183C163.387 180.843 163.417 183.775 162.499 186.456C161.464 189.578 157.086 206.755 154.427 214.152C151.768 221.548 158.377 230.531 161.293 232.136C164.208 233.742 168.158 231.063 170.732 225.242C173.305 219.421 172.707 209.395 172.631 201.909C172.555 194.424 171.007 183.57 171.178 181.699C171.349 179.827 173.58 177.424 172.802 172.352C172.023 167.28 171.605 165.586 171.605 163.626C171.605 161.666 171.947 157.214 168.51 156.061C165.072 154.909 157.684 158.051 157.855 164.916Z" fill="white"/>
<path d="M172.792 172.392C172.023 167.32 171.596 165.626 171.596 163.666C171.596 161.706 171.937 157.254 168.5 156.102C166.724 155.501 163.904 156.053 161.606 157.668L161.881 164.808L164.559 171.053C164.559 171.053 167.114 172.501 167.55 178.834C167.987 185.167 167.332 198.286 167.332 198.286L172.726 212.606C172.792 208.942 172.659 205.2 172.621 201.95C172.536 194.474 170.997 183.61 171.168 181.739C171.339 179.868 173.571 177.465 172.792 172.392Z" fill="#92E3A9"/>
<path opacity="0.5" d="M172.792 172.392C172.023 167.32 171.596 165.626 171.596 163.666C171.596 161.706 171.937 157.254 168.5 156.102C166.724 155.501 163.904 156.053 161.606 157.668L161.881 164.808L164.559 171.053C164.559 171.053 167.114 172.501 167.55 178.834C167.987 185.167 167.332 198.286 167.332 198.286L172.726 212.606C172.792 208.942 172.659 205.2 172.621 201.95C172.536 194.474 170.997 183.61 171.168 181.739C171.339 179.868 173.571 177.465 172.792 172.392Z" fill="white"/>
<path d="M157.855 164.916C157.855 164.916 161.549 175.681 162.413 178.183C163.387 180.843 163.417 183.775 162.499 186.456C161.464 189.578 157.086 206.755 154.427 214.152C151.768 221.548 158.377 230.531 161.293 232.136C164.208 233.742 168.158 231.063 170.732 225.242C173.305 219.421 172.707 209.395 172.631 201.909C172.555 194.424 171.007 183.57 171.178 181.699C171.349 179.827 173.58 177.424 172.802 172.352C172.023 167.28 171.605 165.586 171.605 163.626C171.605 161.666 171.947 157.214 168.51 156.061C165.072 154.909 157.684 158.051 157.855 164.916Z" stroke="#263238" stroke-linecap="round" stroke-linejoin="round"/>
<path d="M170.731 225.282C173.314 219.491 172.706 209.435 172.63 201.949C172.63 199.783 172.46 197.34 172.27 194.907C166.126 199.438 162.147 197.301 160.067 195.124C158.311 201.506 156.06 209.642 154.436 214.152C151.778 221.539 158.387 230.532 161.302 232.137C164.217 233.742 168.158 231.063 170.731 225.282Z" fill="#92E3A9"/>
<g style="mix-blend-mode:multiply" opacity="0.31">
<path d="M170.731 225.282C173.314 219.491 172.707 209.435 172.631 201.949C172.631 199.783 172.46 197.34 172.27 194.907C170.928 195.939 169.425 196.722 167.826 197.222C166.164 208.273 163.951 222.613 163.002 226.159C162.499 227.971 160.998 229.261 159.146 230.236C159.777 230.985 160.517 231.627 161.34 232.137C164.208 233.742 168.158 231.063 170.731 225.282Z" fill="black"/>
</g>
<path d="M170.731 225.282C173.314 219.491 172.706 209.435 172.63 201.949C172.63 199.783 172.46 197.34 172.27 194.907C166.126 199.438 162.147 197.301 160.067 195.124C158.311 201.506 156.06 209.642 154.436 214.152C151.778 221.539 158.387 230.532 161.302 232.137C164.217 233.742 168.158 231.063 170.731 225.282Z" stroke="#263238" stroke-linecap="round" stroke-linejoin="round"/>
<path d="M163.353 172.924L164.559 171.052C164.559 171.052 170.997 172.746 172.365 172.658C173.732 172.569 173.998 172.126 174.596 171.141C175.195 170.156 171.937 169.545 169.962 169.004C167.987 168.462 163.866 166.778 163.866 166.778C165.347 165.478 166.894 164.262 168.5 163.134C168.851 163.134 171.51 165.448 173.656 165.537C173.965 165.444 174.25 165.28 174.49 165.057C174.729 164.835 174.918 164.559 175.041 164.251C175.164 163.942 175.219 163.609 175.201 163.276C175.183 162.943 175.093 162.618 174.938 162.326C174.672 161.715 176.249 163.143 176.486 161.174C176.657 159.745 174.292 157.057 173.998 156.722C173.367 155.878 172.846 154.95 172.45 153.964C171.937 152.89 170.048 150.221 168.5 150.487C166.952 150.753 155.975 155.826 155.975 155.826C155.731 157.281 155.819 158.775 156.231 160.189L159.204 169.526" fill="white"/>
<path d="M163.353 172.924L164.559 171.052C164.559 171.052 170.997 172.746 172.365 172.658C173.732 172.569 173.998 172.126 174.596 171.141C175.195 170.156 171.937 169.545 169.962 169.004C167.987 168.462 163.866 166.778 163.866 166.778C165.347 165.478 166.894 164.262 168.5 163.134C168.851 163.134 171.51 165.448 173.656 165.537C173.965 165.444 174.25 165.28 174.49 165.057C174.729 164.835 174.918 164.559 175.041 164.251C175.164 163.942 175.219 163.609 175.201 163.276C175.183 162.943 175.093 162.618 174.938 162.326C174.672 161.715 176.249 163.143 176.486 161.174C176.657 159.745 174.292 157.057 173.998 156.722C173.367 155.878 172.846 154.95 172.45 153.964C171.937 152.89 170.048 150.221 168.5 150.487C166.952 150.753 155.975 155.826 155.975 155.826C155.731 157.281 155.819 158.775 156.231 160.189L159.204 169.526" stroke="#263238" stroke-linecap="round" stroke-linejoin="round"/>
<path d="M161.103 160.819C161.103 160.819 167.75 157.697 168.699 157.608C169.034 157.593 169.366 157.677 169.655 157.852C169.945 158.027 170.18 158.284 170.332 158.593C170.589 158.948 174.881 162.326 174.881 162.326" fill="white"/>
<path d="M161.103 160.819C161.103 160.819 167.75 157.697 168.699 157.608C169.034 157.593 169.366 157.677 169.655 157.852C169.945 158.027 170.18 158.284 170.332 158.593C170.589 158.948 174.881 162.326 174.881 162.326" stroke="#263238" stroke-linecap="round" stroke-linejoin="round"/>
</g>
<defs>
<filter id="filter0_d" x="0" y="0" width="368.5" height="356" filterUnits="userSpaceOnUse" color-interpolation-filters="sRGB">
<feFlood flood-opacity="0" result="BackgroundImageFix"/>
<feColorMatrix in="SourceAlpha" type="matrix" values="0 0 0 0 0 0 0 0 0 0 0 0 0 0 0 0 0 0 127 0"/>
<feOffset dy="-4"/>
<feGaussianBlur stdDeviation="2"/>
<feColorMatrix type="matrix" values="0 0 0 0 0 0 0 0 0 0 0 0 0 0 0 0 0 0 0.25 0"/>
<feBlend mode="normal" in2="BackgroundImageFix" result="effect1_dropShadow"/>
<feBlend mode="normal" in="SourceGraphic" in2="effect1_dropShadow" result="shape"/>
</filter>
</defs>
</svg>
