<svg width="369" height="357" viewBox="0 0 369 357" fill="none" xmlns="http://www.w3.org/2000/svg">
<g filter="url(#filter0_d)">
<path d="M7.69655 143.453C7.69655 143.453 -7.7279 204.083 35.2035 256.955C78.1348 309.826 152.933 330.336 213.099 348.45C273.264 366.563 329.553 345.655 350.674 299.093C371.796 252.531 329.132 227.464 319.723 166.654C310.314 105.843 317.82 88.3364 273.933 42.03C230.045 -4.27634 139.966 -3.15847 79.0706 44.37C18.1749 91.8984 7.69655 143.453 7.69655 143.453Z" fill="#92E3A9"/>
<path opacity="0.7" d="M7.69655 143.453C7.69655 143.453 -7.7279 204.083 35.2035 256.955C78.1348 309.826 152.933 330.336 213.099 348.45C273.264 366.563 329.553 345.655 350.674 299.093C371.796 252.531 329.132 227.464 319.723 166.654C310.314 105.843 317.82 88.3364 273.933 42.03C230.045 -4.27634 139.966 -3.15847 79.0706 44.37C18.1749 91.8984 7.69655 143.453 7.69655 143.453Z" fill="white"/>
<path d="M347.127 189.428C347.127 189.428 347.127 185.468 341.101 179.955C335.076 174.441 331.219 171.239 331.219 171.239C331.219 171.239 328.207 180.343 333.79 185.895C337.915 189.796 342.387 193.374 347.158 196.59L347.127 189.428Z" fill="#92E3A9"/>
<path d="M338.386 214.173C338.386 214.173 338.386 210.214 332.371 204.7C326.355 199.186 322.479 195.984 322.479 195.984C322.479 195.984 319.466 205.032 325.06 210.611C329.183 214.515 333.655 218.092 338.428 221.307L338.386 214.173Z" fill="#92E3A9"/>
<path d="M346.747 196.183C346.747 196.183 347.199 192.242 353.821 187.306C360.444 182.371 364.711 179.604 364.711 179.604C364.711 179.604 366.655 188.964 360.464 193.928C355.931 197.41 351.087 200.535 345.986 203.269L346.747 196.183Z" fill="#92E3A9"/>
<path d="M336.196 225.399C336.196 225.399 337.091 221.524 344.238 217.261C351.384 212.998 355.899 210.63 355.899 210.63C355.899 210.63 356.762 220.103 350.037 224.471C345.142 227.488 339.983 230.124 334.613 232.353L336.196 225.399Z" fill="#92E3A9"/>
<path d="M338.181 257.258C338.181 257.258 338.181 253.299 344.196 247.785C350.212 242.271 354.089 239.069 354.089 239.069C354.089 239.069 357.101 248.183 351.507 253.734C347.381 257.635 342.91 261.212 338.14 264.43L338.181 257.258Z" fill="#92E3A9"/>
<path d="M338.078 265.036C338.078 265.036 338.685 261.114 333.585 254.833C328.484 248.552 325.142 244.914 325.142 244.914C325.142 244.914 320.751 253.535 325.43 259.759C328.9 264.154 332.762 268.274 336.978 272.074L338.078 265.036Z" fill="#92E3A9"/>
<path d="M332.145 288.076C332.145 288.076 332.145 284.116 338.16 278.602C344.176 273.089 348.052 269.887 348.052 269.887C348.052 269.887 351.065 279 345.471 284.542C341.348 288.446 336.877 292.024 332.104 295.238L332.145 288.076Z" fill="#92E3A9"/>
<path d="M336.155 308.975C336.155 308.975 335.076 305.138 339.374 298.374C343.672 291.61 346.572 287.631 346.572 287.631C346.572 287.631 351.991 295.74 348.104 302.419C345.203 307.153 341.873 311.653 338.15 315.871L336.155 308.975Z" fill="#92E3A9"/>
<path d="M347.672 188.415C347.369 192.545 346.819 196.656 346.027 200.731C343.641 212.051 337.698 219.365 335.312 229.596C332.926 239.828 339.765 253.005 337.934 266.154C336.104 279.304 330.551 286.598 332.145 295.371C333.739 304.143 342.088 327.884 342.088 327.884" stroke="#263238" stroke-width="0.5" stroke-linecap="round" stroke-linejoin="round"/>
<path d="M346.685 198.816L353.174 194.222" stroke="#263238" stroke-width="0.5" stroke-linecap="round" stroke-linejoin="round"/>
<path d="M346.993 193.531L344.278 189.078" stroke="#263238" stroke-width="0.5" stroke-linecap="round" stroke-linejoin="round"/>
<path d="M335.671 229.112C335.671 229.112 341.101 225.323 346.684 221.609" stroke="#263238" stroke-width="0.5" stroke-linecap="round" stroke-linejoin="round"/>
<path d="M338.386 221.306C338.386 221.306 333.862 213.131 328.73 207.712" stroke="#263238" stroke-width="0.5" stroke-linecap="round" stroke-linejoin="round"/>
<path d="M338.386 262.895C341.49 257.641 345.404 252.829 350.006 248.609" stroke="#263238" stroke-width="0.5" stroke-linecap="round" stroke-linejoin="round"/>
<path d="M337.337 268.503C335.684 264.93 333.713 261.489 331.445 258.215C328.278 253.905 327.826 253.346 327.826 253.346" stroke="#263238" stroke-width="0.5" stroke-linecap="round" stroke-linejoin="round"/>
<path d="M332.145 295.361C333.516 292.212 335.149 289.165 337.029 286.248C338.909 283.541 341.031 280.983 343.374 278.603" stroke="#263238" stroke-width="0.5" stroke-linecap="round" stroke-linejoin="round"/>
<path d="M338.119 315.871C337.804 312.866 338.365 309.838 339.744 307.099C342.006 303.063 344.577 297.786 345.636 295.73" stroke="#263238" stroke-width="0.5" stroke-linecap="round" stroke-linejoin="round"/>
<path d="M307.702 242.356C307.702 242.356 307.24 239.874 310.356 235.791C313.471 231.708 315.497 229.34 315.497 229.34C315.497 229.34 318.458 234.749 315.61 238.813C313.496 241.674 311.122 244.365 308.515 246.856L307.702 242.356Z" fill="#92E3A9"/>
<path d="M316.093 257.003C316.093 257.003 315.63 254.511 318.756 250.437C321.882 246.364 323.898 243.977 323.898 243.977C323.898 243.977 326.859 249.395 324.001 253.45C321.883 256.309 319.51 258.999 316.905 261.493L316.093 257.003Z" fill="#92E3A9"/>
<path d="M308.73 246.553C308.73 246.553 307.99 244.128 303.25 241.693C298.509 239.259 295.548 237.951 295.548 237.951C295.548 237.951 295.435 244.014 299.897 246.477C303.154 248.208 306.563 249.685 310.088 250.892L308.73 246.553Z" fill="#92E3A9"/>
<path d="M318.798 263.823C318.798 263.823 317.769 261.483 312.792 259.522C307.815 257.561 304.7 256.538 304.7 256.538C304.7 256.538 305.276 262.582 310.006 264.628C313.44 266.035 316.997 267.173 320.638 268.029L318.798 263.823Z" fill="#92E3A9"/>
<path d="M321.307 283.993C321.307 283.993 320.844 281.511 316.412 278.631C311.98 275.751 309.214 274.159 309.214 274.159C309.214 274.159 308.402 280.175 312.556 283.093C315.597 285.127 318.816 286.924 322.181 288.464L321.307 283.993Z" fill="#92E3A9"/>
<path d="M322.283 288.862C322.283 288.862 321.44 286.465 323.898 282.013C326.355 277.56 328.011 274.945 328.011 274.945C328.011 274.945 331.774 279.919 329.574 284.286C327.918 287.396 325.982 290.371 323.785 293.182L322.283 288.862Z" fill="#92E3A9"/>
<path d="M329.841 308.898C329.841 308.898 330.15 306.397 334.397 303.29C338.644 300.183 341.338 298.439 341.338 298.439C341.338 298.439 342.52 304.408 338.551 307.534C335.65 309.728 332.555 311.692 329.296 313.408L329.841 308.898Z" fill="#92E3A9"/>
<path d="M328.72 302.722C328.72 302.722 328.257 300.24 323.826 297.36C319.394 294.48 316.627 292.879 316.627 292.879C316.627 292.879 315.815 298.895 319.98 301.822C323.016 303.857 326.232 305.654 329.594 307.193L328.72 302.722Z" fill="#92E3A9"/>
<path d="M328.721 316.221C328.721 316.221 328.947 313.71 325.451 309.893C321.954 306.075 319.692 303.877 319.692 303.877C319.692 303.877 317.255 309.504 320.474 313.35C322.854 316.028 325.471 318.519 328.299 320.797L328.721 316.221Z" fill="#92E3A9"/>
<path d="M307.239 241.778C307.916 244.345 308.746 246.875 309.728 249.357C312.556 256.216 317.142 260.204 319.846 266.409C322.551 272.614 319.846 281.567 322.499 289.6C325.152 297.634 329.543 301.679 329.584 307.344C329.625 313.009 327.198 328.726 327.198 328.726" stroke="#263238" stroke-width="0.5" stroke-linecap="round" stroke-linejoin="round"/>
<path d="M309.08 248.192L304.473 245.966" stroke="#263238" stroke-width="0.5" stroke-linecap="round" stroke-linejoin="round"/>
<path d="M308.268 244.914L309.45 241.854" stroke="#263238" stroke-width="0.5" stroke-linecap="round" stroke-linejoin="round"/>
<path d="M319.558 266.097C319.558 266.097 315.712 264.287 311.764 262.487" stroke="#263238" stroke-width="0.5" stroke-linecap="round" stroke-linejoin="round"/>
<path d="M316.936 261.474C318.065 258.185 319.557 255.011 321.389 252.001" stroke="#263238" stroke-width="0.5" stroke-linecap="round" stroke-linejoin="round"/>
<path d="M321.841 287.555C319.275 284.563 316.251 281.931 312.864 279.739" stroke="#263238" stroke-width="0.5" stroke-linecap="round" stroke-linejoin="round"/>
<path d="M323.157 290.936C323.768 288.53 324.597 286.176 325.635 283.897C327.116 280.875 327.332 280.478 327.332 280.478" stroke="#263238" stroke-width="0.5" stroke-linecap="round" stroke-linejoin="round"/>
<path d="M329.368 311.579C330.869 309.872 332.528 308.287 334.325 306.842C335.472 306.066 336.548 305.204 337.543 304.266" stroke="#263238" stroke-width="0.5" stroke-linecap="round" stroke-linejoin="round"/>
<path d="M329.584 307.288C328.361 305.45 326.986 303.702 325.471 302.058C323.973 300.551 322.343 299.161 320.597 297.899" stroke="#263238" stroke-width="0.5" stroke-linecap="round" stroke-linejoin="round"/>
<path d="M328.248 320.749C328.094 318.831 327.383 316.985 326.191 315.406C324.299 313.104 322.078 310.044 321.163 308.851" stroke="#263238" stroke-width="0.5" stroke-linecap="round" stroke-linejoin="round"/>
<path d="M314.9 325.932H354.284V353.121C354.284 353.874 353.959 354.597 353.381 355.13C352.802 355.663 352.017 355.963 351.199 355.963H318.026C317.208 355.963 316.424 355.663 315.845 355.13C315.267 354.597 314.942 353.874 314.942 353.121V325.932H314.9Z" fill="#263238"/>
<path d="M353.935 330.659H314.859C314.041 330.659 313.256 330.359 312.678 329.826C312.099 329.293 311.774 328.57 311.774 327.817C311.774 327.063 312.099 326.34 312.678 325.807C313.256 325.274 314.041 324.975 314.859 324.975H353.935C354.753 324.975 355.537 325.274 356.116 325.807C356.694 326.34 357.019 327.063 357.019 327.817C357.019 328.57 356.694 329.293 356.116 329.826C355.537 330.359 354.753 330.659 353.935 330.659Z" fill="#263238"/>
<path d="M279.023 77.7741C298.332 77.7741 313.985 63.3533 313.985 45.5643C313.985 27.7753 298.332 13.3545 279.023 13.3545C259.714 13.3545 244.061 27.7753 244.061 45.5643C244.061 63.3533 259.714 77.7741 279.023 77.7741Z" fill="#263238"/>
<path d="M290.417 71.4489C305.937 65.649 313.414 49.3566 307.119 35.0589C300.823 20.7611 283.139 13.8723 267.62 19.6722C252.1 25.4721 244.623 41.7644 250.918 56.0622C257.214 70.3599 274.898 77.2488 290.417 71.4489Z" fill="white"/>
<path d="M259.352 50.6985L279.023 45.5639V20.2129" stroke="#263238" stroke-width="2" stroke-miterlimit="10"/>
<path d="M109.385 189.561H70.9984L20.7456 65.3066H59.1319L109.385 189.561Z" fill="#263238"/>
<path opacity="0.2" d="M109.385 189.561H70.9984L20.7456 65.3066H59.1319L109.385 189.561Z" fill="white"/>
<path d="M48.8799 95.6592H39.0083C38.3352 95.622 37.6875 95.4089 37.1411 95.0448C36.5948 94.6807 36.1724 94.1808 35.9234 93.6034L32.1084 84.1773C31.976 83.9615 31.9095 83.7167 31.916 83.4689C31.9224 83.2211 32.0014 82.9795 32.1448 82.7697C32.2882 82.5599 32.4905 82.3898 32.7303 82.2773C32.9701 82.1649 33.2384 82.1144 33.5069 82.131H43.3785C44.0498 82.1696 44.6956 82.3822 45.2414 82.7442C45.7872 83.1063 46.2108 83.603 46.4634 84.1773L50.2784 93.6034C50.7309 94.7402 50.1139 95.6592 48.8799 95.6592Z" fill="#263238"/>
<path d="M61.6718 71.5876H23.2855L20.7456 65.3066H59.1319L61.6718 71.5876Z" fill="#263238"/>
<path d="M36.4067 72.6201L37.507 75.3485" stroke="#263238" stroke-linecap="round" stroke-linejoin="round"/>
<path d="M37.8872 72.6201L38.9875 75.3485" stroke="#263238" stroke-linecap="round" stroke-linejoin="round"/>
<path d="M39.3579 72.6201L40.4685 75.3485" stroke="#263238" stroke-linecap="round" stroke-linejoin="round"/>
<path d="M40.8389 72.6201L41.9391 75.3485" stroke="#263238" stroke-linecap="round" stroke-linejoin="round"/>
<path d="M42.3193 72.6201L43.4196 75.3485" stroke="#263238" stroke-linecap="round" stroke-linejoin="round"/>
<path d="M43.8003 72.6201L44.9006 75.3485" stroke="#263238" stroke-linecap="round" stroke-linejoin="round"/>
<path d="M45.2808 72.6201L46.381 75.3485" stroke="#263238" stroke-linecap="round" stroke-linejoin="round"/>
<path d="M46.7617 72.6201L47.862 75.3485" stroke="#263238" stroke-linecap="round" stroke-linejoin="round"/>
<path d="M48.2319 72.6201L49.3425 75.3485" stroke="#263238" stroke-linecap="round" stroke-linejoin="round"/>
<path d="M49.7129 72.6201L50.8132 75.3485" stroke="#263238" stroke-linecap="round" stroke-linejoin="round"/>
<path d="M45.6823 89.7484L36.4276 84.3202C36.3414 84.2574 36.2375 84.2188 36.1282 84.2087C36.0188 84.1986 35.9087 84.2176 35.8107 84.2633C35.7318 84.3181 35.6784 84.3985 35.6612 84.4881C35.644 84.5778 35.6644 84.6701 35.7181 84.7465L39.9753 93.2063C40.031 93.3131 40.1115 93.4075 40.2109 93.4828C40.3104 93.558 40.4265 93.6124 40.5511 93.642H40.6951C40.7715 93.6474 40.8476 93.6289 40.9111 93.5893C40.9746 93.5497 41.0217 93.4915 41.0447 93.4242L42.073 90.639H45.7749C45.8228 90.643 45.8712 90.6376 45.9167 90.6231C45.9622 90.6086 46.0039 90.5854 46.0389 90.5549C46.0739 90.5245 46.1015 90.4875 46.1198 90.4464C46.1381 90.4054 46.1467 90.3612 46.145 90.3169C46.1251 90.1942 46.0723 90.0781 45.9916 89.9788C45.9108 89.8796 45.8045 89.8005 45.6823 89.7484V89.7484Z" fill="white"/>
<path d="M45.4965 90.1275L36.2007 84.6992L40.4578 93.159L41.517 90.1654L45.4965 90.1275Z" fill="#263238"/>
<path d="M62.8647 90.1275L53.5688 84.6992L57.8363 93.159L58.8851 90.1654L62.8647 90.1275Z" fill="white"/>
<path d="M67.6256 94.9394L66.7927 93.1963L65.6924 94.6647L67.6256 94.9394Z" fill="white"/>
<path d="M90.0836 150.474L89.2507 148.73L88.1504 150.199L90.0836 150.474Z" fill="white"/>
<path d="M96.9835 167.516L96.1403 165.772L95.0503 167.231L96.9835 167.516Z" fill="white"/>
<path d="M104.048 184.985L103.205 183.242L102.115 184.711L104.048 184.985Z" fill="white"/>
<path d="M64.4688 130.797L63.6256 129.054L62.5356 130.513L64.4688 130.797Z" fill="white"/>
<path d="M72.4278 150.474L71.5846 148.73L70.4946 150.199L72.4278 150.474Z" fill="white"/>
<path d="M79.3175 167.516L78.4845 165.772L77.3843 167.231L79.3175 167.516Z" fill="white"/>
<path d="M86.3922 184.985L85.549 183.242L84.459 184.711L86.3922 184.985Z" fill="white"/>
<path d="M45.6821 113.64L47.2966 114.597L51.7388 106.061L50.1244 105.095L45.6821 113.64Z" fill="white"/>
<path d="M47.6768 105.275C45.322 103.589 45.1575 103.248 45.7333 101.334C44.5199 102.869 44.16 102.897 41.6201 101.647C43.9749 103.342 44.1394 103.683 43.5636 105.597C44.7359 104.062 45.0958 104.034 47.6768 105.275Z" fill="white"/>
<path d="M55.4301 106.194C53.9802 105.152 53.8773 104.944 54.227 103.76C53.4763 104.707 53.2604 104.707 51.6665 103.959C53.1164 105.001 53.2192 105.209 52.8593 106.393C53.61 105.446 53.8362 105.427 55.4301 106.194Z" fill="white"/>
<path d="M54.9881 110.211C53.9598 109.463 53.8775 109.321 54.1346 108.478C53.5999 109.15 53.4353 109.16 52.3042 108.61C53.3325 109.359 53.4045 109.51 53.1577 110.353C53.6924 109.671 53.8466 109.662 54.9881 110.211Z" fill="white"/>
<path d="M78.2891 148.076L79.2865 148.73L83.7287 140.185L82.7313 139.531L78.2891 148.076Z" fill="white"/>
<path d="M74.5671 111.433L66.3716 106.648L70.1249 114.114L71.0606 111.47L74.5671 111.433Z" fill="white"/>
<path d="M68.397 111.878C65.3944 111.878 62.2889 110.24 61.4766 108.231C60.6642 106.223 62.4534 104.612 65.4766 104.612C68.4998 104.612 71.5847 106.251 72.3971 108.25C73.2094 110.249 71.4099 111.878 68.397 111.878ZM65.6309 105.029C62.8853 105.029 61.2401 106.469 61.9496 108.231C62.6591 109.993 65.4766 111.433 68.2222 111.433C70.9677 111.433 72.6233 110.003 71.9035 108.231C71.1837 106.46 68.3764 105.029 65.6309 105.029Z" fill="white"/>
<path d="M64.7875 111.149C64.3852 111.122 63.9993 110.991 63.6738 110.772C63.3483 110.552 63.0964 110.253 62.9469 109.908C62.8671 109.777 62.827 109.629 62.8308 109.479C62.8346 109.329 62.8822 109.183 62.9685 109.056C63.0547 108.929 63.1766 108.826 63.3212 108.758C63.4658 108.689 63.6277 108.658 63.7901 108.667C64.1924 108.693 64.5784 108.824 64.9039 109.044C65.2294 109.263 65.4813 109.562 65.6307 109.908C65.7105 110.038 65.7506 110.186 65.7468 110.336C65.743 110.486 65.6955 110.632 65.6092 110.759C65.5229 110.886 65.401 110.989 65.2564 111.058C65.1119 111.126 64.9499 111.158 64.7875 111.149ZM63.9649 109.112C63.8599 109.104 63.7546 109.122 63.6604 109.166C63.5662 109.209 63.4866 109.275 63.4305 109.357C63.3743 109.439 63.3436 109.534 63.3417 109.631C63.3399 109.728 63.3669 109.824 63.4199 109.908C63.5151 110.132 63.6779 110.327 63.8891 110.47C64.1004 110.613 64.3514 110.697 64.6127 110.713C65.0857 110.713 65.3325 110.353 65.1577 109.908C65.0589 109.686 64.8949 109.494 64.6842 109.353C64.4735 109.213 64.2244 109.129 63.9649 109.112V109.112Z" fill="white"/>
<path d="M64.9213 112.447L64.5923 112.03C64.8337 111.974 65.0522 111.854 65.2218 111.686C65.3914 111.518 65.5049 111.309 65.5486 111.083C65.5621 110.703 65.4391 110.33 65.199 110.022L65.5897 109.87C65.9063 110.278 66.0689 110.771 66.0525 111.272C66.0051 111.547 65.8735 111.804 65.6731 112.012C65.4727 112.22 65.2118 112.371 64.9213 112.447Z" fill="white"/>
<path d="M59.7799 124.763L54.0523 120.926L52.8389 122.707L58.5665 126.544L59.7799 124.763Z" fill="white"/>
<path d="M50.6075 129.735L51.5433 130.36L53.5999 127.291C53.489 127.203 53.4113 127.085 53.3781 126.954C53.3448 126.823 53.3576 126.686 53.4148 126.562C53.569 126.325 53.9906 126.325 54.3402 126.562C54.4978 126.643 54.6191 126.774 54.683 126.929C54.7469 127.085 54.7493 127.257 54.6899 127.414C54.5985 127.511 54.4728 127.574 54.3353 127.593C54.1978 127.612 54.0574 127.586 53.9392 127.518L51.8826 130.588L52.7567 131.175L57.8981 129.839L58.2169 126.997L52.5716 123.208L50.0522 124.506L50.6075 129.735Z" fill="white"/>
<path d="M45.1982 117.676H78.2374" stroke="#263238" stroke-linecap="round" stroke-linejoin="round"/>
<path d="M73.9292 120.926L72.7158 122.707L78.4434 126.544L79.6568 124.763L73.9292 120.926Z" fill="white"/>
<path d="M69.8774 124.507L70.4841 129.726L71.4199 130.352L73.4765 127.282C73.3656 127.195 73.2879 127.077 73.2547 126.945C73.2214 126.814 73.2343 126.677 73.2914 126.553C73.4456 126.316 73.8672 126.316 74.2169 126.553C74.3744 126.635 74.4957 126.765 74.5596 126.921C74.6235 127.077 74.6259 127.248 74.5665 127.405C74.4751 127.502 74.3494 127.566 74.2119 127.585C74.0744 127.604 73.934 127.577 73.8158 127.51L71.7592 130.579L72.6333 131.166L77.7748 129.831L78.0935 126.989L72.4482 123.199L69.8774 124.507Z" fill="white"/>
<path d="M68.4587 126.05C68.5204 125.681 68.5718 125.283 68.6129 124.838C68.6594 124.411 68.6113 123.981 68.4716 123.572C68.332 123.163 68.1037 122.785 67.8006 122.46C67.1308 121.771 66.2597 121.274 65.2915 121.029C65.1373 121.029 65.0139 121.029 65.0345 121.2C65.0495 121.272 65.0864 121.339 65.141 121.393C65.1956 121.446 65.2656 121.485 65.3429 121.503C66.1296 121.714 66.8399 122.117 67.3995 122.668C67.6443 122.939 67.8278 123.251 67.939 123.588C68.0503 123.925 68.0872 124.279 68.0474 124.629C68.0474 125.065 67.9446 125.463 67.8931 125.823C67.6155 127.718 67.451 128.854 70.8649 130.74C70.919 130.775 70.9835 130.795 71.05 130.796C71.086 130.798 71.1217 130.79 71.1527 130.773C71.1838 130.756 71.2088 130.731 71.2248 130.702C71.2372 130.632 71.2249 130.56 71.1898 130.497C71.1546 130.434 71.0984 130.383 71.0294 130.351C68.0782 128.712 68.1913 127.935 68.4587 126.05Z" fill="white"/>
<path d="M53.8364 138.717L54.0421 139.209C54.3347 139.97 54.6781 140.714 55.0704 141.435L56.0267 141.218C55.7594 140.725 55.5225 140.219 55.3172 139.702H59.4304L62.8443 148.152H61.3121L61.7132 149.1H65.8264L65.4253 148.152H63.9034L60.4689 139.664H64.4484L65.158 141.445H66.2377L65.3225 139.171L65.1168 138.679L53.8364 138.717Z" fill="white"/>
<path opacity="0.44" d="M75.307 162.135C76.1914 164.314 74.2787 166.076 70.9882 166.076C67.6976 166.076 64.366 164.314 63.4919 162.135C62.6179 159.956 64.5202 158.203 67.8108 158.203C71.1013 158.203 74.433 159.965 75.307 162.135Z" fill="white"/>
<path d="M75.307 162.135C76.1914 164.314 74.2787 166.076 70.9882 166.076C67.6976 166.076 64.366 164.314 63.4919 162.135C62.6179 159.956 64.5202 158.203 67.8108 158.203C71.1013 158.203 74.433 159.965 75.307 162.135Z" stroke="white" stroke-miterlimit="10"/>
<path d="M87.4722 162.248L91.3488 155.759C91.4057 155.687 91.4778 155.625 91.5609 155.579C91.644 155.533 91.7363 155.503 91.8323 155.491C91.9284 155.478 92.0261 155.484 92.1197 155.507C92.2134 155.531 92.3009 155.571 92.3771 155.626V155.626C92.6026 155.713 92.7925 155.864 92.9199 156.056C93.0473 156.248 93.1057 156.472 93.0867 156.697L91.0301 163.868L87.4722 162.248Z" fill="white"/>
<path d="M86.8347 162.798C88.3565 162.608 91.3386 163.812 91.4208 165.64C91.4078 165.84 91.3371 166.033 91.216 166.2C91.0949 166.366 90.9278 166.5 90.7319 166.587C89.3724 167.152 87.8784 167.387 86.3925 167.269C86.5844 167.132 86.7272 166.945 86.8023 166.732C86.8775 166.519 86.8816 166.291 86.8141 166.076C86.6089 165.552 86.372 165.04 86.1046 164.541C85.8269 163.812 85.9709 162.836 86.8347 162.779" fill="white"/>
<path d="M78.7621 177.037C78.4423 176.359 77.9649 175.755 77.3637 175.266L76.1914 176.98C76.8846 177.531 77.4361 178.217 77.8058 178.989C78.1434 179.674 78.5352 180.336 78.9781 180.969L80.1195 179.282C79.5977 178.571 79.1435 177.82 78.7621 177.037V177.037Z" fill="white"/>
<path d="M77.4155 179.017C77.087 178.341 76.6069 177.737 76.0067 177.245L74.8345 178.969C75.5292 179.521 76.0838 180.207 76.4592 180.978C76.7923 181.663 77.1807 182.325 77.6211 182.958L78.7728 181.271C78.2436 180.561 77.7891 179.806 77.4155 179.017V179.017Z" fill="white"/>
<path d="M79.1633 177.009C79.4964 177.695 79.8848 178.356 80.3253 178.989L82.0117 176.507L78.2378 173.968L77.5386 174.991C78.2306 175.549 78.7846 176.237 79.1633 177.009V177.009Z" fill="white"/>
<path d="M76.0581 181.006C75.7383 180.328 75.2609 179.723 74.6596 179.234L73.6313 180.674L73.8062 183.943C73.8135 184.001 73.8338 184.057 73.8657 184.107C73.8976 184.158 73.9404 184.202 73.9915 184.237C74.0426 184.271 74.1009 184.296 74.1628 184.309C74.2247 184.322 74.2888 184.323 74.3512 184.312L77.3538 183.223C76.8537 182.519 76.4202 181.778 76.0581 181.006V181.006ZM74.7316 183.242L74.6391 181.499L76.3563 182.654L74.7316 183.242Z" fill="white"/>
<path d="M90.8757 178.581L89.5903 180.475L96.2331 184.937L97.5185 183.043L97.9195 183.318L101.004 178.856L93.5493 173.854L90.5158 178.316L90.8757 178.581ZM95.791 183.858L90.7626 180.475L91.6778 179.121L96.7164 182.503L95.791 183.858Z" fill="white"/>
<path d="M28.1594 66.9736L28.4062 67.5705L27.4807 68.6125L29.2494 69.6546L29.4859 70.2609L26.7095 68.6125L28.1594 66.9736Z" fill="white"/>
<path d="M25.8361 66.9736L26.0829 67.5705L25.1575 68.6125L26.9261 69.6546L27.1729 70.2609L24.3862 68.6125L25.8361 66.9736Z" fill="white"/>
<path d="M183.731 139.825H104.336L80.0684 77.4512H159.463L183.731 139.825Z" fill="#263238"/>
<path d="M178.096 136.424H107.318L85.7031 80.8623H156.481L178.096 136.424Z" fill="#92E3A9"/>
<path d="M164.635 101.836L152.933 93.8975L143.689 116.009L119.719 109.775L107.318 136.424H178.095L164.635 101.836Z" fill="white"/>
<path d="M115.863 92.761C114.218 88.5358 109.169 85.1064 104.552 85.1064C99.9349 85.1064 97.5802 88.5358 99.2254 92.761C100.871 96.9862 105.92 100.416 110.537 100.416C115.154 100.416 117.519 97.0336 115.863 92.761Z" fill="white"/>
<path d="M191.957 129.091H112.562L88.2944 66.7178H167.689L191.957 129.091Z" fill="#263238"/>
<path d="M186.322 125.691H115.544L93.9297 70.1191H164.707L186.322 125.691Z" fill="#92E3A9"/>
<path d="M172.862 91.1028L161.16 83.1641L151.915 105.275L127.946 99.0416L115.544 125.69H186.322L172.862 91.1028Z" fill="white"/>
<path d="M124.089 82.0276C122.444 77.8024 117.395 74.373 112.778 74.373C108.161 74.373 105.806 77.8024 107.452 82.0276C109.097 86.2528 114.146 89.6822 118.763 89.6822C123.38 89.6822 125.745 86.2528 124.089 82.0276Z" fill="white"/>
<path d="M192.317 56.9324L194.219 61.1955H193.674C193.384 60.6218 193.021 60.0813 192.595 59.585C192.135 59.1016 191.571 58.7113 190.939 58.4387C190.269 58.179 189.547 58.0531 188.821 58.0692H186.034L191.556 71.9668C191.785 72.7415 192.204 73.4576 192.78 74.0605C193.33 74.4495 194.01 74.6504 194.703 74.6289H195.392L195.587 75.1215H187.217L187.021 74.6289H187.721C188.553 74.6289 189.047 74.392 189.212 73.9278C189.239 73.2498 189.083 72.5761 188.759 71.9668L183.237 58.0692H180.872C180.234 58.0374 179.595 58.1013 178.98 58.2587C178.762 58.3447 178.568 58.4744 178.412 58.6383C178.255 58.8021 178.14 58.9961 178.075 59.2061C177.911 59.8546 177.958 60.5332 178.209 61.1576H177.654L176.193 56.8945L192.317 56.9324Z" fill="black"/>
<path d="M204.338 65.5059H210.374" stroke="#263238" stroke-width="0.5" stroke-miterlimit="10"/>
<path d="M210.178 80.2464H179.782L168.522 51.8828H198.918L210.178 80.2464Z" stroke="#263238" stroke-width="0.5" stroke-miterlimit="10"/>
<path d="M175.453 66.5477H173.17L172.337 64.4541H174.62L175.453 66.5477Z" fill="white" stroke="#263238" stroke-width="0.5" stroke-miterlimit="10"/>
<path d="M205.891 66.5477H203.608L202.775 64.4541H205.058L205.891 66.5477Z" fill="white" stroke="#263238" stroke-width="0.5" stroke-miterlimit="10"/>
<path d="M170.106 53.0858H167.833L167 50.9922H169.273L170.106 53.0858Z" fill="white" stroke="#263238" stroke-width="0.5" stroke-miterlimit="10"/>
<path d="M200.543 53.0858H198.271L197.438 50.9922H199.711L200.543 53.0858Z" fill="white" stroke="#263238" stroke-width="0.5" stroke-miterlimit="10"/>
<path d="M185.335 53.0858H183.062L182.229 50.9922H184.502L185.335 53.0858Z" fill="white" stroke="#263238" stroke-width="0.5" stroke-miterlimit="10"/>
<path d="M181.242 81.1268H178.959L178.126 79.0332H180.409L181.242 81.1268Z" fill="white" stroke="#263238" stroke-width="0.5" stroke-miterlimit="10"/>
<path d="M211.68 81.1268H209.397L208.564 79.0332H210.847L211.68 81.1268Z" fill="white" stroke="#263238" stroke-width="0.5" stroke-miterlimit="10"/>
<path d="M195.155 80.748L197.366 86.3185" stroke="#263238" stroke-width="0.5" stroke-miterlimit="10"/>
<path d="M196.471 81.1268H194.188L193.355 79.0332H195.638L196.471 81.1268Z" fill="white" stroke="#263238" stroke-width="0.5" stroke-miterlimit="10"/>
<path d="M198.95 87.3707H196.667L195.834 85.2676H198.117L198.95 87.3707Z" fill="#263238"/>
<path d="M177.962 74.9316H203.495" stroke="#263238" stroke-width="0.5" stroke-miterlimit="10"/>
<path d="M211.577 65.5053C211.446 65.1972 211.223 64.9295 210.933 64.7334C210.644 64.5372 210.3 64.4206 209.942 64.3969C209.797 64.3887 209.652 64.4166 209.522 64.4776C209.393 64.5387 209.284 64.6306 209.206 64.7439C209.128 64.8571 209.085 64.9875 209.08 65.1214C209.076 65.2554 209.111 65.388 209.181 65.5053C209.313 65.8123 209.536 66.0785 209.826 66.2731C210.115 66.4676 210.459 66.5825 210.816 66.6042C210.961 66.6145 211.106 66.5884 211.236 66.5287C211.366 66.4689 211.476 66.3777 211.554 66.2649C211.632 66.1521 211.676 66.0218 211.68 65.888C211.684 65.7542 211.648 65.622 211.577 65.5053V65.5053Z" fill="#263238"/>
<path opacity="0.2" d="M70.6494 215.916L98.1975 237.667L71.9451 356H73.724L102.928 239.836L129.684 260.507L91.9043 355.858L94.2694 355.498L134.013 262.686L244.596 355.498H311.888L233.182 213.377L70.6494 215.916Z" fill="black"/>
<path d="M73.724 356H71.945L69.2817 213.889H76.3873L73.724 356Z" fill="#263238" stroke="#263238" stroke-linecap="round" stroke-linejoin="round"/>
<path d="M226.796 356H225.017L222.354 213.889H229.459L226.796 356Z" fill="#263238" stroke="#263238" stroke-linecap="round" stroke-linejoin="round"/>
<path d="M237.634 211.69H66.5669V215.376H237.634V211.69Z" fill="white" stroke="#263238" stroke-linecap="round" stroke-linejoin="round"/>
<path d="M27.9438 287.989L24.8589 294.033C24.8589 294.033 28.6636 297.823 30.3911 297.823C32.1187 297.823 32.8076 296.231 34.8848 295.587C36.9619 294.943 40.4067 288.908 40.4067 288.908C40.4067 288.908 38.3501 285.725 36.2935 285.403C34.237 285.081 31.1521 284.134 29.3834 283.811C27.6147 283.489 27.9438 287.989 27.9438 287.989Z" fill="white" stroke="#263238" stroke-linecap="round" stroke-linejoin="round"/>
<path d="M27.9438 287.989L30.0004 291.172V294.014C30.0004 294.014 32.057 294.962 32.7666 294.014C33.4761 293.067 36.5713 289.874 36.5713 289.874L35.1831 287.032" stroke="#263238" stroke-linecap="round" stroke-linejoin="round"/>
<path d="M30.0107 294.033L26.2163 293.398" stroke="#263238" stroke-linecap="round" stroke-linejoin="round"/>
<path d="M87.4821 345.237L80.5 347.132C80.5 347.132 79.8933 352.286 81.0347 353.479C82.1761 354.673 83.9345 354.104 85.8162 355.118C87.698 356.132 94.9167 354.521 94.9167 354.521C94.9167 354.521 96.1506 350.988 95.0401 349.349C93.9295 347.71 92.6544 344.915 91.7701 343.513C90.8858 342.111 87.4821 345.237 87.4821 345.237Z" fill="white" stroke="#263238" stroke-linecap="round" stroke-linejoin="round"/>
<path d="M87.4822 345.237L86.2586 348.78L83.9243 350.675C83.9243 350.675 84.5104 352.74 85.7444 352.57C86.9784 352.399 91.6365 352.466 91.6365 352.466L93.0556 349.624" stroke="#263238" stroke-linecap="round" stroke-linejoin="round"/>
<path d="M83.9241 350.685L81.9292 347.635" stroke="#263238" stroke-linecap="round" stroke-linejoin="round"/>
<path d="M16.8795 286.711C16.8795 286.711 11.0079 290.216 12.0465 292.13C13.0851 294.043 13.774 295.313 14.8126 295.919C15.8512 296.525 18.9258 297.511 19.9541 296.867C20.9824 296.222 23.4092 294.64 23.7485 292.13C24.0878 289.619 25.1367 289.288 24.0981 287.99C23.0595 286.692 16.8795 286.711 16.8795 286.711Z" fill="white" stroke="#263238" stroke-linecap="round" stroke-linejoin="round"/>
<path d="M12.0054 292.129L16.1186 294.678L19.5736 294.356L20.9515 290.85C20.9515 290.348 20.7349 289.866 20.3492 289.511C19.9635 289.155 19.4404 288.956 18.895 288.956C17.7754 288.913 16.6778 289.25 15.8101 289.903L16.5093 291.798" stroke="#263238" stroke-linecap="round" stroke-linejoin="round"/>
<path d="M42.4529 282.258C42.4529 282.258 37.3115 286.71 37.9593 289.893C38.6071 293.077 45.2191 295.625 45.2191 295.625L53.1678 291.494L50.741 285.81L45.5995 283.262L42.4529 282.258Z" fill="white" stroke="#263238" stroke-linecap="round" stroke-linejoin="round"/>
<path d="M37.959 289.894L43.4912 291.808L49.7124 289.894L47.2856 284.807" stroke="#263238" stroke-linecap="round" stroke-linejoin="round"/>
<path d="M42.4531 282.258L42.1035 288.946L46.2578 290.216" stroke="#263238" stroke-linecap="round" stroke-linejoin="round"/>
<path d="M58.0008 342.102C58.0008 342.102 52.8593 346.564 53.5071 349.747C54.155 352.93 60.7669 355.478 60.7669 355.478L68.7156 351.338L66.2991 345.607L61.1062 343.058L58.0008 342.102Z" fill="white" stroke="#263238" stroke-linecap="round" stroke-linejoin="round"/>
<path d="M53.5073 349.747L59.0396 351.651L65.2607 349.747L62.8443 344.65" stroke="#263238" stroke-linecap="round" stroke-linejoin="round"/>
<path d="M58.001 342.102L57.6514 348.79L61.8057 350.069" stroke="#263238" stroke-linecap="round" stroke-linejoin="round"/>
<path d="M23.45 277.483C23.45 277.483 18.3085 281.936 18.9564 285.119C19.6042 288.302 26.2161 290.803 26.2161 290.803L34.1546 286.663L31.7381 280.979L26.5966 278.431L23.45 277.483Z" fill="white" stroke="#263238" stroke-linecap="round" stroke-linejoin="round"/>
<path d="M18.9565 285.119L24.4888 287.033L30.6997 285.119L28.2832 280.032" stroke="#263238" stroke-linecap="round" stroke-linejoin="round"/>
<path d="M23.4502 277.483L23.1006 284.172L27.2446 285.441" stroke="#263238" stroke-linecap="round" stroke-linejoin="round"/>
<path d="M52.4379 355.999H11.4295L5.28027 293.37H58.5871L52.4379 355.999Z" fill="#263238" stroke="#263238" stroke-linecap="round" stroke-linejoin="round"/>
<path d="M25.1777 345.607C25.1777 345.607 19.2958 349.113 20.3344 351.017C21.373 352.921 22.0619 354.2 23.1005 354.806C24.1391 355.413 27.2137 356.398 28.242 355.754C29.2703 355.109 31.6971 353.527 32.0467 351.017C32.3963 348.506 33.4246 348.175 32.386 346.877C31.3474 345.579 25.1777 345.607 25.1777 345.607Z" fill="white" stroke="#263238" stroke-linecap="round" stroke-linejoin="round"/>
<path d="M20.3345 351.017L24.4477 353.565L27.9027 353.253L29.2807 349.748C29.2807 349.245 29.064 348.763 28.6783 348.408C28.2926 348.052 27.7695 347.853 27.2241 347.853C26.104 347.806 25.005 348.144 24.1392 348.8L24.8281 350.695" stroke="#263238" stroke-linecap="round" stroke-linejoin="round"/>
<path d="M133.899 168.387C133.973 168.816 133.902 169.255 133.696 169.646C133.491 170.036 133.16 170.359 132.749 170.571C132.338 170.783 131.866 170.873 131.397 170.831C130.928 170.788 130.485 170.614 130.127 170.332C129.769 170.05 129.514 169.673 129.395 169.253C129.276 168.833 129.3 168.39 129.464 167.983C129.627 167.576 129.922 167.224 130.309 166.977C130.696 166.729 131.156 166.596 131.627 166.597C132.185 166.56 132.736 166.727 133.162 167.062C133.587 167.398 133.852 167.874 133.899 168.387V168.387Z" fill="#808080" stroke="#263238" stroke-linecap="round" stroke-linejoin="round"/>
<path d="M136.09 173.843C136.164 174.272 136.093 174.711 135.887 175.102C135.682 175.492 135.351 175.815 134.94 176.027C134.529 176.239 134.057 176.329 133.588 176.287C133.119 176.244 132.676 176.07 132.318 175.788C131.96 175.506 131.705 175.129 131.586 174.709C131.467 174.289 131.491 173.846 131.655 173.439C131.818 173.032 132.113 172.681 132.5 172.433C132.887 172.185 133.347 172.052 133.818 172.053C134.376 172.016 134.927 172.183 135.353 172.519C135.778 172.854 136.043 173.33 136.09 173.843V173.843Z" fill="#808080" stroke="#263238" stroke-linecap="round" stroke-linejoin="round"/>
<path d="M138.27 179.3C138.343 179.729 138.273 180.168 138.067 180.559C137.861 180.949 137.531 181.272 137.119 181.484C136.708 181.696 136.237 181.786 135.768 181.744C135.299 181.701 134.856 181.527 134.498 181.245C134.14 180.963 133.884 180.586 133.766 180.166C133.647 179.746 133.671 179.303 133.834 178.896C133.998 178.489 134.293 178.138 134.68 177.89C135.066 177.642 135.526 177.509 135.997 177.51C136.556 177.473 137.107 177.64 137.532 177.976C137.958 178.311 138.223 178.787 138.27 179.3Z" fill="#808080" stroke="#263238" stroke-linecap="round" stroke-linejoin="round"/>
<path d="M140.46 184.757C140.534 185.186 140.463 185.624 140.258 186.015C140.053 186.405 139.723 186.728 139.312 186.94C138.902 187.152 138.43 187.243 137.962 187.201C137.494 187.159 137.05 186.986 136.692 186.705C136.334 186.424 136.077 186.048 135.958 185.629C135.838 185.21 135.86 184.767 136.022 184.359C136.184 183.952 136.477 183.601 136.863 183.352C137.248 183.103 137.707 182.968 138.177 182.967C138.737 182.93 139.289 183.097 139.716 183.432C140.143 183.767 140.411 184.243 140.46 184.757V184.757Z" fill="#808080" stroke="#263238" stroke-linecap="round" stroke-linejoin="round"/>
<path d="M109.652 211.34H94.0838L91.7393 187.552H111.997L109.652 211.34Z" fill="#263238" stroke="#263238" stroke-linecap="round" stroke-linejoin="round"/>
<path d="M111.225 195.377L93.333 203.77L94.0837 211.34H102.413L110.495 202.785L111.225 195.377Z" fill="#92E3A9" stroke="#263238" stroke-linecap="round" stroke-linejoin="round"/>
<path d="M113.796 184.71H89.9399V189.882H113.796V184.71Z" fill="#92E3A9" stroke="#263238" stroke-linecap="round" stroke-linejoin="round"/>
<path d="M155.741 211.661H127.72C127.237 211.685 126.754 211.618 126.301 211.465C125.847 211.311 125.432 211.074 125.081 210.767C124.73 210.461 124.451 210.092 124.26 209.683C124.069 209.274 123.971 208.833 123.971 208.388C123.971 207.943 124.069 207.502 124.26 207.093C124.451 206.684 124.73 206.315 125.081 206.009C125.432 205.703 125.847 205.465 126.301 205.312C126.754 205.158 127.237 205.091 127.72 205.115H155.741C156.224 205.091 156.706 205.158 157.16 205.312C157.614 205.465 158.029 205.703 158.379 206.009C158.73 206.315 159.01 206.684 159.201 207.093C159.392 207.502 159.49 207.943 159.49 208.388C159.49 208.833 159.392 209.274 159.201 209.683C159.01 210.092 158.73 210.461 158.379 210.767C158.029 211.074 157.614 211.311 157.16 211.465C156.706 211.618 156.224 211.685 155.741 211.661V211.661Z" fill="#263238" stroke="#263238" stroke-linecap="round" stroke-linejoin="round"/>
<path d="M230.271 211.69H144.007L123.431 160.098H209.695L230.271 211.69Z" fill="#263238" stroke="#263238" stroke-linecap="round" stroke-linejoin="round"/>
<path d="M224.801 206.328H151.134L133.571 162.276H207.228L224.801 206.328Z" fill="#808080" stroke="#263238" stroke-linecap="round" stroke-linejoin="round"/>
<path d="M239.259 230.116C237.259 232.827 234.994 235.363 232.493 237.695C224.597 244.266 217.808 251.884 212.348 260.298C204.616 272.377 199.227 284.721 194.106 295.407C188.985 306.093 179.71 325.817 175.073 331.823C170.435 337.829 167.299 341.041 167.299 341.041C167.299 341.041 159.638 341.202 150.568 340.463C141.499 339.724 137.745 338.218 137.632 340.397C137.519 342.575 143.802 348.553 148.265 349.595C152.728 350.637 158.548 352.229 159.905 353.47C161.263 354.711 162.99 356.132 165.273 355.223C167.556 354.313 174.353 345.55 181.952 339.516C189.551 333.481 198.621 327.503 206.826 313.435C215.032 299.367 215.464 291.324 221.223 286.038C226.981 280.752 233.048 272.462 240.39 268.095C247.732 263.728 269.645 255.637 276.648 247.253C283.65 238.869 280 228.61 273.265 224.943C266.529 221.277 244.544 219.951 239.259 230.116Z" fill="#263238" stroke="#263238" stroke-linecap="round" stroke-linejoin="round"/>
<path d="M180.502 322.956C178.919 326.026 177.108 328.992 175.083 331.833C170.394 337.829 167.309 341.05 167.309 341.05C167.309 341.05 159.648 341.211 150.579 340.473C141.509 339.734 137.756 338.227 137.643 340.406C137.53 342.585 143.812 348.563 148.275 349.605C152.738 350.647 158.558 352.239 159.916 353.48C161.273 354.721 163 356.142 165.283 355.232C167.566 354.323 174.363 345.56 181.962 339.525C185.5 336.683 189.356 333.907 193.273 330.307C188.289 329.143 183.824 326.573 180.502 322.956V322.956Z" fill="white" stroke="#263238" stroke-linecap="round" stroke-linejoin="round"/>
<path d="M165.283 355.232C166.51 354.476 167.603 353.549 168.522 352.485C162.353 351.358 159.206 348.506 156.388 347.748C153.816 347.049 151.357 346.036 149.077 344.736L152.162 340.558L150.599 340.435C141.53 339.696 137.776 338.189 137.663 340.368C137.55 342.547 143.833 348.525 148.296 349.567C152.759 350.609 158.579 352.201 159.936 353.442C161.293 354.683 163.052 356.142 165.283 355.232Z" fill="#92E3A9" stroke="#263238" stroke-linecap="round" stroke-linejoin="round"/>
<path d="M175.947 256.793C177.145 261.542 178.914 266.152 181.222 270.539C184.862 277.246 192.873 284.285 198.703 288.311C204.533 292.338 223.269 307.76 232.554 320C233.716 321.535 229.274 326.707 223.814 331.236C218.354 335.764 215.989 337.441 218.899 338.275C221.809 339.108 228.729 338.777 235.65 333.415C242.57 328.053 247.115 324.528 249.295 320.152C250.385 317.973 244.38 315.282 240.74 312.44C237.1 309.598 223.629 290.812 219.444 282.125C215.259 273.438 204.708 260.999 196.883 256.642" fill="#263238"/>
<path d="M175.947 256.793C177.145 261.542 178.914 266.152 181.222 270.539C184.862 277.246 192.873 284.285 198.703 288.311C204.533 292.338 223.269 307.76 232.554 320C233.716 321.535 229.274 326.707 223.814 331.236C218.354 335.764 215.989 337.441 218.899 338.275C221.809 339.108 228.729 338.777 235.65 333.415C242.57 328.053 247.115 324.528 249.295 320.152C250.385 317.973 244.38 315.282 240.74 312.44C237.1 309.598 223.629 290.812 219.444 282.125C215.259 273.438 204.708 260.999 196.883 256.642" stroke="#263238" stroke-linecap="round" stroke-linejoin="round"/>
<path d="M249.285 320.17C250.375 317.992 244.37 315.301 240.73 312.459C237.645 310.062 227.66 296.402 222.066 286.938L209.727 297.017C217.429 303.582 226.837 312.402 232.596 320C233.758 321.535 229.316 326.707 223.855 331.235C218.395 335.764 216.03 337.441 218.94 338.274C221.85 339.108 228.771 338.776 235.691 333.414C242.611 328.052 247.105 324.528 249.285 320.17Z" fill="white" stroke="#263238" stroke-linecap="round" stroke-linejoin="round"/>
<path d="M245.541 315.719C244.565 317.064 243.289 318.892 241.819 321.175C238.364 326.537 228.904 333.415 227.629 332.24C226.861 331.442 226.217 330.549 225.716 329.588C225.099 330.137 224.461 330.696 223.803 331.236C218.343 335.765 215.978 337.441 218.888 338.275C221.798 339.109 228.719 338.777 235.639 333.415C242.559 328.053 247.104 324.529 249.284 320.152C249.943 318.845 247.989 317.339 245.541 315.719Z" fill="#92E3A9" stroke="#263238" stroke-linecap="round" stroke-linejoin="round"/>
<path d="M294.961 331.065H233.089V333.746H294.961V331.065Z" fill="white" stroke="#263238" stroke-linecap="round" stroke-linejoin="round"/>
<path d="M238.724 259.143L227.947 354.503C227.936 354.61 227.949 354.718 227.986 354.82C228.022 354.922 228.082 355.015 228.16 355.095C228.239 355.174 228.335 355.238 228.441 355.281C228.548 355.324 228.664 355.346 228.78 355.346V355.346C228.98 355.345 229.172 355.279 229.323 355.159C229.474 355.039 229.573 354.874 229.603 354.692L245.696 259.143H238.724Z" fill="white" stroke="#263238" stroke-linecap="round" stroke-linejoin="round"/>
<path d="M288.226 259.143L299.054 354.503C299.067 354.609 299.056 354.717 299.02 354.819C298.985 354.921 298.926 355.015 298.848 355.094C298.771 355.174 298.676 355.238 298.569 355.281C298.463 355.324 298.348 355.346 298.231 355.346V355.346C298.031 355.347 297.838 355.282 297.686 355.162C297.535 355.041 297.436 354.875 297.409 354.692L281.316 259.143H288.226Z" fill="white" stroke="#263238" stroke-linecap="round" stroke-linejoin="round"/>
<path d="M268.576 259.143L269.08 354.578C269.077 354.781 268.988 354.975 268.833 355.118C268.677 355.262 268.467 355.343 268.247 355.346C268.034 355.346 267.829 355.27 267.676 355.134C267.522 354.998 267.432 354.812 267.424 354.616L261.635 259.143H268.576Z" fill="white" stroke="#263238" stroke-linecap="round" stroke-linejoin="round"/>
<path d="M291.671 244.724H234.375C231.552 244.724 229.264 246.832 229.264 249.432V255.438C229.264 258.038 231.552 260.146 234.375 260.146H291.671C294.494 260.146 296.782 258.038 296.782 255.438V249.432C296.782 246.832 294.494 244.724 291.671 244.724Z" fill="#92E3A9"/>
<path opacity="0.2" d="M291.702 244.724H235.68L234.015 247.945C234.015 247.945 285.717 248.778 285.717 251.526C285.717 254.273 286.612 257.863 276.463 257.863C268.236 257.863 240.627 258.223 230.405 258.356C230.814 258.828 231.316 259.223 231.886 259.521L234.889 260.146H291.702C293.066 260.146 294.373 259.647 295.338 258.759C296.302 257.871 296.843 256.666 296.843 255.41V249.404C296.827 248.157 296.278 246.967 295.316 246.091C294.353 245.215 293.055 244.724 291.702 244.724Z" fill="black"/>
<path d="M291.671 244.724H234.375C231.552 244.724 229.264 246.832 229.264 249.432V255.438C229.264 258.038 231.552 260.146 234.375 260.146H291.671C294.494 260.146 296.782 258.038 296.782 255.438V249.432C296.782 246.832 294.494 244.724 291.671 244.724Z" stroke="#263238" stroke-linecap="round" stroke-linejoin="round"/>
<path d="M177.396 262.818C176.121 258.963 170.846 251.251 196.142 235.156C209.51 226.63 238.549 220.065 238.549 220.065L241.274 217.223C241.274 217.223 249.099 224.801 264.39 224.271C279.681 223.74 289.141 217.564 290.961 218.066C292.782 218.568 292.956 222.926 292.237 231.139C291.517 239.353 290.591 243.549 283.496 245.558C276.401 247.566 260.75 248.239 249.47 248.078C243.874 248.063 238.283 247.781 232.719 247.235C232.719 247.235 208.523 261.322 193.417 262.326" fill="#263238"/>
<path d="M177.396 262.818C176.121 258.963 170.846 251.251 196.142 235.156C209.51 226.63 238.549 220.065 238.549 220.065L241.274 217.223C241.274 217.223 249.099 224.801 264.39 224.271C279.681 223.74 289.141 217.564 290.961 218.066C292.782 218.568 292.956 222.926 292.237 231.139C291.517 239.353 290.591 243.549 283.496 245.558C276.401 247.566 260.75 248.239 249.47 248.078C243.874 248.063 238.283 247.781 232.719 247.235C232.719 247.235 208.523 261.322 193.417 262.326" stroke="#263238" stroke-linecap="round" stroke-linejoin="round"/>
<path d="M233.449 170.452C232.349 170.764 199.052 176.818 196.142 176.316C193.232 175.814 185.592 169.779 182.857 169.94C180.121 170.101 174.63 170.954 174.127 172.29C173.623 173.625 175.402 178.163 175.402 178.163C175.402 178.163 173.581 180.674 174.486 181.848C175.391 183.023 180.656 180.172 180.656 180.172C180.656 180.172 186.661 184.198 189.386 183.355C192.111 182.512 195.032 181.517 195.032 181.517C195.032 181.517 237.799 183.857 238.344 184.027C238.889 184.198 244.164 185.202 244.709 178.163C245.254 171.124 239.824 168.604 233.449 170.452Z" fill="white" stroke="#263238" stroke-linecap="round" stroke-linejoin="round"/>
<path d="M175.401 178.163L182.857 172.46" stroke="#263238" stroke-linecap="round" stroke-linejoin="round"/>
<path d="M178.126 175.643L182.127 164.076L183.772 164.408L181.767 172.792L178.126 175.643Z" fill="#263238"/>
<path d="M207.382 182.691C207.382 182.691 163.165 193.917 156.07 193.112C148.974 192.307 146.815 189.418 145.149 189.418C143.483 189.418 138.979 191.435 136.923 191.265C134.866 191.094 132.563 190.592 132.563 191.767C132.563 192.942 134.383 194.789 135.473 194.789C136.563 194.789 140.933 194.619 140.933 194.619C140.933 194.619 132.378 196.968 132.007 198.474C131.929 198.828 131.928 199.192 132.006 199.545C132.084 199.899 132.239 200.234 132.46 200.531C132.682 200.828 132.967 201.081 133.297 201.275C133.627 201.468 133.997 201.598 134.383 201.657C135.253 201.802 136.067 202.151 136.748 202.671C137.117 203.988 137.733 205.235 138.568 206.356C139.658 207.531 142.928 208.033 146.568 207.36C150.208 206.688 156.584 203.675 158.034 202.832C159.484 201.989 203.711 198.304 206.991 197.641C210.271 196.977 214.271 196.968 215.546 194.95C216.821 192.932 207.382 182.691 207.382 182.691Z" fill="white"/>
<path d="M153.91 201.241C146.311 201.241 147.997 194.24 145.468 195.415C143.257 196.429 134.629 197.442 132.182 200.01C132.379 200.433 132.686 200.807 133.074 201.097C133.463 201.388 133.923 201.587 134.414 201.677C135.283 201.822 136.098 202.171 136.779 202.69C137.148 204.007 137.764 205.254 138.599 206.376C139.689 207.55 142.959 208.052 146.599 207.38C150.239 206.707 156.614 203.695 158.064 202.852C159.514 202.008 203.741 198.323 207.022 197.66C209.664 197.111 212.79 197.006 214.559 195.926L215.587 194.979L210.888 190.754C210.888 190.754 161.54 201.241 153.91 201.241Z" fill="#92E3A9"/>
<path opacity="0.5" d="M153.91 201.241C146.311 201.241 147.997 194.24 145.468 195.415C143.257 196.429 134.629 197.442 132.182 200.01C132.379 200.433 132.686 200.807 133.074 201.097C133.463 201.388 133.923 201.587 134.414 201.677C135.283 201.822 136.098 202.171 136.779 202.69C137.148 204.007 137.764 205.254 138.599 206.376C139.689 207.55 142.959 208.052 146.599 207.38C150.239 206.707 156.614 203.695 158.064 202.852C159.514 202.008 203.741 198.323 207.022 197.66C209.664 197.111 212.79 197.006 214.559 195.926L215.587 194.979L210.888 190.754C210.888 190.754 161.54 201.241 153.91 201.241Z" fill="white"/>
<path d="M207.382 182.691C207.382 182.691 163.165 193.917 156.07 193.112C148.974 192.307 146.815 189.418 145.149 189.418C143.483 189.418 138.979 191.435 136.923 191.265C134.866 191.094 132.563 190.592 132.563 191.767C132.563 192.942 134.383 194.789 135.473 194.789C136.563 194.789 140.933 194.619 140.933 194.619C140.933 194.619 132.378 196.968 132.007 198.474C131.929 198.828 131.928 199.192 132.006 199.545C132.084 199.899 132.239 200.234 132.46 200.531C132.682 200.828 132.967 201.081 133.297 201.275C133.627 201.468 133.997 201.598 134.383 201.657C135.253 201.802 136.067 202.151 136.748 202.671C137.117 203.988 137.733 205.235 138.568 206.356C139.658 207.531 142.928 208.033 146.568 207.36C150.208 206.688 156.584 203.675 158.034 202.832C159.484 201.989 203.711 198.304 206.991 197.641C210.271 196.977 214.271 196.968 215.546 194.95C216.821 192.932 207.382 182.691 207.382 182.691Z" stroke="#263238" stroke-linecap="round" stroke-linejoin="round"/>
<path d="M244.729 141.615C244.729 141.615 240.729 151.666 235.639 158.374C230.549 165.081 228.359 172.129 231.629 179.67C232.499 181.828 233.883 183.779 235.678 185.381C237.474 186.982 239.635 188.194 242.004 188.926C242.004 188.926 239.454 211.056 240.184 216.929C240.914 222.803 250.735 229.671 265.48 230.192C280.226 230.713 292.957 225.834 292.957 221.135C292.957 216.437 282.591 191.464 282.591 186.264C282.591 181.063 283.496 164.806 278.581 150.264C273.666 135.723 256.38 130.882 244.729 141.615Z" fill="#92E3A9"/>
<path opacity="0.2" d="M278.581 150.16C275.938 142.307 269.696 137.324 262.683 136.073C259.3 136.765 250.056 138.754 247.753 139.256C246.675 139.964 245.664 140.753 244.729 141.615C244.729 141.615 240.729 151.667 235.639 158.374C232.215 162.874 230.117 167.525 230.086 172.366C243.516 175.293 264.02 180.059 261.964 180.589C259.012 181.366 246.354 175.142 250.148 179.035C253.943 182.929 274.211 200.824 268.298 199.252C262.385 197.679 249.305 184.862 252.688 191.086C256.071 197.31 265.347 207.418 262.396 207.418C259.444 207.418 243.824 193.028 249.305 201.582C254.786 210.137 279.691 223.75 271.671 225.692C267.043 226.81 257.223 226.516 251.526 227.398C255.95 229.089 260.672 230.017 265.46 230.135C280.195 230.637 292.936 225.778 292.936 221.079C292.936 216.38 282.571 191.408 282.571 186.207C282.571 181.006 283.476 164.749 278.581 150.16Z" fill="black"/>
<path d="M244.729 141.615C244.729 141.615 240.729 151.666 235.639 158.374C230.549 165.081 228.359 172.129 231.629 179.67C232.499 181.828 233.883 183.779 235.678 185.381C237.474 186.982 239.635 188.194 242.004 188.926C242.004 188.926 239.454 211.056 240.184 216.929C240.914 222.803 250.735 229.671 265.48 230.192C280.226 230.713 292.957 225.834 292.957 221.135C292.957 216.437 282.591 191.464 282.591 186.264C282.591 181.063 283.496 164.806 278.581 150.264C273.666 135.723 256.38 130.882 244.729 141.615Z" stroke="#263238" stroke-linecap="round" stroke-linejoin="round"/>
<path d="M246.971 182.294C246.971 182.294 260.339 202.188 279.876 207.872" stroke="#263238" stroke-linecap="round" stroke-linejoin="round"/>
<path d="M245.429 185.609C245.429 185.609 250.57 201.241 263.938 208.819" stroke="#263238" stroke-linecap="round" stroke-linejoin="round"/>
<path d="M248.185 173.086C248.185 173.086 260.267 168.235 265.223 165.1" stroke="#263238" stroke-linecap="round" stroke-linejoin="round"/>
<path d="M243.228 174.232C243.228 174.232 247.567 175.085 258.714 174.232" stroke="#263238" stroke-linecap="round" stroke-linejoin="round"/>
<path d="M243.639 144.125C240.833 145.773 238.266 147.744 235.999 149.989C231.814 154.015 211.608 182.199 211.608 182.199C211.608 182.199 217.613 193.775 219.433 194.107C221.253 194.439 252.925 169.476 255.835 166.445C258.745 163.413 260.565 157.918 259.66 155.541" fill="#92E3A9"/>
<path opacity="0.2" d="M255.835 166.426C258.745 163.404 260.565 157.9 259.66 155.522L252.462 150.406L250.159 152.595C250.159 152.595 250.005 161.178 241.717 165.81C233.429 170.443 229.902 170.481 228.637 176.307C227.372 182.133 231.588 183.696 226.529 184.473C221.47 185.25 218.086 185.638 218.086 188.755C218.12 190.298 218.247 191.838 218.467 193.368C218.707 193.685 219.038 193.934 219.423 194.088C221.254 194.42 252.925 169.438 255.835 166.426Z" fill="black"/>
<path d="M243.639 144.125C240.833 145.773 238.266 147.744 235.999 149.989C231.814 154.015 211.608 182.199 211.608 182.199C211.608 182.199 217.613 193.775 219.433 194.107C221.253 194.439 252.925 169.476 255.835 166.445C258.745 163.413 260.565 157.918 259.66 155.541" stroke="#263238" stroke-linecap="round" stroke-linejoin="round"/>
<path d="M204.698 183.857C204.698 183.857 210.343 196.267 211.608 197.613C212.873 198.958 219.619 198.115 221.799 196.599C223.979 195.083 223.619 192.08 223.619 192.08C223.619 192.08 215.248 178.495 214.364 177.87C213.48 177.245 213.089 178.713 209.223 179.888C205.356 181.062 203.968 181.517 204.698 183.857Z" fill="white" stroke="#263238" stroke-linecap="round" stroke-linejoin="round"/>
<path d="M213.798 109.926C213.798 109.926 213.428 114.786 214.343 116.292C215.258 117.798 217.798 119.314 217.798 121.322C217.798 123.331 215.978 126.059 216.523 127.527C217.068 128.996 219.989 129.204 219.989 129.204C219.989 129.204 225.438 135.409 227.084 137.588C228.729 139.767 229.449 138.924 231.999 138.261C234.549 137.598 239.999 133.231 243.094 129.877C246.19 126.523 241.038 116.292 234.364 109.424C227.69 102.555 217.613 102.716 215.433 104.687C213.253 106.657 213.798 109.926 213.798 109.926Z" fill="white"/>
<path d="M228.225 105.228C227.382 109.017 226.539 115.525 229.068 119.93C232.873 126.562 235.824 130.039 233.716 135.486C233.336 136.433 232.945 137.305 232.564 138.063C235.279 136.992 240.215 132.994 243.094 129.878C246.179 126.524 241.038 116.293 234.364 109.424C232.642 107.662 230.555 106.235 228.225 105.228V105.228Z" fill="#92E3A9"/>
<path opacity="0.5" d="M228.225 105.228C227.382 109.017 226.539 115.525 229.068 119.93C232.873 126.562 235.824 130.039 233.716 135.486C233.336 136.433 232.945 137.305 232.564 138.063C235.279 136.992 240.215 132.994 243.094 129.878C246.179 126.524 241.038 116.293 234.364 109.424C232.642 107.662 230.555 106.235 228.225 105.228V105.228Z" fill="white"/>
<path d="M217.798 117.136C217.798 117.136 217.798 114.616 221.078 116.292" stroke="#263238" stroke-linecap="round" stroke-linejoin="round"/>
<path d="M220.132 119.466L220.564 121.787C220.564 121.787 222.559 122.422 224.03 120.025" stroke="#263238" stroke-linecap="round" stroke-linejoin="round"/>
<path d="M213.798 109.926C213.798 109.926 213.428 114.786 214.343 116.292C215.258 117.798 217.798 119.314 217.798 121.322C217.798 123.331 215.978 126.059 216.523 127.527C217.068 128.996 219.989 129.204 219.989 129.204C219.989 129.204 225.438 135.409 227.084 137.588C228.729 139.767 229.449 138.924 231.999 138.261C234.549 137.598 239.999 133.231 243.094 129.877C246.19 126.523 241.038 116.292 234.364 109.424C227.69 102.555 217.613 102.716 215.433 104.687C213.253 106.657 213.798 109.926 213.798 109.926Z" stroke="#263238" stroke-linecap="round" stroke-linejoin="round"/>
<path d="M208.153 102.546V103.219L207.824 111.432L217.644 112.607L219.834 109.083V112.939C222.864 112.705 225.912 113.107 228.75 114.113C233.48 115.79 239.485 127.698 239.125 132.558C238.765 137.418 234.21 138.422 234.755 145.821C235.3 153.22 247.485 160.552 256.74 155.863C265.994 151.173 267.485 145.129 271.3 146.304C275.115 147.479 280.946 154.688 284.586 144.457C288.226 134.225 286.591 127.698 278.036 119.314C269.48 110.93 262.755 111.603 261.655 104.896C260.555 98.1883 258.2 89.1317 250.344 84.0539C242.488 78.9761 231.238 78.6919 221.551 82.5476C211.865 86.4033 208.153 98.1883 208.153 102.546Z" fill="#263238"/>
<path d="M213.623 106.393C213.559 106.401 213.493 106.401 213.428 106.393C212.4 106.175 212.235 104.498 212.132 100.424C212.132 99.3632 212.081 98.2738 212.009 97.4022C212.009 97.317 212.009 97.2412 212.009 97.1843C211.135 98.1317 209.284 102.158 207.896 105.71L206.929 105.388C210.652 95.8391 211.865 95.9812 212.256 96.038C212.965 96.1233 213.037 96.9854 213.068 97.3075C213.14 98.198 213.171 99.3064 213.192 100.367C213.192 102.054 213.305 104.82 213.685 105.398C214.182 104.927 214.574 104.37 214.837 103.759C215.865 101.788 216.893 100.917 217.839 100.917C219.053 100.917 219.69 102.452 220.143 103.541C220.252 103.81 220.379 104.073 220.523 104.327C220.976 104.441 222.58 102.935 223.433 102.12L224.184 101.419C224.356 101.212 224.577 101.043 224.83 100.925C225.083 100.807 225.361 100.743 225.644 100.737C226.22 100.822 226.498 101.315 226.796 101.826C227.068 102.379 227.464 102.873 227.958 103.276C228.287 103.513 228.451 103.475 228.523 103.465C229.264 103.295 230.158 101.457 231.197 99.3348C231.434 98.8327 231.691 98.3117 231.968 97.7622C232.246 97.2128 232.77 96.2938 233.531 96.3601C234.488 96.4264 234.93 97.8096 235.588 99.9032C235.989 101.575 236.684 103.174 237.644 104.64C237.881 104.905 238.2 105.208 238.498 105.18C239.3 105.057 240.184 102.868 240.719 101.561C240.956 100.908 241.252 100.274 241.603 99.6664C241.681 99.5135 241.805 99.3843 241.96 99.2937C242.115 99.2031 242.294 99.1549 242.477 99.1548C243.238 99.1548 243.763 100.102 244.472 101.391C245.007 102.338 245.737 103.674 246.344 103.892C246.467 103.939 246.508 103.892 246.539 103.892C246.94 103.702 247.28 102.48 247.567 101.504C247.81 100.406 248.233 99.3489 248.822 98.3685C248.974 98.1386 249.177 97.9411 249.418 97.7892C249.659 97.6372 249.933 97.5344 250.22 97.4875C251.568 97.2885 253.069 98.359 254.066 99.079C254.015 98.5959 253.902 97.9327 253.809 97.3549C253.295 94.2002 253.151 92.675 254.005 92.2392C254.406 92.0402 254.879 92.1539 255.413 92.5897C256.339 93.3961 257.217 94.2467 258.046 95.1381C259.928 97.0896 262.786 100.026 263.938 99.7422C264.257 99.6664 264.432 99.2117 264.514 98.8517L265.542 99.0411C265.326 99.9885 264.884 100.5 264.226 100.661C262.57 101.059 260.318 98.8896 257.295 95.7728C256.475 94.8863 255.603 94.0419 254.683 93.2434C254.609 93.1774 254.526 93.1201 254.436 93.0728C254.365 94.4416 254.479 95.8131 254.776 97.1559C255.146 99.3822 255.218 99.9979 254.776 100.254C254.674 100.316 254.554 100.349 254.431 100.349C254.309 100.349 254.189 100.316 254.087 100.254C253.912 100.14 253.686 99.9885 253.439 99.799C252.627 99.2211 251.269 98.2643 250.354 98.3875C250.206 98.4123 250.066 98.4668 249.943 98.547C249.821 98.6272 249.719 98.7312 249.645 98.8517C249.127 99.7443 248.752 100.702 248.534 101.694C248.133 103.096 247.794 104.308 246.981 104.687C246.82 104.757 246.645 104.793 246.467 104.793C246.29 104.793 246.114 104.757 245.953 104.687C244.986 104.337 244.256 103.011 243.547 101.741C243.266 101.152 242.922 100.59 242.519 100.064V100.064C242.199 100.634 241.931 101.226 241.716 101.836C240.956 103.731 240.092 105.853 238.683 106.052C238.321 106.073 237.96 106.002 237.64 105.844C237.32 105.687 237.055 105.45 236.873 105.161C235.825 103.613 235.071 101.912 234.642 100.131C234.415 99.1325 234.02 98.1734 233.47 97.2885C233.264 97.5558 233.088 97.8414 232.945 98.1412C232.667 98.6811 232.41 99.2117 232.174 99.7043C230.888 102.347 230.035 104.09 228.801 104.365C228.545 104.413 228.28 104.404 228.028 104.34C227.776 104.276 227.544 104.158 227.351 103.996C226.748 103.515 226.265 102.92 225.932 102.253C225.826 102.037 225.688 101.836 225.521 101.656C225.521 101.656 225.356 101.656 224.955 102.063L224.215 102.764C222.508 104.375 221.418 105.341 220.482 105.275C220.326 105.261 220.175 105.215 220.042 105.139C219.908 105.064 219.795 104.961 219.711 104.839C219.517 104.538 219.355 104.221 219.228 103.892C218.94 103.191 218.384 101.893 217.829 101.874C217.665 101.874 216.976 102.016 215.773 104.185C214.888 105.729 214.261 106.393 213.623 106.393Z" fill="#575757"/>
<path d="M234.117 144.457C234.117 144.457 236.667 135.713 239.259 138.489C241.85 141.265 243.649 142.117 243.886 139.768C244.123 137.418 243.886 134.008 246.436 137.21C248.986 140.412 255.228 143.604 255.691 138.697C256.154 133.79 256.853 127.177 259.866 130.597C262.879 134.017 265.419 136.566 265.655 134.643C265.892 132.719 267.969 131.232 268.894 133.364C269.82 135.495 270.519 137.636 271.208 132.729C271.897 127.822 268.658 122.488 272.133 123.767C275.609 125.046 277.275 129.309 277.275 126.969C277.275 124.629 273.1 121.844 276.812 122.697C280.524 123.549 280.977 125.69 281.439 124.411C281.902 123.132 279.383 120.139 282.601 120.139" stroke="#575757" stroke-miterlimit="10"/>
<path d="M208.153 102.546V103.219L207.824 111.432L217.644 112.607L219.834 109.083V112.939C222.864 112.705 225.912 113.107 228.75 114.113C233.48 115.79 239.485 127.698 239.125 132.558C238.765 137.418 234.21 138.422 234.755 145.821C235.3 153.22 247.485 160.552 256.74 155.863C265.994 151.173 267.485 145.129 271.3 146.304C275.115 147.479 280.946 154.688 284.586 144.457C288.226 134.225 286.591 127.698 278.036 119.314C269.48 110.93 262.755 111.603 261.655 104.896C260.555 98.1883 258.2 89.1317 250.344 84.0539C242.488 78.9761 231.238 78.6919 221.551 82.5476C211.865 86.4033 208.153 98.1883 208.153 102.546Z" stroke="#263238" stroke-linecap="round" stroke-linejoin="round"/>
</g>
<defs>
<filter id="filter0_d" x="0.780273" y="0" width="368.22" height="356.5" filterUnits="userSpaceOnUse" color-interpolation-filters="sRGB">
<feFlood flood-opacity="0" result="BackgroundImageFix"/>
<feColorMatrix in="SourceAlpha" type="matrix" values="0 0 0 0 0 0 0 0 0 0 0 0 0 0 0 0 0 0 127 0"/>
<feOffset dy="-4"/>
<feGaussianBlur stdDeviation="2"/>
<feColorMatrix type="matrix" values="0 0 0 0 0 0 0 0 0 0 0 0 0 0 0 0 0 0 0.25 0"/>
<feBlend mode="normal" in2="BackgroundImageFix" result="effect1_dropShadow"/>
<feBlend mode="normal" in="SourceGraphic" in2="effect1_dropShadow" result="shape"/>
</filter>
</defs>
</svg>
