<svg width="368" height="356" viewBox="0 0 368 356" fill="none" xmlns="http://www.w3.org/2000/svg">
<g filter="url(#filter0_d)">
<path d="M84.2835 281.959C84.2835 281.959 16.8343 219.732 5.45794 148.842C-5.91838 77.9532 52.4519 112.61 70.6375 111.034C88.823 109.458 77.4651 40.1544 129.761 15.7352C182.057 -8.68405 198.727 30.7 220.735 51.1751C242.743 71.6502 266.966 42.5133 307.114 41.7302C347.262 40.9471 348.797 80.3216 337.439 108.675C326.081 137.029 312.426 185.868 323.793 186.651C335.16 187.434 362.48 171.686 363.95 215.005C365.42 258.323 334.388 303.227 290.436 313.465C246.483 323.702 221.516 286.725 186.597 288.262C151.678 289.8 123.366 331.457 84.2835 281.959Z" fill="#92E3A9"/>
<path opacity="0.6" d="M84.2835 281.959C84.2835 281.959 16.8343 219.732 5.45794 148.842C-5.91838 77.9532 52.4519 112.61 70.6375 111.034C88.823 109.458 77.4651 40.1544 129.761 15.7352C182.057 -8.68405 198.727 30.7 220.735 51.1751C242.743 71.6502 266.966 42.5133 307.114 41.7302C347.262 40.9471 348.797 80.3216 337.439 108.675C326.081 137.029 312.426 185.868 323.793 186.651C335.16 187.434 362.48 171.686 363.95 215.005C365.42 258.323 334.388 303.227 290.436 313.465C246.483 323.702 221.516 286.725 186.597 288.262C151.678 289.8 123.366 331.457 84.2835 281.959Z" fill="white"/>
<g opacity="0.5">
<path opacity="0.5" d="M76.7024 356C108.513 356 134.301 349.3 134.301 341.035C134.301 332.77 108.513 326.07 76.7024 326.07C44.8917 326.07 19.104 332.77 19.104 341.035C19.104 349.3 44.8917 356 76.7024 356Z" fill="#92E3A9"/>
<path opacity="0.5" d="M196.834 332.364C274.478 332.364 337.42 322.666 337.42 310.704C337.42 298.742 274.478 289.045 196.834 289.045C119.19 289.045 56.2471 298.742 56.2471 310.704C56.2471 322.666 119.19 332.364 196.834 332.364Z" fill="#92E3A9"/>
</g>
<path d="M113.873 63.7618L185.494 50.8789L254.083 64.4971L319.556 53.3237V303.389L254.184 315.804L185.494 302.759L112.825 314.639L58.9854 302.406V54.2978L113.873 63.7618Z" fill="#92E3A9" stroke="#263238" stroke-miterlimit="10"/>
<path d="M77.7958 87.8368L96.5052 91.0837C96.5723 91.0931 96.6403 91.0931 96.7074 91.0837C96.9607 91.082 97.204 90.9806 97.3883 90.7999C97.5725 90.6191 97.684 90.3726 97.7004 90.1098C97.7167 89.8471 97.6366 89.5877 97.4762 89.3838C97.3158 89.18 97.0871 89.0469 96.836 89.0114L78.1175 85.8217C77.9853 85.7937 77.8491 85.7938 77.717 85.8219C77.5848 85.85 77.4595 85.9055 77.3485 85.9851C77.2376 86.0648 77.1432 86.1669 77.0711 86.2853C76.999 86.4038 76.9507 86.5361 76.929 86.6745C76.9074 86.8128 76.9128 86.9543 76.945 87.0904C76.9772 87.2265 77.0355 87.3544 77.1165 87.4665C77.1974 87.5786 77.2993 87.6726 77.4161 87.7428C77.5328 87.8129 77.662 87.8579 77.7958 87.8749V87.8368Z" fill="#263238"/>
<path d="M108.653 213.391L98.6095 207.766L81.6094 249.671L113.377 265.848V214.346C111.745 214.535 110.097 214.202 108.653 213.391V213.391Z" fill="#263238"/>
<path d="M80.7363 197.738L66.7227 233.14V275.618L95.0532 205.77L80.7363 197.738Z" fill="#263238"/>
<path d="M66.7227 286.371V295.329L113.377 307.257V268.178L80.8282 251.59L66.7227 286.371Z" fill="#263238"/>
<path d="M66.7227 185.142L110.555 209.724C111.422 210.196 112.422 210.332 113.377 210.106V155.862L66.7227 132.809V185.142Z" fill="#263238"/>
<path d="M78.6414 100.08C78.5092 100.052 78.373 100.052 78.2409 100.08C78.1088 100.108 77.9834 100.163 77.8725 100.243C77.7615 100.323 77.6671 100.425 77.595 100.543C77.5229 100.662 77.4746 100.794 77.453 100.932C77.4313 101.071 77.4367 101.212 77.4689 101.348C77.5012 101.484 77.5595 101.612 77.6404 101.724C77.7214 101.836 77.8233 101.93 77.94 102.001C78.0567 102.071 78.1859 102.116 78.3198 102.133L97.0291 105.332C97.0962 105.341 97.1642 105.341 97.2313 105.332C97.4847 105.33 97.728 105.229 97.9122 105.048C98.0965 104.867 98.208 104.621 98.2243 104.358C98.2406 104.095 98.1605 103.836 98.0001 103.632C97.8397 103.428 97.611 103.295 97.36 103.26L78.6414 100.08Z" fill="#263238"/>
<path d="M78.3839 92.9273C78.2536 92.9047 78.1203 92.9091 77.9916 92.94C77.8628 92.971 77.7412 93.028 77.6337 93.1079C77.5262 93.1877 77.4349 93.2887 77.3649 93.4052C77.295 93.5217 77.2478 93.6514 77.2261 93.7868C77.2044 93.9223 77.2085 94.0608 77.2383 94.1946C77.2681 94.3284 77.323 94.4547 77.3998 94.5665C77.4766 94.6782 77.5738 94.7731 77.6859 94.8458C77.798 94.9185 77.9228 94.9675 78.0531 94.9901L96.7717 98.1893H96.9738C97.2265 98.1854 97.4684 98.0824 97.651 97.9009C97.8336 97.7194 97.9435 97.4729 97.9586 97.2108C97.9737 96.9486 97.8929 96.6903 97.7325 96.4874C97.572 96.2846 97.3437 96.1523 97.0933 96.117L78.3839 92.9273Z" fill="#263238"/>
<path d="M259.026 101.589C257.624 102.568 256.138 103.412 254.588 104.111V166.262L285.381 83.0625L259.026 101.589Z" fill="#263238"/>
<path d="M282.597 154.906L302.198 105.896L292.264 76.1094L269.135 138.614L282.597 154.906Z" fill="#263238"/>
<path d="M286.64 79.6236L292.154 64.7734L254.588 71.9837V101.856C255.737 101.282 256.845 100.625 257.905 99.8886L286.64 79.6236Z" fill="#263238"/>
<path d="M66.7227 189.889V222.168L77.18 195.743L66.7227 189.889Z" fill="#263238"/>
<path d="M126.627 196.668L119.588 210.038C119.045 211.066 118.301 211.964 117.404 212.674C116.506 213.385 115.475 213.892 114.378 214.163V265.084L156.382 227.944L126.627 196.668Z" fill="#263238"/>
<path d="M214.532 218.27C215.228 218.377 215.938 218.293 216.592 218.026C217.246 217.76 217.822 217.32 218.263 216.752L248.845 177.597C243.947 166.7 236.724 159.404 227.37 155.918C211.472 149.988 193.645 156.596 188.205 158.927L211.353 215.711C211.621 216.389 212.056 216.982 212.614 217.431C213.172 217.881 213.833 218.17 214.532 218.27V218.27Z" fill="#263238"/>
<path d="M197.835 277.365C205.003 273.392 242.863 252.449 243.295 252.229C245.252 251.15 246.327 249.957 246.584 248.6C247.209 245.334 243.405 240.559 240.042 236.348C237.119 232.681 234.363 229.214 233.683 225.986C231.845 217.2 237.092 213.628 241.31 210.754C243.148 209.493 244.921 208.3 245.904 206.829C247.797 203.964 244.48 197.136 241.935 193.134L221.424 219.387C220.669 220.356 219.716 221.138 218.633 221.675C217.55 222.212 216.366 222.491 215.166 222.491C214.779 222.491 214.392 222.462 214.008 222.405C212.624 222.211 211.312 221.643 210.205 220.759C209.097 219.874 208.232 218.703 207.695 217.363L185.99 164.141V253.118L187.369 254.569L197.835 277.365Z" fill="#263238"/>
<path d="M154.195 125.941C153.626 129.234 152.831 132.479 151.815 135.653C148.838 144.143 118.302 154.687 114.369 156.024V209.752C115.083 209.367 115.669 208.768 116.051 208.033L154.646 134.775C155.27 133.596 156.157 132.589 157.233 131.839C158.309 131.09 159.542 130.619 160.829 130.466C162.116 130.314 163.419 130.484 164.63 130.963C165.84 131.442 166.923 132.215 167.786 133.218L184.97 153.273V89.1738C178.354 91.3703 171.719 93.8056 166.325 97.6924C158.524 103.308 156.024 116.391 154.195 125.941Z" fill="#263238"/>
<path d="M301.821 178.179L311.819 190.279V154.992L301.986 178.256L301.821 178.179Z" fill="#263238"/>
<path d="M274.207 242.928C273.875 244.06 273.882 245.271 274.229 246.399C274.575 247.526 275.244 248.518 276.146 249.24L298.292 267.061C301.854 269.954 304.246 274.127 305 278.76C305.753 283.393 304.812 288.151 302.363 292.101L298.145 298.786L292.696 299.827L299 289.79C300.903 286.722 301.634 283.025 301.049 279.426C300.464 275.827 298.606 272.585 295.839 270.336L273.683 252.573C272.128 251.316 270.979 249.595 270.392 247.641C269.804 245.687 269.804 243.593 270.393 241.639L293.201 174.168L267.471 143.045L255.268 176.078L254.588 176.947V307.533L311.809 296.255V196.687L296.188 177.816L274.207 242.928Z" fill="#263238"/>
<path d="M230.641 103.222L197.265 84.9336C194.325 86.0891 191.155 87.1205 187.892 88.1901L185.99 88.8109V154.419L186.597 155.126C192.386 152.576 211.242 145.48 228.739 151.993C238.617 155.67 246.327 163.081 251.712 174.035L251.785 173.949L253.623 168.992V104.578C249.926 106.085 245.959 106.744 241.994 106.51C238.029 106.276 234.159 105.154 230.65 103.222H230.641Z" fill="#263238"/>
<path d="M185.99 84.3986L186.689 84.1694C192.992 82.1066 198.947 80.1679 203.128 77.3221C206.85 74.7818 210.801 69.5961 214.155 64.3628L218.438 65.2127C214.652 71.3151 209.937 77.7136 205.343 80.8555C203.557 82.0394 201.675 83.0587 199.719 83.902L231.597 101.378C234.964 103.23 238.686 104.277 242.492 104.442C246.298 104.608 250.092 103.887 253.596 102.333V71.9836L186.009 58.8047L185.99 84.3986Z" fill="#263238"/>
<path d="M285.528 158.459L299.046 174.818L311.819 144.611V134.746L304.173 111.826L285.528 158.459Z" fill="#263238"/>
<path d="M296.776 63.9234L294.332 70.5128L306.333 105.561L311.819 121.997V61.0488L296.776 63.9234Z" fill="#263238"/>
<path d="M114.369 151.526C127.234 146.445 146.375 138.022 148.14 133.935C148.902 132.178 149.527 128.911 150.244 125.13C152.201 114.883 154.839 100.844 164.028 94.2356C170.24 89.7566 177.665 87.1591 184.97 84.762V58.8721L114.369 71.0292V151.526Z" fill="#263238"/>
<path d="M249.213 209.189C247.788 211.337 245.61 212.817 243.515 214.25C239.077 217.268 236.412 219.407 237.607 225.089C238.084 227.333 240.657 230.561 243.12 233.684C247.246 238.86 251.501 244.189 250.472 249.413C249.975 252.039 248.174 254.188 245.133 255.916L199.563 281.128L208.063 299.655L253.366 307.763H253.578V178.228L244.572 189.754C246.428 192.476 253.192 203.172 249.213 209.189Z" fill="#263238"/>
<path d="M157.797 229.425L126.59 257.015L149.536 301.575L147.432 301.919L125.028 258.399L114.378 267.816V307.352L184.988 295.778V259.077L184.033 257.005L157.797 229.425Z" fill="#263238"/>
<path d="M66.7227 128.205L113.377 151.249V70.8291L66.7227 61.9668V128.205ZM86.4796 70.3708C94.171 70.0652 100.806 80.7802 101.302 94.3029C101.798 107.826 95.9905 119.028 88.2715 119.333C80.5525 119.639 73.9454 108.924 73.4492 95.4012C72.953 81.8785 78.7882 70.6764 86.4796 70.3708Z" fill="#263238"/>
<path d="M164.799 135.969C164.366 135.463 163.821 135.074 163.213 134.832C162.604 134.591 161.948 134.505 161.301 134.582C160.653 134.659 160.033 134.896 159.492 135.273C158.951 135.651 158.506 136.158 158.192 136.752L128.64 192.829L184.988 252.039V161.677L183.288 157.58L164.799 135.969Z" fill="#263238"/>
<path d="M185.99 261.273V295.711L203.22 298.795L185.99 261.273Z" fill="#263238"/>
<path d="M218.649 124.938C215.922 124.938 213.306 126.064 211.378 128.068C209.45 130.073 208.366 132.791 208.366 135.625C208.366 141.527 218.649 152.681 218.649 152.681C218.649 152.681 228.932 141.527 228.932 135.625C228.932 132.791 227.848 130.073 225.92 128.068C223.992 126.064 221.376 124.938 218.649 124.938V124.938ZM218.649 139.445C217.791 139.445 216.953 139.181 216.239 138.685C215.526 138.19 214.97 137.486 214.642 136.662C214.314 135.839 214.228 134.932 214.395 134.058C214.562 133.184 214.975 132.38 215.582 131.75C216.189 131.12 216.961 130.69 217.803 130.516C218.644 130.342 219.516 130.432 220.309 130.773C221.101 131.114 221.779 131.692 222.255 132.433C222.732 133.174 222.986 134.046 222.986 134.937C222.986 135.529 222.874 136.115 222.656 136.662C222.438 137.209 222.119 137.706 221.716 138.125C221.313 138.543 220.835 138.875 220.309 139.102C219.783 139.328 219.219 139.445 218.649 139.445V139.445Z" fill="white"/>
<path d="M94.9978 172.04C94.9978 172.04 96.7254 176.347 98.2232 177.187C99.7211 178.028 100.98 178.734 102.597 176.232C104.215 173.73 101.099 169.652 98.793 168.936C96.4865 168.22 94.1524 168.573 94.9978 172.04Z" fill="white" stroke="#263238" stroke-width="0.75" stroke-linecap="round" stroke-linejoin="round"/>
<path d="M92.4339 166.825C92.4339 166.825 91.2576 168.057 92.2684 171.037C93.2793 174.016 96.1463 174.198 96.6609 173.319C97.1755 172.441 99.6934 174.551 99.6934 174.551L101.044 182.621L108.644 181.914L108.855 174.169L92.4339 166.825Z" fill="white" stroke="#263238" stroke-width="0.75" stroke-linecap="round" stroke-linejoin="round"/>
<path d="M80.2767 222.272C80.2767 222.272 80.1113 231.574 80.1113 239.118C80.1113 246.663 83.9892 256.49 83.9892 256.49C83.9892 256.49 83.8238 260.176 84.8346 262.459C85.8454 264.741 89.5671 269.144 90.5779 268.953C91.5887 268.762 91.9287 265.791 92.0941 262.105C92.2595 258.419 87.7109 255.42 87.7109 251.753C87.7109 248.086 89.2271 239.825 90.0725 235.088C90.9179 230.352 90.7433 222.1 90.7433 222.1L80.4513 221.575L80.2767 222.272Z" fill="white"/>
<g style="mix-blend-mode:multiply" opacity="0.5">
<path d="M90.7433 222.1L80.4513 221.575L80.2767 222.272C80.2767 222.272 80.2767 223.991 80.2124 226.541C81.4453 227.53 82.8444 228.271 84.3384 228.728C84.0516 234.542 84.3597 240.372 85.2573 246.119C86.746 255.201 87.8579 256.356 86.9298 258.677C86.0016 260.997 87.72 264.894 89.3557 265.849C90.4125 266.46 91.3957 263.748 92.1125 261.427C91.7357 258.056 87.7476 255.22 87.7476 251.772C87.7476 248.086 89.2638 239.844 90.1093 235.107C90.9547 230.371 90.7433 222.1 90.7433 222.1Z" fill="#92E3A9"/>
</g>
<path d="M80.2767 222.272C80.2767 222.272 80.1113 231.574 80.1113 239.118C80.1113 246.663 83.9892 256.49 83.9892 256.49C83.9892 256.49 83.8238 260.176 84.8346 262.459C85.8454 264.741 89.5671 269.144 90.5779 268.953C91.5887 268.762 91.9287 265.791 92.0941 262.105C92.2595 258.419 87.7109 255.42 87.7109 251.753C87.7109 248.086 89.2271 239.825 90.0725 235.088C90.9179 230.352 90.7433 222.1 90.7433 222.1L80.4513 221.575L80.2767 222.272Z" stroke="#263238" stroke-width="0.75" stroke-linecap="round" stroke-linejoin="round"/>
<path d="M129.89 179.374L139.29 173.406L153.745 156.216C154.633 154.163 155.743 152.221 157.053 150.428C158.625 148.614 163.32 144.269 163.844 145.176C164.368 146.083 164.717 146.265 163.844 147.172L160.885 150.247C160.885 150.247 164.193 153.112 164.368 154.067C164.532 154.708 164.57 155.376 164.48 156.032C164.39 156.689 164.174 157.319 163.844 157.887C162.98 159.147 162.456 157.524 162.456 157.524C161.823 158.852 160.999 160.072 160.012 161.143C159.34 161.778 158.483 162.162 157.577 162.232L156.006 162.585C156.006 162.585 151.135 172.909 148.865 175.955C146.596 179.002 145.19 180.663 143.297 181.743C141.404 182.822 129.89 189.526 129.89 189.526V179.374Z" fill="white"/>
<g style="mix-blend-mode:multiply" opacity="0.5">
<path d="M162.953 155.193C160.848 155.193 161.804 157.18 159.516 158.765C157.988 159.777 156.307 160.517 154.544 160.952C154.544 160.952 150.345 170.502 143.848 174.847C137.351 179.192 137.36 178.419 137.36 178.419L135.173 186.431L143.297 181.723C145.208 180.644 146.605 179.011 148.865 175.936C151.126 172.861 156.005 162.566 156.005 162.566L157.577 162.213C158.483 162.142 159.34 161.759 160.012 161.124C160.998 160.053 161.823 158.833 162.456 157.504C162.456 157.504 162.98 159.128 163.844 157.867C164.105 157.479 164.289 157.041 164.386 156.578C164.138 155.776 163.706 155.193 162.953 155.193Z" fill="#92E3A9"/>
</g>
<path d="M129.89 179.374L139.29 173.406L153.745 156.216C154.633 154.163 155.743 152.221 157.053 150.428C158.625 148.614 163.32 144.269 163.844 145.176C164.368 146.083 164.717 146.265 163.844 147.172L160.885 150.247C160.885 150.247 164.193 153.112 164.368 154.067C164.532 154.708 164.57 155.376 164.48 156.032C164.39 156.689 164.174 157.319 163.844 157.887C162.98 159.147 162.456 157.524 162.456 157.524C161.823 158.852 160.999 160.072 160.012 161.143C159.34 161.778 158.483 162.162 157.577 162.232L156.006 162.585C156.006 162.585 151.135 172.909 148.865 175.955C146.596 179.002 145.19 180.663 143.297 181.743C141.404 182.822 129.89 189.526 129.89 189.526V179.374Z" stroke="#263238" stroke-width="0.75" stroke-linecap="round" stroke-linejoin="round"/>
<path d="M100.254 335.248C100.254 335.248 102.524 335.84 101.954 337.597C101.384 339.355 99.574 342.649 98.1037 342.535C96.6334 342.42 100.254 335.248 100.254 335.248Z" fill="#92E3A9" stroke="#263238" stroke-width="0.75" stroke-linecap="round" stroke-linejoin="round"/>
<path d="M91.9288 263.337C91.9288 263.337 92.4342 277.729 92.4342 279.83C92.4342 281.931 89.3926 290.182 89.3926 294.394C89.3926 298.605 92.4342 329.815 92.4342 335.077C92.4342 340.339 91.9288 342.096 94.6305 342.631C97.3321 343.165 99.0229 343.328 100.034 339.642C101.045 335.955 100.034 312.472 101.045 302.645C102.055 292.818 103.921 282.285 104.086 276.325C104.237 272.423 104.745 268.544 105.602 264.741C103.438 264.801 101.275 264.564 99.17 264.035C96.7919 263.501 94.3607 263.267 91.9288 263.337V263.337Z" fill="white"/>
<g style="mix-blend-mode:multiply" opacity="0.5">
<path d="M104.141 275.065C103.083 274.712 101.993 274.469 100.888 274.339C99.7765 274.339 96.2387 274.53 94.9338 274.721L92.324 275.151C92.3884 277.357 92.4343 279.181 92.4343 279.83C92.4051 280.343 92.3282 280.851 92.2046 281.349C93.4325 281.988 94.7234 282.488 96.0549 282.838C99.9603 283.994 100.512 283.793 100.512 283.793C100.512 283.793 94.9338 297.899 95.3106 303.504C95.5954 307.831 96.3214 332.049 96.643 342.898C98.2144 342.946 99.2987 342.296 100.034 339.632C101.045 335.946 100.034 312.462 101.045 302.635C102.055 292.808 103.921 282.275 104.086 276.316C104.092 275.889 104.111 275.472 104.141 275.065Z" fill="#92E3A9"/>
</g>
<path d="M91.9288 263.337C91.9288 263.337 92.4342 277.729 92.4342 279.83C92.4342 281.931 89.3926 290.182 89.3926 294.394C89.3926 298.605 92.4342 329.815 92.4342 335.077C92.4342 340.339 91.9288 342.096 94.6305 342.631C97.3321 343.165 99.0229 343.328 100.034 339.642C101.045 335.955 100.034 312.472 101.045 302.645C102.055 292.818 103.921 282.285 104.086 276.325C104.237 272.423 104.745 268.544 105.602 264.741C103.438 264.801 101.275 264.564 99.17 264.035C96.7919 263.501 94.3607 263.267 91.9288 263.337V263.337Z" stroke="#263238" stroke-width="0.75" stroke-linecap="round" stroke-linejoin="round"/>
<path d="M107.633 266.67C107.633 266.67 108.304 278.607 107.633 282.466C106.962 286.324 105.272 288.778 105.097 293.171C104.922 297.564 107.799 332.622 107.799 337.015C107.799 341.408 105.777 342.277 109.636 343.7C113.496 345.123 127.537 340.186 127.537 338.256C127.537 336.327 118.421 336.155 117.429 333.692C116.437 331.228 116.381 300.372 118.063 291.252C119.745 282.131 121.831 264.855 121.831 264.855L107.633 266.67Z" fill="white"/>
<g style="mix-blend-mode:multiply" opacity="0.5">
<path d="M111.612 343.92C116.933 343.844 127.519 339.919 127.519 338.238C127.519 336.328 118.403 336.137 117.411 333.673C116.418 331.209 116.363 300.353 118.045 291.233C118.909 286.582 119.883 279.831 120.599 274.32C116.29 274.32 110.987 274.521 107.9 274.626C107.999 277.243 107.903 279.864 107.615 282.466C107.466 283.286 107.269 284.096 107.027 284.892C108.44 285.744 110.002 286.295 111.621 286.516C111.621 286.516 110.877 294.051 110.317 305.453C109.866 315.786 110.427 338.362 111.612 343.92Z" fill="#92E3A9"/>
</g>
<path d="M107.633 266.67C107.633 266.67 108.304 278.607 107.633 282.466C106.962 286.324 105.272 288.778 105.097 293.171C104.922 297.564 107.799 332.622 107.799 337.015C107.799 341.408 105.777 342.277 109.636 343.7C113.496 345.123 127.537 340.186 127.537 338.256C127.537 336.327 118.421 336.155 117.429 333.692C116.437 331.228 116.381 300.372 118.063 291.252C119.745 282.131 121.831 264.855 121.831 264.855L107.633 266.67Z" stroke="#263238" stroke-width="0.75" stroke-linecap="round" stroke-linejoin="round"/>
<path d="M127.555 338.238C127.555 336.328 118.439 336.137 117.447 333.673L117.952 337.712C117.952 337.712 116.767 338.944 112.88 339.288C111.14 339.461 109.385 339.348 107.679 338.954C107.302 341.704 106.447 342.516 109.673 343.681C113.542 345.114 127.555 340.167 127.555 338.238Z" fill="#92E3A9" stroke="#263238" stroke-width="0.75" stroke-linecap="round" stroke-linejoin="round"/>
<path d="M100.034 339.641C100.246 338.733 100.372 337.805 100.411 336.872C97.4059 338.371 94.2356 337.502 92.4253 336.729C92.361 340.72 92.2323 342.162 94.6307 342.63C97.3324 343.203 99.0232 343.328 100.034 339.641Z" fill="#92E3A9" stroke="#263238" stroke-width="0.75" stroke-linecap="round" stroke-linejoin="round"/>
<path d="M88.3813 236.836L88.703 275.781C88.703 275.781 90.3938 277.357 94.7863 278.064C97.718 278.443 100.692 278.265 103.562 277.538L103.397 279.993C103.397 279.993 106.098 281.75 112.338 281.903C118.577 282.055 123.99 278.083 123.99 278.083L121.141 236.684C121.141 236.684 107.467 240.198 98.3425 237.916C89.2176 235.633 89.7322 233.503 88.3813 236.836Z" fill="white"/>
<g style="mix-blend-mode:multiply">
<path d="M114.415 278.036L114.268 281.855C117.748 281.407 121.078 280.115 123.99 278.083L121.141 236.684C121.141 236.684 107.467 240.199 98.3425 237.916C89.2176 235.634 89.7322 233.523 88.3813 236.856L88.4365 242.815C91.1076 244.433 93.9979 245.624 97.0101 246.349C103.884 248.135 112.273 247.017 112.273 247.017L114.415 259.079C114.802 260.162 115.092 261.282 115.278 262.421C115.365 263.558 115.217 264.7 114.846 265.773C114.846 265.773 116.565 271.36 116.565 274.034C116.544 274.832 116.338 275.613 115.964 276.31C115.589 277.007 115.058 277.599 114.415 278.036V278.036Z" fill="#92E3A9"/>
</g>
<g style="mix-blend-mode:multiply" opacity="0.1">
<path d="M114.415 278.036L114.268 281.855C117.748 281.407 121.078 280.115 123.99 278.083L121.141 236.684C121.141 236.684 107.467 240.199 98.3425 237.916C89.2176 235.634 89.7322 233.523 88.3813 236.856L88.4365 242.815C91.1076 244.433 93.9979 245.624 97.0101 246.349C103.884 248.135 112.273 247.017 112.273 247.017L114.415 259.079C114.802 260.162 115.092 261.282 115.278 262.421C115.365 263.558 115.217 264.7 114.846 265.773C114.846 265.773 116.565 271.36 116.565 274.034C116.544 274.832 116.338 275.613 115.964 276.31C115.589 277.007 115.058 277.599 114.415 278.036V278.036Z" fill="black"/>
</g>
<path d="M88.3813 236.836L88.703 275.781C88.703 275.781 90.3938 277.357 94.7863 278.064C97.718 278.443 100.692 278.265 103.562 277.538L103.397 279.993C103.397 279.993 106.098 281.75 112.338 281.903C118.577 282.055 123.99 278.083 123.99 278.083L121.141 236.684C121.141 236.684 107.467 240.198 98.3425 237.916C89.2176 235.633 89.7322 233.503 88.3813 236.836Z" stroke="#263238" stroke-width="0.75" stroke-linecap="round" stroke-linejoin="round"/>
<path d="M96.1465 247.541L102.735 248.773L103.075 265.972" stroke="#263238" stroke-width="0.75" stroke-linecap="round" stroke-linejoin="round"/>
<path d="M121.38 257.912C121.38 257.912 120.765 258.982 117.043 259.411C113.321 259.841 111.263 259.201 111.061 260.061C110.859 260.92 111.465 265.208 111.465 265.208C113.142 265.746 114.91 265.909 116.652 265.687C118.394 265.465 120.071 264.862 121.573 263.919" stroke="#263238" stroke-width="0.75" stroke-linecap="round" stroke-linejoin="round"/>
<path d="M111.878 267.759C111.878 267.759 111.263 276.984 112.292 277.414" stroke="#263238" stroke-width="0.75" stroke-linecap="round" stroke-linejoin="round"/>
<path d="M89.5581 272.076C89.5581 272.076 93.6933 276.584 103.397 274.445C103.397 274.445 113.101 281.741 122.189 273.795" stroke="#263238" stroke-width="0.75" stroke-linecap="round" stroke-linejoin="round"/>
<path d="M103.002 268.428V273.365" stroke="#263238" stroke-width="0.75" stroke-linecap="round" stroke-linejoin="round"/>
<path d="M81.2874 214.202C80.861 214.304 80.4599 214.498 80.11 214.771C79.7602 215.044 79.4694 215.39 79.2566 215.787C78.7512 217.01 77.7404 220.696 78.4112 221.747C79.8269 223.36 81.7357 224.416 83.8145 224.736C85.4651 224.899 87.1304 224.717 88.7124 224.201L89.5578 216.838C89.5578 216.838 82.8128 217.363 81.2874 214.202Z" fill="white" stroke="#263238" stroke-width="0.75" stroke-linecap="round" stroke-linejoin="round"/>
<path d="M129.329 178.238C129.329 178.238 128.189 176.662 129.329 175.869C130.468 175.077 134.475 172.708 135.614 173.1C136.754 173.492 139.419 176.462 139.804 179.432C140.19 182.402 140.944 184.77 139.988 185.563C139.033 186.355 135.614 190.108 134.475 190.338C133.335 190.567 132.949 188.953 132.949 188.953L129.329 178.238Z" fill="white" stroke="#263238" stroke-width="0.75" stroke-linecap="round" stroke-linejoin="round"/>
<path d="M98.1773 182.765C98.1773 182.765 88.3816 187.855 87.5362 189.965C86.6908 192.076 79.9458 215.053 80.6166 216.104C81.0401 216.863 81.6258 217.511 82.3284 217.998C83.031 218.484 83.8318 218.797 84.6691 218.911C85.8776 219.195 87.1074 219.371 88.3448 219.436L87.1686 236.464C87.1686 236.464 91.3865 245.412 105.547 243.483C119.708 241.554 124.964 235.404 124.964 235.404L120.241 198.207C120.241 198.207 135.605 188.561 135.771 186.451C135.936 184.34 135.265 179.26 133.933 177.856C133.485 177.327 132.879 176.97 132.213 176.841C131.546 176.713 130.857 176.822 130.257 177.149C126.739 178.729 123.13 180.078 119.451 181.189C118.78 181.189 115.233 180.482 114.387 180.482C113.542 180.482 106.622 181.542 105.602 181.542C104.582 181.542 98.1773 182.765 98.1773 182.765Z" fill="#92E3A9" stroke="#263238" stroke-width="0.75" stroke-linecap="round" stroke-linejoin="round"/>
<path opacity="0.3" d="M98.1773 182.765C98.1773 182.765 88.3816 187.855 87.5362 189.965C86.6908 192.076 79.9458 215.053 80.6166 216.104C81.0401 216.863 81.6258 217.511 82.3284 217.998C83.031 218.484 83.8318 218.797 84.6691 218.911C85.8776 219.195 87.1074 219.371 88.3448 219.436L87.1686 236.464C87.1686 236.464 91.3865 245.412 105.547 243.483C119.708 241.554 124.964 235.404 124.964 235.404L120.241 198.207C120.241 198.207 135.605 188.561 135.771 186.451C135.936 184.34 135.265 179.26 133.933 177.856C133.485 177.327 132.879 176.97 132.213 176.841C131.546 176.713 130.857 176.822 130.257 177.149C126.739 178.729 123.13 180.078 119.451 181.189C118.78 181.189 115.233 180.482 114.387 180.482C113.542 180.482 106.622 181.542 105.602 181.542C104.582 181.542 98.1773 182.765 98.1773 182.765Z" fill="white" stroke="#263238" stroke-width="0.75" stroke-linecap="round" stroke-linejoin="round"/>
<path d="M97.332 184.025L98.8483 181.218C98.8483 181.218 103.241 179.632 106.448 178.763C109.655 177.894 111.52 177.531 111.52 177.531L113.174 181.055L97.332 184.025Z" fill="white" stroke="#263238" stroke-width="0.75" stroke-linecap="round" stroke-linejoin="round"/>
<path d="M121.812 209.819L117.76 235.089C117.76 235.089 122.658 234.563 125.019 235.432L121.812 209.819Z" fill="white" stroke="#263238" stroke-width="0.75" stroke-linecap="round" stroke-linejoin="round"/>
<path d="M120.296 198.235C120.296 198.235 114.783 209.829 112.09 213.047" stroke="#263238" stroke-width="0.75" stroke-linecap="round" stroke-linejoin="round"/>
<path d="M117.043 204.892C117.043 204.892 114.985 216.695 112.917 221.423" stroke="#263238" stroke-width="0.75" stroke-linecap="round" stroke-linejoin="round"/>
<path d="M88.3359 218.204L88.5473 198.455" stroke="#263238" stroke-width="0.75" stroke-linecap="round" stroke-linejoin="round"/>
<path d="M98.1775 151.031C97.4485 150.566 96.6222 150.293 95.7692 150.233C94.9163 150.173 94.0621 150.329 93.2796 150.687C90.578 151.909 90.0726 159.454 90.7434 164.372C91.4142 169.29 98.1775 173.673 100.374 175.603C102.57 177.532 105.777 177.178 108.644 175.603C111.511 174.027 115.738 166.129 114.387 158.928C113.037 151.728 111.686 147.698 106.282 147.526C100.879 147.354 98.5175 148.576 98.1775 151.031Z" fill="white" stroke="#263238" stroke-width="0.75" stroke-linecap="round" stroke-linejoin="round"/>
<g style="mix-blend-mode:multiply">
<path d="M95.5309 171.19C94.7439 170.387 94.0216 169.519 93.3715 168.593C92.8017 167.638 93.7115 168.001 95.3012 168.707C96.891 169.414 93.1417 165.756 92.8017 162.442C92.4617 159.129 98.1407 158.422 100.649 160.074C102.171 161.091 103.548 162.326 104.739 163.741C104.739 163.741 104.628 157.83 106.898 158.183C109.168 158.537 109.517 163.149 109.517 163.149C109.517 163.149 112.356 157.238 112.697 159.129C113.037 161.02 111.226 168.115 111.226 168.115C111.226 168.115 113.266 162.328 113.726 164.687C114.185 167.046 110.73 174.103 108.644 175.602C106.558 177.102 102.469 177.57 100.76 176.271C98.9268 174.68 97.1812 172.984 95.5309 171.19V171.19Z" fill="#92E3A9"/>
</g>
<path d="M112.604 154.936C113.069 158.405 112.548 161.94 111.107 165.106C108.69 170.607 107.661 170.836 107.661 170.836" stroke="#263238" stroke-width="0.5" stroke-miterlimit="10" stroke-linecap="round"/>
<path d="M112.954 166.893C112.954 166.893 110.647 171.916 107.661 173.578" stroke="#263238" stroke-width="0.5" stroke-miterlimit="10" stroke-linecap="round"/>
<path d="M99.0229 152.424C99.0229 152.424 102.478 155.05 102.827 158.288" stroke="#263238" stroke-width="0.5" stroke-miterlimit="10" stroke-linecap="round"/>
<path d="M91.7725 164.266C92.977 167.08 95.0943 169.365 97.7547 170.721C102.129 172.88 103.856 170.368 103.856 170.368" stroke="#263238" stroke-width="0.5" stroke-miterlimit="10" stroke-linecap="round"/>
<path d="M99.3721 173.711C101.61 174.69 104.124 174.735 106.393 173.835" stroke="#263238" stroke-width="0.5" stroke-miterlimit="10" stroke-linecap="round"/>
<path d="M44.6499 326.08C44.6499 326.08 48.2062 326.882 47.471 328.229C46.7359 329.575 45.9364 329.356 45.9364 329.356C45.6723 328.202 45.2384 327.097 44.6499 326.08V326.08Z" fill="white" stroke="#263238" stroke-width="0.75" stroke-linecap="round" stroke-linejoin="round"/>
<path d="M34.0086 331.8C34.0086 331.8 31.9778 333.328 33.4573 335.057C34.9367 336.786 38.0519 336.967 40.2757 335.439C42.4995 333.911 46.359 331.418 47.6271 329.881C48.8953 328.343 47.0758 326.242 44.6774 325.86C42.279 325.478 34.0086 331.8 34.0086 331.8Z" fill="white" stroke="#263238" stroke-width="0.75" stroke-linecap="round" stroke-linejoin="round"/>
<path d="M30.6176 268.972C31.2785 272.277 31.1524 275.699 30.25 278.942C28.7705 284.882 28.5867 287.537 29.1381 293.124C29.6894 298.71 34.8538 323.779 34.3025 327.226C33.7511 330.674 33.3835 331.639 34.1187 333.549C34.8538 335.459 37.436 335.659 39.283 333.931C41.1301 332.202 42.7842 331.639 43.3355 329.528C43.8869 327.417 41.6815 325.708 41.1301 323.798C40.5787 321.888 39.4668 294.862 39.4668 287.394C39.6172 281.428 40.1081 275.478 40.9371 269.573L30.6176 268.972Z" fill="white"/>
<g style="mix-blend-mode:multiply" opacity="0.5">
<path d="M39.4674 287.374C39.6178 281.409 40.1087 275.459 40.9377 269.554L30.6182 268.972C30.9439 270.439 31.0738 271.946 31.0041 273.451C31.6749 273.651 32.4101 273.861 33.1176 274.024C34.1913 274.312 35.2906 274.484 36.3982 274.539C36.3982 274.539 35.0842 280.852 34.2663 286.143C33.4485 291.433 33.9355 305.596 36.1042 313.78C38.2728 321.964 37.5836 326.749 38.0799 328.793C38.5761 330.836 38.6955 333.3 37.2988 335.019C38.0511 334.842 38.7472 334.467 39.3204 333.931C41.1583 332.212 42.8215 331.639 43.3729 329.528C43.9242 327.417 41.7188 325.708 41.1674 323.798C40.6161 321.888 39.4674 294.843 39.4674 287.374Z" fill="#92E3A9"/>
</g>
<path d="M30.6176 268.972C31.2785 272.277 31.1524 275.699 30.25 278.942C28.7705 284.882 28.5867 287.537 29.1381 293.124C29.6894 298.71 34.8538 323.779 34.3025 327.226C33.7511 330.674 33.3835 331.639 34.1187 333.549C34.8538 335.459 37.436 335.659 39.283 333.931C41.1301 332.202 42.7842 331.639 43.3355 329.528C43.8869 327.417 41.6815 325.708 41.1301 323.798C40.5787 321.888 39.4668 294.862 39.4668 287.394C39.6172 281.428 40.1081 275.478 40.9371 269.573L30.6176 268.972Z" stroke="#263238" stroke-width="0.75" stroke-linecap="round" stroke-linejoin="round"/>
<path d="M41.498 324.639C42.2546 324.726 42.9849 324.978 43.6406 325.38C44.2964 325.781 44.8628 326.323 45.3024 326.969C46.5889 329.079 46.2857 329.366 46.2857 329.366L42.61 331.667C42.61 331.667 42.0494 330.197 41.498 324.639Z" fill="#92E3A9" stroke="#263238" stroke-width="0.75" stroke-linecap="round" stroke-linejoin="round"/>
<path d="M56.7798 337.598C56.7798 337.598 55.4933 338.18 56.9636 339.508C58.4338 340.835 62.3117 339.89 67.0718 338.935C71.8318 337.98 75.7372 335.869 75.921 334.523C76.1048 333.176 71.8686 333.186 71.8686 333.186L56.7798 337.598Z" fill="white" stroke="#263238" stroke-width="0.75" stroke-linecap="round" stroke-linejoin="round"/>
<path d="M48.8675 271.656C48.8675 271.656 49.6027 274.721 48.3162 280.662C47.0297 286.602 46.4783 287.566 47.3972 294.27C48.3162 300.974 56.2281 330.512 56.5865 332.241C56.9449 333.969 56.5865 336.261 56.7703 337.598C56.9541 338.935 60.2714 338.553 62.1184 338.181C63.9655 337.808 70.7839 336.452 72.0796 335.688C73.3753 334.924 75.2132 334.342 73.1823 333.387C71.1515 332.432 64.912 332.432 63.7817 330.894C62.6514 329.357 60.6482 324.763 60.6482 322.299C60.6482 319.835 56.9725 291.997 57.5238 286.439C58.0752 280.881 59.0033 269.393 59.0033 269.393L48.8675 271.656Z" fill="white"/>
<g style="mix-blend-mode:multiply" opacity="0.5">
<path d="M73.1915 333.387C71.1607 332.432 64.9212 332.432 63.7909 330.894C62.6606 329.357 60.6574 324.763 60.6574 322.299C60.6574 319.835 56.9817 291.997 57.533 286.439C58.0844 280.881 59.0125 269.393 59.0125 269.393L48.9043 271.685C49.1957 273.434 49.2143 275.22 48.9594 276.975C49.3763 277.069 49.801 277.121 50.2275 277.128C52.1941 277.128 55.8054 276.956 55.8054 276.956C55.8054 276.956 52.5249 287.022 52.6903 294.022C52.8557 301.022 59.2606 329.357 59.913 331.725C60.4845 333.543 60.7609 335.447 60.7309 337.36C60.7274 337.727 60.7029 338.094 60.6574 338.458C61.2087 338.391 61.7233 338.296 62.1644 338.21C64.0023 337.818 70.8299 336.481 72.1256 335.717C73.4213 334.953 75.2224 334.342 73.1915 333.387Z" fill="#92E3A9"/>
</g>
<path d="M48.8675 271.656C48.8675 271.656 49.6027 274.721 48.3162 280.662C47.0297 286.602 46.4783 287.566 47.3972 294.27C48.3162 300.974 56.2281 330.512 56.5865 332.241C56.9449 333.969 56.5865 336.261 56.7703 337.598C56.9541 338.935 60.2714 338.553 62.1184 338.181C63.9655 337.808 70.7839 336.452 72.0796 335.688C73.3753 334.924 75.2132 334.342 73.1823 333.387C71.1515 332.432 64.912 332.432 63.7817 330.894C62.6514 329.357 60.6482 324.763 60.6482 322.299C60.6482 319.835 56.9725 291.997 57.5238 286.439C58.0752 280.881 59.0033 269.393 59.0033 269.393L48.8675 271.656Z" stroke="#263238" stroke-width="0.75" stroke-linecap="round" stroke-linejoin="round"/>
<path d="M71.1791 332.621C71.1791 332.621 69.038 330.329 64.9487 331.609C64.9487 331.609 66.2077 331.848 66.2077 333.958C66.2077 336.069 66.2077 338.218 66.2077 338.218L70.6093 337.024C71.1036 336.426 71.4205 335.692 71.5216 334.91C71.6228 334.129 71.5038 333.334 71.1791 332.621Z" fill="#92E3A9" stroke="#263238" stroke-width="0.75" stroke-linecap="round" stroke-linejoin="round"/>
<path d="M24.8655 201.166C24.8655 201.166 22.2649 210.172 22.6968 213.782C23.1287 217.392 23.3952 221.918 25.2974 221.918C27.1996 221.918 31.151 203.449 31.3715 202.093C31.5921 200.736 24.8655 201.166 24.8655 201.166Z" fill="white" stroke="#263238" stroke-width="0.75" stroke-linecap="round" stroke-linejoin="round"/>
<path d="M28.955 190.414L24.103 202.514L34.3215 206.534L33.7885 194.454L28.955 190.414Z" fill="white" stroke="#263238" stroke-width="0.75" stroke-linecap="round" stroke-linejoin="round"/>
<path d="M41.4979 174.704C41.6999 176.565 41.5753 178.448 41.1304 180.262C40.386 182.363 28.9546 188.112 28.9546 190.414C28.9546 192.715 33.0162 221.26 33.0162 221.26C33.0162 221.26 35.773 223.944 42.6007 223.753C49.4283 223.562 51.0824 219.732 51.0824 219.732C51.0824 219.732 54.7581 191.751 52.7456 189.077C50.7332 186.403 46.3131 182.392 45.7342 181.437C45.1553 180.482 46.6531 173.959 46.6531 173.959C46.6531 173.959 45.918 172.049 42.4169 171.858C38.9158 171.667 41.4979 174.704 41.4979 174.704Z" fill="white" stroke="#263238" stroke-width="0.75" stroke-linecap="round" stroke-linejoin="round"/>
<path d="M47.2869 183.165C46.7243 182.624 46.205 182.036 45.7339 181.408C45.1826 180.453 46.6529 173.93 46.6529 173.93C46.6529 173.93 45.9177 172.02 42.4166 171.829C38.9155 171.638 41.4977 174.694 41.4977 174.694C41.6996 176.554 41.575 178.438 41.1301 180.252C40.9096 180.863 39.7793 181.79 38.2998 182.84C39.6751 183.997 41.3829 184.642 43.1517 184.674C44.6253 184.516 46.0422 183.999 47.2869 183.165V183.165Z" fill="white" stroke="#263238" stroke-width="0.75" stroke-linecap="round" stroke-linejoin="round"/>
<path d="M49.7959 207.47C50.2872 210.489 51.0882 213.444 52.1851 216.285C54.023 221.06 58.6176 228.929 60.1154 226.054C61.6133 223.18 61.5949 216.504 60.8506 212.255C60.1063 208.005 58.6452 203.44 58.6452 201.339C58.6452 199.238 59.1965 197.118 58.6452 195.399C58.0938 193.68 54.0505 191.751 54.0505 191.751L49.7959 207.47Z" fill="white"/>
<g style="mix-blend-mode:multiply" opacity="0.5">
<path d="M60.1522 226.054C61.6317 223.189 61.6317 216.504 60.8874 212.255C60.1431 208.005 58.682 203.44 58.682 201.339C58.682 199.238 59.2333 197.118 58.682 195.399C58.1306 193.68 54.0873 191.751 54.0873 191.751L49.8511 207.47C50.0745 208.898 50.3814 210.311 50.77 211.701L56.0538 209.055C56.0538 209.055 59.4722 217.316 59.8306 221.69C59.9484 223.363 59.7962 225.045 59.3804 226.666C59.5511 226.649 59.7139 226.583 59.8503 226.475C59.9867 226.367 60.0913 226.221 60.1522 226.054V226.054Z" fill="#92E3A9"/>
</g>
<path d="M49.7959 207.47C50.2872 210.489 51.0882 213.444 52.1851 216.285C54.023 221.06 58.6176 228.929 60.1154 226.054C61.6133 223.18 61.5949 216.504 60.8506 212.255C60.1063 208.005 58.6452 203.44 58.6452 201.339C58.6452 199.238 59.1965 197.118 58.6452 195.399C58.0938 193.68 54.0505 191.751 54.0505 191.751L49.7959 207.47Z" stroke="#263238" stroke-width="0.75" stroke-linecap="round" stroke-linejoin="round"/>
<path d="M56.6143 202.867C56.6143 202.867 59.1964 211.109 60.1154 213.983Z" fill="white"/>
<path d="M56.6143 202.867C56.6143 202.867 59.1964 211.109 60.1154 213.983" stroke="#263238" stroke-width="0.75" stroke-linecap="round" stroke-linejoin="round"/>
<path d="M52.7456 189.076C52.7456 189.076 53.2969 189.267 54.0321 191.75C54.7672 194.233 57.5699 203.029 57.5699 203.029L55.3921 205.311C54.0525 206.724 52.5007 207.901 50.7974 208.797L49.6488 209.379L47.4434 202.293" fill="white"/>
<path d="M52.7456 189.076C52.7456 189.076 53.2969 189.267 54.0321 191.75C54.7672 194.233 57.5699 203.029 57.5699 203.029L55.3921 205.311C54.0525 206.724 52.5007 207.901 50.7974 208.797L49.6488 209.379L47.4434 202.293" stroke="#263238" stroke-width="0.75" stroke-linecap="round" stroke-linejoin="round"/>
<path d="M54.767 160.427C54.767 160.427 56.421 168.497 56.421 171.763C56.421 175.029 51.1372 180.692 49.4831 180.52C47.829 180.348 44.0247 175.745 42.7014 172.107C41.3782 168.468 46.175 162.49 47.6636 161.458C49.1523 160.427 53.9399 159.568 54.767 160.427Z" fill="white"/>
<g style="mix-blend-mode:multiply" opacity="0.5">
<path d="M55.9255 166.94C55.4385 163.712 54.7677 160.427 54.7677 160.427C53.9406 159.568 49.153 160.427 47.6644 161.458C46.3963 162.337 42.7205 166.854 42.5 170.407C45.5233 170.349 49.9709 169.576 55.9255 166.94Z" fill="#92E3A9"/>
</g>
<path d="M54.767 160.427C54.767 160.427 56.421 168.497 56.421 171.763C56.421 175.029 51.1372 180.692 49.4831 180.52C47.829 180.348 44.0247 175.745 42.7014 172.107C41.3782 168.468 46.175 162.49 47.6636 161.458C49.1523 160.427 53.9399 159.568 54.767 160.427Z" stroke="#263238" stroke-width="0.75" stroke-linecap="round" stroke-linejoin="round"/>
<path d="M52.1758 167.016C52.1758 167.694 51.891 168.248 51.5418 168.248C51.1926 168.248 50.9077 167.694 50.9077 167.016C50.9077 166.338 51.1926 165.794 51.5418 165.794C51.891 165.794 52.1758 166.338 52.1758 167.016Z" fill="#263238"/>
<path d="M55.3647 165.975C55.3647 166.653 55.0798 167.207 54.7215 167.207C54.3631 167.207 54.0874 166.653 54.0874 165.975C54.0874 165.297 54.3723 164.753 54.7215 164.753C55.0706 164.753 55.3647 165.297 55.3647 165.975Z" fill="#263238"/>
<path d="M53.8942 165.326C53.8051 166.621 53.9708 167.92 54.3812 169.146C55.0704 170.98 55.5574 171.495 55.0704 172.011C54.5833 172.527 53.6001 172.212 53.6001 172.212" stroke="#263238" stroke-width="0.75" stroke-linecap="round" stroke-linejoin="round"/>
<path d="M53.2048 175.001C53.2048 175.001 51.0729 175.344 50.6318 173.387" stroke="#263238" stroke-width="0.75" stroke-linecap="round" stroke-linejoin="round"/>
<path d="M50.1724 165.125C50.2004 164.886 50.2799 164.655 50.405 164.452C50.5301 164.248 50.6976 164.076 50.8952 163.949C51.0928 163.821 51.3153 163.742 51.5465 163.715C51.7777 163.689 52.0115 163.718 52.2308 163.798" stroke="#263238" stroke-width="0.75" stroke-linecap="round" stroke-linejoin="round"/>
<path d="M53.9956 163.665C53.9956 163.665 54.5837 162.442 55.1718 163.159" stroke="#263238" stroke-width="0.75" stroke-linecap="round" stroke-linejoin="round"/>
<path d="M49.8143 161.458C46.0099 154.248 36.9493 158.364 32.2903 163.693C27.6314 169.022 26.7032 174.943 29.1843 178.381C31.6655 181.819 36.7012 184.569 42.6926 179.899C46.2948 177.092 48.2061 170.913 49.0699 166.472C49.1526 168.898 49.0056 172.555 47.6732 174.742C47.6562 174.77 47.6446 174.801 47.6391 174.833C47.6336 174.865 47.6343 174.898 47.6411 174.93C47.648 174.962 47.6608 174.992 47.6789 175.019C47.697 175.046 47.7201 175.069 47.7467 175.086C47.7891 175.096 47.8329 175.096 47.8753 175.086C47.9151 175.084 47.9539 175.072 47.9889 175.053C48.0239 175.033 48.0542 175.005 48.0775 174.971C49.9153 171.877 49.6029 166.262 49.4375 164.467C49.704 162.709 49.8143 161.458 49.8143 161.458Z" fill="#263238"/>
<path d="M33.0163 221.26C33.0163 221.26 25.8211 234.487 24.9022 240.618C23.9833 246.749 24.5346 268.208 24.5346 268.208C24.5346 268.208 26.5563 270.319 32.805 270.701C39.0537 271.083 42.2056 270.128 42.2056 270.128L42.9408 272.238C42.9408 272.238 49.3733 274.339 55.2911 272.811C61.209 271.283 63.4053 269.173 63.4053 269.173C63.4053 269.173 63.4053 252.88 58.0571 238.699C52.709 224.517 51.0549 219.732 51.0549 219.732C51.0549 219.732 43.7035 225.673 33.0163 221.26Z" fill="#92E3A9" stroke="#263238" stroke-width="0.75" stroke-linecap="round" stroke-linejoin="round"/>
<path opacity="0.2" d="M33.0163 221.26C33.0163 221.26 25.8211 234.487 24.9022 240.618C23.9833 246.749 24.5346 268.208 24.5346 268.208C24.5346 268.208 26.5563 270.319 32.805 270.701C39.0537 271.083 42.2056 270.128 42.2056 270.128L42.9408 272.238C42.9408 272.238 49.3733 274.339 55.2911 272.811C61.209 271.283 63.4053 269.173 63.4053 269.173C63.4053 269.173 63.4053 252.88 58.0571 238.699C52.709 224.517 51.0549 219.732 51.0549 219.732C51.0549 219.732 43.7035 225.673 33.0163 221.26Z" fill="black" stroke="#263238" stroke-width="0.75" stroke-linecap="round" stroke-linejoin="round"/>
<path d="M24.3145 263.996C24.3145 263.996 33.1637 269.363 42.7481 265.906" stroke="#263238" stroke-width="0.75" stroke-linecap="round" stroke-linejoin="round"/>
<path d="M35.9658 245.211L40.9372 247.703L42.968 268.016" stroke="#263238" stroke-width="0.75" stroke-linecap="round" stroke-linejoin="round"/>
<path d="M43.1523 265.142C46.0698 266.677 49.3214 267.396 52.5874 267.229C55.8533 267.061 59.021 266.013 61.779 264.188" stroke="#263238" stroke-width="0.75" stroke-linecap="round" stroke-linejoin="round"/>
<path d="M51.6157 229.846C55.9404 239.594 58.3402 250.145 58.6731 260.874" stroke="#263238" stroke-width="0.5" stroke-miterlimit="10" stroke-linecap="round"/>
<path d="M34.854 185.429C34.854 185.429 30.6177 195.59 29.3404 199.61C28.0631 203.631 27.8701 204.385 27.8701 204.385L31.1874 204.003L38.3183 182.831C38.3183 182.831 36.5172 184.092 34.854 185.429Z" fill="#92E3A9" stroke="#263238" stroke-width="0.75" stroke-linecap="round" stroke-linejoin="round"/>
<path d="M47.9489 184.092C47.9489 184.092 43.5197 191.359 42.417 194.224C41.3142 197.089 40.0186 201.129 40.0186 201.129L44.264 200.938C44.264 200.938 46.2856 192.123 50.3473 186.183L47.9489 184.092Z" fill="#92E3A9" stroke="#263238" stroke-width="0.75" stroke-linecap="round" stroke-linejoin="round"/>
<path d="M41.8655 198.655C41.8655 198.655 32.8325 198.846 30.2503 200.374C27.6681 201.902 26.3724 204.787 25.8211 209.38C25.2697 213.974 23.6064 223.18 23.6064 227.974C23.6064 232.768 30.0389 236.206 35.0379 236.569C40.0369 236.932 46.4694 235.614 48.8218 232.348C51.1743 229.082 51.0364 225.835 50.3013 222.387C49.5661 218.94 46.2396 202.074 45.1369 199.773C44.9946 199.474 44.7965 199.209 44.5544 198.99C44.3122 198.772 44.0307 198.606 43.7263 198.503C43.4218 198.399 43.1006 198.359 42.7811 198.385C42.4617 198.411 42.1504 198.503 41.8655 198.655V198.655Z" fill="#92E3A9" stroke="#263238" stroke-width="0.75" stroke-linecap="round" stroke-linejoin="round"/>
<path d="M30.25 200.375C30.25 200.375 27.8516 211.3 27.8516 216.094C27.8516 220.888 29.6894 222.779 35.203 222.989C40.7165 223.199 44.3923 221.261 44.3923 214.394C44.3923 207.528 44.3923 200.594 43.0966 199.639C41.8009 198.684 31.7202 199.42 30.25 200.375Z" fill="#92E3A9" stroke="#263238" stroke-width="0.75" stroke-linecap="round" stroke-linejoin="round"/>
<path d="M33.0166 217.621C33.0166 217.621 32.649 221.259 32.0977 226.435C31.5463 231.611 32.9155 239.681 32.9155 239.681L35.562 241.515L37.8134 239.27C37.8134 239.27 37.6296 235.823 37.6296 229.31C37.6334 225.337 37.882 221.369 38.3739 217.43L33.0166 217.621Z" fill="#92E3A9" stroke="#263238" stroke-width="0.75" stroke-linecap="round" stroke-linejoin="round"/>
<path opacity="0.1" d="M33.0166 217.621C33.0166 217.621 32.649 221.259 32.0977 226.435C31.5463 231.611 32.9155 239.681 32.9155 239.681L35.562 241.515L37.8134 239.27C37.8134 239.27 37.6296 235.823 37.6296 229.31C37.6334 225.337 37.882 221.369 38.3739 217.43L33.0166 217.621Z" fill="black" stroke="#263238" stroke-width="0.75" stroke-linecap="round" stroke-linejoin="round"/>
<path d="M32.0878 226.436C32.0878 226.436 31.3527 225.672 31.1689 227.009C30.9851 228.346 30.9851 228.738 30.8013 230.075C30.6175 231.412 31.1689 231.612 32.8322 231.612C34.4954 231.612 38.7317 232.185 39.0992 230.848C39.4668 229.511 37.8036 225.118 37.8036 225.118L37.6198 229.33L31.8489 229.1L32.0878 226.436Z" fill="white" stroke="#263238" stroke-width="0.75" stroke-linecap="round" stroke-linejoin="round"/>
<path d="M34.312 231.01C34.2581 231.011 34.2045 231.001 34.1544 230.981C34.1043 230.96 34.0586 230.929 34.0201 230.89C33.9816 230.851 33.951 230.804 33.9301 230.753C33.9092 230.701 33.8984 230.646 33.8984 230.59C33.8984 229.635 34.0638 227.839 34.073 227.725C34.0764 227.669 34.0907 227.615 34.115 227.565C34.1393 227.515 34.1731 227.471 34.2144 227.435C34.2557 227.399 34.3036 227.373 34.3551 227.357C34.4066 227.341 34.4608 227.336 34.5141 227.343C34.6206 227.355 34.7184 227.409 34.7869 227.495C34.8555 227.58 34.8895 227.69 34.8817 227.801C34.8817 227.801 34.7163 229.654 34.7163 230.552C34.7214 230.61 34.7147 230.669 34.6967 230.724C34.6787 230.78 34.6497 230.83 34.6117 230.874C34.5736 230.917 34.5273 230.951 34.4757 230.975C34.4241 230.998 34.3683 231.01 34.312 231.01V231.01Z" fill="white" stroke="#263238" stroke-width="0.5" stroke-linecap="round" stroke-linejoin="round"/>
<path d="M36.0947 155.27C32.1586 157.813 28.3521 160.567 24.6908 163.521C20.2248 167.341 18.5615 169.327 18.727 170.702C18.8924 172.078 28.9914 170.215 35.7639 167.837C42.5364 165.459 49.4835 163.378 56.5868 160.971C63.6901 158.564 69.8101 155.47 71.2896 152.901C72.7691 150.332 68.4777 150.839 58.0662 150.991C47.6548 151.144 41.0569 152.873 36.0947 155.27Z" fill="#92E3A9" stroke="#263238" stroke-width="0.75" stroke-linecap="round" stroke-linejoin="round"/>
<path opacity="0.4" d="M36.0947 155.27C32.1586 157.813 28.3521 160.567 24.6908 163.521C20.2248 167.341 18.5615 169.327 18.727 170.702C18.8924 172.078 28.9914 170.215 35.7639 167.837C42.5364 165.459 49.4835 163.378 56.5868 160.971C63.6901 158.564 69.8101 155.47 71.2896 152.901C72.7691 150.332 68.4777 150.839 58.0662 150.991C47.6548 151.144 41.0569 152.873 36.0947 155.27Z" fill="white" stroke="#263238" stroke-width="0.75" stroke-linecap="round" stroke-linejoin="round"/>
<path d="M32.4561 163.005C32.4561 163.005 30.8021 155.27 32.2907 151.669C33.7794 148.069 41.2135 145.137 45.1557 144.622C49.0979 144.106 51.5882 146.169 52.4244 147.888C53.2607 149.607 56.1002 154.248 55.898 155.957C55.6958 157.667 55.071 158.364 46.3136 161.802C37.5562 165.24 34.2756 164.896 32.4561 163.005Z" fill="#92E3A9" stroke="#263238" stroke-width="0.75" stroke-linecap="round" stroke-linejoin="round"/>
<path opacity="0.4" d="M32.4561 163.005C32.4561 163.005 30.8021 155.27 32.2907 151.669C33.7794 148.069 41.2135 145.137 45.1557 144.622C49.0979 144.106 51.5882 146.169 52.4244 147.888C53.2607 149.607 56.1002 154.248 55.898 155.957C55.6958 157.667 55.071 158.364 46.3136 161.802C37.5562 165.24 34.2756 164.896 32.4561 163.005Z" fill="white" stroke="#263238" stroke-width="0.75" stroke-linecap="round" stroke-linejoin="round"/>
<path d="M38.4932 156.024C38.8607 155.862 39.2375 155.681 39.6418 155.461" stroke="#263238" stroke-width="0.5" stroke-miterlimit="10" stroke-linecap="round"/>
<path d="M32.6855 156.549C32.6855 156.549 34.6153 157.504 37.9142 156.301" stroke="#263238" stroke-width="0.5" stroke-miterlimit="10" stroke-linecap="round"/>
<path d="M38.833 158.488C39.6714 158.185 40.4756 157.788 41.2314 157.304" stroke="#263238" stroke-width="0.5" stroke-miterlimit="10" stroke-linecap="round"/>
<path d="M34.2017 159.071C35.4782 159.207 36.768 159.097 38.006 158.746" stroke="#263238" stroke-width="0.5" stroke-miterlimit="10" stroke-linecap="round"/>
<path d="M32.8325 158.804C33.0486 158.876 33.2698 158.93 33.4941 158.966" stroke="#263238" stroke-width="0.5" stroke-miterlimit="10" stroke-linecap="round"/>
<path d="M33.4116 161.668C33.4116 161.668 35.0014 162.719 38.4841 161.516" stroke="#263238" stroke-width="0.5" stroke-miterlimit="10" stroke-linecap="round"/>
</g>
<defs>
<filter id="filter0_d" x="0" y="0" width="368" height="356" filterUnits="userSpaceOnUse" color-interpolation-filters="sRGB">
<feFlood flood-opacity="0" result="BackgroundImageFix"/>
<feColorMatrix in="SourceAlpha" type="matrix" values="0 0 0 0 0 0 0 0 0 0 0 0 0 0 0 0 0 0 127 0"/>
<feOffset dy="-4"/>
<feGaussianBlur stdDeviation="2"/>
<feColorMatrix type="matrix" values="0 0 0 0 0 0 0 0 0 0 0 0 0 0 0 0 0 0 0.25 0"/>
<feBlend mode="normal" in2="BackgroundImageFix" result="effect1_dropShadow"/>
<feBlend mode="normal" in="SourceGraphic" in2="effect1_dropShadow" result="shape"/>
</filter>
</defs>
</svg>
