<svg width="369" height="357" viewBox="0 0 369 357" fill="none" xmlns="http://www.w3.org/2000/svg">
<g filter="url(#filter0_d)">
<path d="M264.356 23.4581C264.356 23.4581 210.863 -7.51829 151.149 18.2287C91.434 43.9756 54.6833 108.403 23.6197 159.748C-7.44392 211.093 -0.869284 269.548 38.0184 302.013C76.9061 334.478 110.443 301.389 169.856 309.178C229.269 316.966 243.96 328.783 297.781 300.328C351.602 271.874 371.498 187.254 340.951 117.28C310.405 47.3068 264.356 23.4581 264.356 23.4581Z" fill="#92E3A9"/>
<path opacity="0.7" d="M264.356 23.4581C264.356 23.4581 210.863 -7.51829 151.149 18.2287C91.434 43.9756 54.6833 108.403 23.6197 159.748C-7.44392 211.093 -0.869284 269.548 38.0184 302.013C76.9061 334.478 110.443 301.389 169.856 309.178C229.269 316.966 243.96 328.783 297.781 300.328C351.602 271.874 371.498 187.254 340.951 117.28C310.405 47.3068 264.356 23.4581 264.356 23.4581Z" fill="white"/>
<path d="M303.813 177.679C302.538 172.636 302.952 166.681 302.822 165.006C302.693 163.331 300.418 161.182 298.014 163.629C296.21 165.409 294.323 167.089 292.362 168.663L290.948 168.207C290.948 168.207 291.224 167.444 291.81 165.611C292.396 163.778 294.783 159.963 296.334 157.059C297.885 154.156 299.307 152.63 300.436 149.271C301.564 145.912 302.159 142.86 301.427 141.334C300.694 139.808 299.867 142.097 298.885 144.386C297.902 146.675 295.059 150.499 292.801 153.858C290.543 157.218 287.286 162.559 285.908 165.155C284.529 167.751 283.504 169.584 283.641 175.539C283.779 181.494 281.918 192.493 280.815 198.448C279.712 204.403 273.318 217.681 269.079 224.558C264.84 231.434 260.738 251.589 260.738 251.589L239.756 225.535C240.118 221.729 240.17 216.574 238.248 213.438C234.948 208.06 225.728 208.2 213.311 201.686C200.894 195.173 194.354 190.846 194.354 190.846H186.297C186.297 190.846 179.792 195.126 167.34 201.686C154.889 208.246 145.703 208.097 142.446 213.448C139.189 218.798 141.585 229.936 141.585 230.392C141.585 230.848 135.363 279.569 135.363 279.569L145.824 293.769L152.614 244.601C152.614 244.601 154.338 255.441 157.991 261.545C160.497 265.532 163.547 269.087 167.039 272.088V318.929H213.57V272.051C217.061 269.05 220.111 265.495 222.617 261.508C226.297 255.404 227.994 244.564 227.994 244.564L230.476 241.112C231.51 242.684 233.173 245.15 235.766 248.835C241.143 256.474 250.191 264.411 252.742 267.007C255.292 269.603 255.99 274.34 260.945 273.577C265.899 272.814 267.588 264.272 271.974 257.079C276.36 249.886 278.618 243.187 280.591 235.249C282.564 227.312 283.977 212.033 285.821 206.236C287.665 200.439 291.052 187.142 291.052 187.142C292.984 186.267 294.58 184.704 295.576 182.713C297.299 179.354 297.98 169.686 297.98 169.686C297.98 169.686 298.841 174.878 299.539 177.475C300.237 180.071 302.081 184.5 303.21 185.849C304.339 187.198 305.054 187.068 305.899 186.305C306.743 185.542 305.089 182.713 303.813 177.679Z" fill="#263238" stroke="#263238" stroke-linecap="round" stroke-linejoin="round"/>
<path d="M302.822 165.006C302.684 163.322 300.418 161.182 298.014 163.629C296.21 165.409 294.323 167.089 292.361 168.663L290.948 168.207C290.948 168.207 291.224 167.444 291.81 165.611C292.396 163.778 294.783 159.963 296.334 157.059C297.885 154.156 299.307 152.63 300.435 149.271C301.564 145.912 302.159 142.86 301.426 141.334C300.694 139.808 299.867 142.097 298.884 144.386C297.902 146.675 295.058 150.499 292.801 153.858C290.543 157.218 287.286 162.559 285.907 165.155C284.529 167.751 283.503 169.584 283.641 175.539C283.779 181.494 281.918 192.493 280.815 198.448C279.712 204.403 273.318 217.681 269.079 224.558C267.725 226.986 266.622 229.566 265.787 232.253C267.528 234.395 269.724 236.048 272.187 237.07C274.65 238.093 277.306 238.455 279.927 238.125C280.18 237.182 280.43 236.223 280.677 235.249C282.65 227.303 284.063 212.033 285.907 206.236C287.751 200.439 291.138 187.142 291.138 187.142C293.07 186.267 294.666 184.704 295.662 182.713C297.385 179.354 298.066 169.686 298.066 169.686C298.066 169.686 298.927 174.878 299.625 177.475C300.323 180.071 302.167 184.5 303.296 185.849C304.425 187.198 305.14 187.068 305.985 186.305C306.829 185.542 305.123 182.639 303.865 177.605C302.607 172.571 302.96 166.681 302.822 165.006Z" fill="white" stroke="#263238" stroke-linecap="round" stroke-linejoin="round"/>
<path d="M285.571 175.688C285.571 175.688 292.921 170.04 296.179 169.733C299.436 169.426 311.448 170.198 312.439 169.891C313.429 169.584 313.3 171.566 312.301 173.092C311.301 174.618 308.906 174.469 306.355 174.32C303.804 174.171 296.877 173.855 296.877 173.855C296.877 173.855 290.509 185.309 286.407 186.072" fill="white"/>
<path d="M285.571 175.688C285.571 175.688 292.921 170.04 296.179 169.733C299.436 169.426 311.448 170.198 312.439 169.891C313.429 169.584 313.3 171.566 312.301 173.092C311.301 174.618 308.906 174.469 306.355 174.32C303.804 174.171 296.877 173.855 296.877 173.855C296.877 173.855 290.509 185.309 286.407 186.072" stroke="#263238" stroke-linecap="round" stroke-linejoin="round"/>
<path d="M145.72 285.794C145.72 285.794 145.298 283.198 136.949 277.698C128.599 272.199 123.515 268.533 122.102 266.7C121.303 265.712 120.681 264.573 120.266 263.341C120.266 263.341 121.542 261.359 121.128 255.897C120.714 250.435 119.155 247.653 119.999 243.372C120.844 239.092 122.688 234.365 121.275 234.216C119.861 234.067 117.595 234.523 116.044 238.338C114.493 242.153 115.76 246.127 116.044 247.801C116.328 249.476 113.459 256.66 113.459 256.66C113.459 256.66 113.321 257.116 106.953 252.389C100.586 247.662 96.9148 247.197 95.2173 248.416C93.5198 249.635 83.1968 256.79 83.1968 256.79C83.1968 256.79 79.8018 268.71 77.3977 271.911C74.9936 275.112 77.5442 275.726 80.0861 274.358C82.6281 272.99 84.3256 267.174 85.6009 263.518C86.3705 261.018 87.6249 258.725 89.2803 256.79C89.9869 256.185 93.8041 255.729 95.0794 255.115C95.9323 254.748 96.8626 254.641 97.7678 254.808C97.7678 254.808 102.852 260 104.265 263.666C105.678 267.333 106.953 270.841 108.935 271.762C110.917 272.683 113.881 271.604 113.881 271.604C113.881 271.604 124.489 281.839 127.884 285.961C131.279 290.083 132.123 292.065 136.793 294.661C141.464 297.258 144.006 299.249 145.703 295.89C147.401 292.531 146.565 288.25 146.565 288.25" fill="white"/>
<path d="M145.72 285.794C145.72 285.794 145.298 283.198 136.949 277.698C128.599 272.199 123.515 268.533 122.102 266.7C121.303 265.712 120.681 264.573 120.266 263.341C120.266 263.341 121.542 261.359 121.128 255.897C120.714 250.435 119.155 247.653 119.999 243.372C120.844 239.092 122.688 234.365 121.275 234.216C119.861 234.067 117.595 234.523 116.044 238.338C114.493 242.153 115.76 246.127 116.044 247.801C116.328 249.476 113.459 256.66 113.459 256.66C113.459 256.66 113.321 257.116 106.953 252.389C100.586 247.662 96.9148 247.197 95.2173 248.416C93.5198 249.635 83.1968 256.79 83.1968 256.79C83.1968 256.79 79.8018 268.71 77.3977 271.911C74.9936 275.112 77.5442 275.726 80.0861 274.358C82.6281 272.99 84.3256 267.174 85.6009 263.518C86.3705 261.018 87.6249 258.725 89.2803 256.79C89.9869 256.185 93.8041 255.729 95.0794 255.115C95.9323 254.748 96.8626 254.641 97.7678 254.808C97.7678 254.808 102.852 260 104.265 263.666C105.678 267.333 106.953 270.841 108.935 271.762C110.917 272.683 113.881 271.604 113.881 271.604C113.881 271.604 124.489 281.839 127.884 285.961C131.279 290.083 132.123 292.065 136.793 294.661C141.464 297.258 144.006 299.249 145.703 295.89C147.401 292.531 146.565 288.25 146.565 288.25" stroke="#263238" stroke-linecap="round" stroke-linejoin="round"/>
<path d="M112.063 256.009C109.362 252.345 106.993 248.409 104.988 244.256C101.878 237.687 100.749 236.468 99.3358 236.812C97.9226 237.157 96.7938 237.119 96.0872 239.604C95.3806 242.088 93.5022 247.243 93.6831 250.444C93.8641 253.645 94.5448 258.819 94.5448 261.61C94.5448 264.402 97.6555 263.899 98.0777 263.136C98.4999 262.373 98.362 258.251 98.362 253.98V248.937L99.4909 244.964C101.136 247.248 102.382 249.837 103.17 252.603C104.299 256.874 105.29 258.707 106.143 258.865" fill="white"/>
<path d="M112.063 256.009C109.362 252.345 106.993 248.409 104.988 244.256C101.878 237.687 100.749 236.468 99.3358 236.812C97.9226 237.157 96.7938 237.119 96.0872 239.604C95.3806 242.088 93.5022 247.243 93.6831 250.444C93.8641 253.645 94.5448 258.819 94.5448 261.61C94.5448 264.402 97.6555 263.899 98.0777 263.136C98.4999 262.373 98.362 258.251 98.362 253.98V248.937L99.4909 244.964C101.136 247.248 102.382 249.837 103.17 252.603C104.299 256.874 105.29 258.707 106.143 258.865" stroke="#263238" stroke-linecap="round" stroke-linejoin="round"/>
<path d="M113.476 256.585C112.524 258.315 111.766 260.161 111.219 262.084C110.503 264.829 114.045 268.951 116.449 269.258" fill="white"/>
<path d="M113.476 256.585C112.524 258.315 111.766 260.161 111.219 262.084C110.503 264.829 114.045 268.951 116.449 269.258" stroke="#263238" stroke-linecap="round" stroke-linejoin="round"/>
<path d="M213.311 201.686C200.868 195.173 194.354 190.846 194.354 190.846H186.297C186.297 190.846 179.791 195.126 167.34 201.686C166.607 202.068 165.901 202.43 165.194 202.765L187.012 225.786C187.59 226.396 188.277 226.872 189.031 227.184C189.786 227.496 190.592 227.638 191.399 227.602C192.206 227.565 192.998 227.351 193.725 226.971C194.453 226.592 195.101 226.055 195.629 225.395L214.215 202.133L213.311 201.686Z" fill="white"/>
<path opacity="0.3" d="M194.362 190.809H186.306C186.306 190.809 179.8 195.089 167.349 201.649C166.616 202.03 165.91 202.393 165.203 202.728L167.599 205.25C172.596 202.682 180.929 198.736 186.082 197.88C191.235 197.024 202.833 202.877 210.329 207.009L214.233 202.123L213.302 201.649C200.868 195.089 194.362 190.809 194.362 190.809Z" fill="black"/>
<path d="M213.311 201.686C200.868 195.173 194.354 190.846 194.354 190.846H186.297C186.297 190.846 179.791 195.126 167.34 201.686C166.607 202.068 165.901 202.43 165.194 202.765L187.012 225.786C187.59 226.396 188.277 226.872 189.031 227.184C189.786 227.496 190.592 227.638 191.399 227.602C192.206 227.565 192.998 227.351 193.725 226.971C194.453 226.592 195.101 226.055 195.629 225.395L214.215 202.133L213.311 201.686Z" stroke="#263238" stroke-linecap="round" stroke-linejoin="round"/>
<path d="M229.01 229.443C226.175 232.653 225.047 239.976 220.101 242.424C215.155 244.871 198.886 244.406 198.886 244.406C198.886 244.406 168.064 245.783 162.825 243.187C157.586 240.591 155.19 230.355 152.079 228.829C148.969 227.303 146.849 230.206 146.849 232.802C146.849 235.398 144.161 256.474 144.161 256.474C144.161 256.474 147.831 259.322 150.356 261.183L152.648 244.564C152.648 244.564 154.372 255.404 158.025 261.508C160.531 265.495 163.581 269.05 167.073 272.051V292.205H213.604V272.051C217.095 269.05 220.145 265.495 222.651 261.508C226.331 255.404 228.028 244.564 228.028 244.564L230.51 241.112C231.544 242.684 233.207 245.15 235.8 248.835C238.032 251.907 240.469 254.799 243.09 257.489L247.114 252.194C247.114 252.194 237.214 237.539 235.206 234.021C233.198 230.504 231.837 226.233 229.01 229.443Z" fill="white"/>
<g opacity="0.3">
<path opacity="0.3" d="M219.351 247.755C219.294 247.727 219.232 247.711 219.17 247.708C218.774 247.708 218.894 247.792 219.351 247.755Z" fill="black"/>
<path opacity="0.3" d="M231.759 237.194C230.096 234.114 227.959 240.274 224.633 244.377C222.436 247.094 220.238 247.671 219.351 247.755C220.652 248.183 223.659 253.012 222.496 256.688C221.307 260.531 213.948 266.43 211.096 268.998C209.062 270.859 209.562 284.491 210.019 292.205H213.595V272.05C217.086 269.049 220.136 265.495 222.642 261.508C226.322 255.404 228.019 244.563 228.019 244.563L230.501 241.111C231.535 242.684 233.198 245.15 235.792 248.834C238.023 251.906 240.46 254.799 243.081 257.488L244.736 255.311C241.737 251.3 233.129 239.725 231.759 237.194Z" fill="black"/>
<path opacity="0.3" d="M171.441 292.205C171.045 285.292 170.235 270.999 170.235 269.25C170.235 266.942 164.539 262.076 160.024 255.916C155.509 249.756 154.32 242.582 152.898 239.762C151.476 236.943 150.313 245.913 149.331 250.789C148.788 253.58 148.4 257.098 148.167 259.545L150.348 261.182L152.64 244.564C152.64 244.564 154.363 255.404 158.016 261.508C160.522 265.495 163.573 269.05 167.064 272.051V292.205H171.441Z" fill="black"/>
</g>
<path d="M229.01 229.443C226.175 232.653 225.047 239.976 220.101 242.424C215.155 244.871 198.886 244.406 198.886 244.406C198.886 244.406 168.064 245.783 162.825 243.187C157.586 240.591 155.19 230.355 152.079 228.829C148.969 227.303 146.849 230.206 146.849 232.802C146.849 235.398 144.161 256.474 144.161 256.474C144.161 256.474 147.831 259.322 150.356 261.183L152.648 244.564C152.648 244.564 154.372 255.404 158.025 261.508C160.531 265.495 163.581 269.05 167.073 272.051V292.205H213.604V272.051C217.095 269.05 220.145 265.495 222.651 261.508C226.331 255.404 228.028 244.564 228.028 244.564L230.51 241.112C231.544 242.684 233.207 245.15 235.8 248.835C238.032 251.907 240.469 254.799 243.09 257.489L247.114 252.194C247.114 252.194 237.214 237.539 235.206 234.021C233.198 230.504 231.837 226.233 229.01 229.443Z" stroke="#263238" stroke-linecap="round" stroke-linejoin="round"/>
<path d="M202.988 244.434C200.558 244.434 198.886 244.434 198.886 244.434C198.886 244.434 189.227 244.862 179.8 244.787V292.243H202.988V244.434Z" fill="#263238" stroke="#263238" stroke-linecap="round" stroke-linejoin="round"/>
<path opacity="0.07" d="M157.594 233.323C157.594 233.323 159.318 236.459 165.134 238.962C170.95 241.465 183.677 241.465 185.418 238.338C187.159 235.212 181.36 231.136 170.347 228.317C159.335 225.497 155.276 228.019 157.594 233.323Z" fill="white"/>
<path opacity="0.07" d="M223.642 233.323C223.642 233.323 221.919 236.459 216.103 238.962C210.286 241.465 197.559 241.465 195.819 238.338C194.078 235.212 199.877 231.136 210.89 228.317C221.902 225.497 225.96 228.019 223.642 233.323Z" fill="white"/>
<path opacity="0.07" d="M201.169 250.547C201.169 250.547 198.653 246.164 191.691 245.541C184.729 244.918 180.799 252.11 180.799 255.87C180.799 259.629 186.383 259.312 191.139 259.312C195.896 259.312 206.202 260.569 201.169 250.547Z" fill="white"/>
<path d="M175.698 160.27C175.698 160.27 182.204 166.839 183.333 173.557C184.462 180.275 182.204 193.712 183.195 196.457C184.186 199.202 190.407 200.281 194.647 199.36C198.886 198.439 197.335 196.615 197.335 190.501C197.335 184.388 197.895 177.986 197.895 177.986C195.818 172.769 192.441 168.275 188.141 165.006C181.213 159.962 176.827 157.366 175.698 160.27Z" fill="#CCCCCC" stroke="#263238" stroke-linecap="round" stroke-linejoin="round"/>
<path d="M183.385 185.384C183.075 190.362 182.661 194.977 183.195 196.457C184.178 199.248 190.407 200.281 194.647 199.36C198.886 198.439 197.335 196.615 197.335 190.502C197.335 189.171 197.335 187.84 197.404 186.547C192.748 187.935 187.79 187.524 183.385 185.384V185.384Z" fill="#263238" stroke="#263238" stroke-linecap="round" stroke-linejoin="round"/>
<path d="M176.543 161.182C172.094 160.987 167.784 159.453 164.1 156.753C158.301 152.333 160.421 130.95 166.926 123.776C173.432 116.602 185.022 112.778 195.775 116.137C206.529 119.496 211.191 132.932 212.035 135.994C212.88 139.055 214.439 139.809 214.164 141.791C213.986 143.007 213.653 144.191 213.173 145.308C213.173 145.308 213.311 155.227 212.311 157.674C211.311 160.121 210.898 160.27 209.769 163.322C208.64 166.374 208.046 172.944 207.081 177.215C206.115 181.486 204.814 183.477 199.325 183.635C193.837 183.793 190.709 184.398 187.029 177.066C183.35 169.733 182.643 163.015 176.543 161.182Z" fill="#CCCCCC"/>
<path opacity="0.3" d="M181.118 138.04C186.607 133.592 194.845 136.179 199.308 136.179C203.772 136.179 205.487 133.582 210.286 134.69C210.794 134.809 211.295 134.961 211.786 135.146C210.476 131.014 205.754 119.243 195.776 116.126C185.03 112.767 173.432 116.582 166.926 123.766C160.421 130.949 158.31 152.323 164.1 156.743C167.784 159.443 172.094 160.977 176.543 161.172C182.626 163.033 183.333 169.723 187.012 177.055C188.589 180.21 190.071 181.885 191.674 182.769C191.51 180.535 191.071 177.716 191.071 174.711C191.071 168.783 187.986 169.891 183.522 165.815C179.059 161.739 181.463 158.036 179.404 153.216C177.344 148.396 175.629 142.487 181.118 138.04Z" fill="black"/>
<path d="M176.543 161.182C172.094 160.987 167.784 159.453 164.1 156.753C158.301 152.333 160.421 130.95 166.926 123.776C173.432 116.602 185.022 112.778 195.775 116.137C206.529 119.496 211.191 132.932 212.035 135.994C212.88 139.055 214.439 139.809 214.164 141.791C213.986 143.007 213.653 144.191 213.173 145.308C213.173 145.308 213.311 155.227 212.311 157.674C211.311 160.121 210.898 160.27 209.769 163.322C208.64 166.374 208.046 172.944 207.081 177.215C206.115 181.486 204.814 183.477 199.325 183.635C193.837 183.793 190.709 184.398 187.029 177.066C183.35 169.733 182.643 163.015 176.543 161.182Z" stroke="#263238" stroke-linecap="round" stroke-linejoin="round"/>
<path d="M200.73 170.347H204.263" stroke="#263238" stroke-linecap="round" stroke-linejoin="round"/>
<path d="M202.419 160.576L201.29 163.014" stroke="#263238" stroke-linecap="round" stroke-linejoin="round"/>
<path d="M203.557 160.576L204.823 162.865" stroke="#263238" stroke-linecap="round" stroke-linejoin="round"/>
<path d="M193.655 137.361C193.655 137.361 201.41 135.379 205.391 136.142" stroke="#263238" stroke-linecap="round" stroke-linejoin="round"/>
<path d="M196.06 134.923C196.06 134.923 200.868 133.546 203.978 133.853" stroke="#263238" stroke-linecap="round" stroke-linejoin="round"/>
<path d="M199.877 156.297C199.877 156.297 199.308 160.27 196.766 162.103C194.224 163.936 192.242 163.322 192.242 163.322" stroke="#263238" stroke-linecap="round" stroke-linejoin="round"/>
<path d="M205.676 156.752C205.623 157.626 205.827 158.496 206.258 159.238C206.69 159.98 207.328 160.556 208.08 160.883" stroke="#263238" stroke-linecap="round" stroke-linejoin="round"/>
<path d="M197.094 159.321C198.233 158.812 199.155 157.862 199.68 156.657C200.204 155.452 200.293 154.079 199.929 152.807C199.231 150.267 198.016 147.019 196.06 145.158C192.527 141.799 186.728 142.869 184.039 147.447C181.351 152.026 181.351 155.701 187.572 158.753C189.04 159.541 190.642 159.998 192.279 160.096C193.916 160.194 195.554 159.93 197.094 159.321Z" fill="#263238" stroke="#263238" stroke-linecap="round" stroke-linejoin="round"/>
<path d="M191.381 150.146C191.381 150.544 191.271 150.933 191.066 151.263C190.861 151.594 190.57 151.852 190.23 152.003C189.889 152.155 189.514 152.195 189.153 152.116C188.792 152.038 188.46 151.846 188.2 151.564C187.94 151.282 187.764 150.923 187.693 150.532C187.622 150.142 187.66 149.737 187.802 149.37C187.945 149.003 188.184 148.69 188.492 148.47C188.799 148.25 189.16 148.134 189.528 148.136C189.772 148.136 190.014 148.188 190.239 148.289C190.464 148.39 190.669 148.538 190.841 148.725C191.013 148.912 191.15 149.133 191.242 149.377C191.335 149.621 191.382 149.882 191.381 150.146V150.146Z" fill="white"/>
<path d="M191.57 155.757C192.084 155.757 192.501 155.307 192.501 154.752C192.501 154.197 192.084 153.747 191.57 153.747C191.056 153.747 190.64 154.197 190.64 154.752C190.64 155.307 191.056 155.757 191.57 155.757Z" fill="white"/>
<path d="M213.026 143.781C213.026 143.781 211.613 142.246 208.924 145C206.236 147.754 204.547 154.621 205.676 156.752C206.805 158.883 211.053 158.613 214.017 155.822C216.981 153.03 214.586 145.149 213.026 143.781Z" fill="#263238" stroke="#263238" stroke-linecap="round" stroke-linejoin="round"/>
<path d="M210.148 150.146C210.148 150.543 210.039 150.932 209.835 151.262C209.63 151.593 209.339 151.85 208.999 152.003C208.659 152.155 208.285 152.194 207.924 152.117C207.563 152.039 207.231 151.848 206.971 151.567C206.711 151.286 206.533 150.928 206.462 150.538C206.39 150.148 206.427 149.744 206.567 149.376C206.708 149.009 206.947 148.695 207.253 148.474C207.559 148.254 207.919 148.136 208.287 148.136C208.781 148.136 209.254 148.348 209.603 148.724C209.952 149.101 210.148 149.613 210.148 150.146V150.146Z" fill="white"/>
<path d="M210.338 155.757C210.852 155.757 211.268 155.307 211.268 154.752C211.268 154.197 210.852 153.747 210.338 153.747C209.824 153.747 209.407 154.197 209.407 154.752C209.407 155.307 209.824 155.757 210.338 155.757Z" fill="white"/>
<path d="M100.318 190.874C99.2584 196.429 96.7518 201.541 93.0931 205.61C89.4344 209.679 84.7757 212.534 79.6651 213.841C74.5546 215.148 69.2047 214.852 64.2448 212.987C59.285 211.122 54.9214 207.766 51.6675 203.315" stroke="#6D6D6D" stroke-width="2" stroke-miterlimit="10"/>
<path d="M48.6088 198.085C46.8834 194.324 45.9141 190.21 45.7646 186.015C45.615 181.821 46.2885 177.639 47.7409 173.745C49.1933 169.851 51.3917 166.333 54.192 163.421C56.9922 160.509 60.331 158.27 63.9892 156.85C67.6474 155.429 71.5424 154.86 75.4186 155.18C79.2947 155.5 83.0644 156.701 86.4804 158.705C89.8963 160.709 92.8813 163.47 95.2394 166.808C97.5975 170.145 99.2755 173.983 100.163 178.07C100.656 180.342 100.902 182.669 100.896 185.003" stroke="#6D6D6D" stroke-width="2" stroke-miterlimit="10"/>
<path d="M97.1986 169.984C97.5002 170.552 97.7846 171.129 98.0603 171.724C108.22 170.794 115.053 171.594 115.63 174.283C116.647 178.936 98.5343 187.515 75.1741 193.424C51.8139 199.332 32.09 200.328 31.056 195.666C30.4787 192.968 36.2691 188.976 45.7563 184.947C45.7563 184.286 45.7563 183.635 45.808 182.984C28.402 189.404 17.0019 196.336 17.967 200.756C19.3457 207.102 45.4116 205.939 76.1995 198.16C106.987 190.381 130.821 178.927 129.451 172.581C128.486 168.189 115.432 167.388 97.1986 169.984Z" stroke="#6D6D6D" stroke-width="2" stroke-miterlimit="10"/>
<path d="M81.0679 156.316L86.238 142.675H95.8629" stroke="#6D6D6D" stroke-width="2" stroke-miterlimit="10"/>
<path d="M97.0088 130.717H104.462" stroke="#6D6D6D" stroke-width="2" stroke-miterlimit="10"/>
<path d="M97.0088 134.123H104.462" stroke="#6D6D6D" stroke-width="2" stroke-miterlimit="10"/>
<path d="M102.739 136.598L98.4395 141.548" stroke="#6D6D6D" stroke-width="2" stroke-miterlimit="10"/>
<path d="M102.739 142.786L98.4395 147.746" stroke="#6D6D6D" stroke-width="2" stroke-miterlimit="10"/>
<path d="M103.093 118.342C103.091 117.853 102.956 117.377 102.704 116.971C102.451 116.566 102.094 116.25 101.676 116.063C101.258 115.877 100.798 115.828 100.355 115.923C99.9111 116.018 99.5035 116.253 99.1832 116.598C98.8628 116.942 98.644 117.382 98.5543 117.86C98.4646 118.339 98.5081 118.836 98.6792 119.288C98.8503 119.74 99.1414 120.127 99.5158 120.401C99.8903 120.674 100.331 120.823 100.784 120.826C101.087 120.829 101.387 120.766 101.668 120.642C101.949 120.518 102.204 120.336 102.419 120.105C102.633 119.873 102.804 119.599 102.919 119.296C103.035 118.994 103.094 118.669 103.093 118.342V118.342Z" stroke="#6D6D6D" stroke-width="2" stroke-miterlimit="10"/>
<path d="M101.8 118.341C101.8 118.128 101.741 117.919 101.631 117.741C101.522 117.564 101.365 117.426 101.183 117.344C101 117.262 100.799 117.241 100.605 117.282C100.411 117.324 100.233 117.427 100.094 117.578C99.9537 117.729 99.8586 117.921 99.82 118.131C99.7814 118.34 99.8012 118.557 99.8769 118.754C99.9525 118.951 100.081 119.12 100.245 119.239C100.409 119.357 100.603 119.42 100.8 119.42C100.932 119.422 101.062 119.395 101.184 119.341C101.306 119.287 101.417 119.208 101.51 119.107C101.603 119.007 101.676 118.887 101.726 118.756C101.776 118.624 101.801 118.483 101.8 118.341Z" stroke="#6D6D6D" stroke-width="2" stroke-miterlimit="10"/>
<path d="M103.093 124.836C103.093 124.347 102.958 123.868 102.707 123.461C102.455 123.054 102.097 122.737 101.678 122.55C101.259 122.362 100.798 122.313 100.354 122.409C99.9091 122.504 99.5007 122.74 99.1801 123.086C98.8596 123.432 98.6413 123.873 98.5528 124.354C98.4644 124.834 98.5098 125.331 98.6833 125.784C98.8567 126.236 99.1505 126.622 99.5275 126.894C99.9044 127.166 100.348 127.312 100.801 127.312C101.408 127.309 101.99 127.048 102.419 126.584C102.848 126.12 103.091 125.492 103.093 124.836V124.836Z" stroke="#6D6D6D" stroke-width="2" stroke-miterlimit="10"/>
<path d="M101.8 124.836C101.802 124.622 101.744 124.412 101.636 124.234C101.527 124.055 101.371 123.915 101.189 123.832C101.006 123.749 100.805 123.726 100.611 123.767C100.416 123.807 100.237 123.909 100.097 124.06C99.956 124.211 99.8599 124.403 99.8206 124.612C99.7814 124.822 99.8006 125.04 99.876 125.237C99.9514 125.435 100.08 125.604 100.244 125.723C100.409 125.842 100.602 125.906 100.8 125.906C101.064 125.906 101.317 125.793 101.504 125.593C101.691 125.393 101.798 125.12 101.8 124.836V124.836Z" stroke="#6D6D6D" stroke-width="2" stroke-miterlimit="10"/>
<path d="M103.093 152.37C103.093 151.88 102.958 151.402 102.707 150.995C102.455 150.588 102.097 150.27 101.678 150.083C101.259 149.896 100.798 149.847 100.354 149.942C99.9091 150.038 99.5007 150.273 99.1801 150.619C98.8596 150.966 98.6413 151.407 98.5528 151.887C98.4644 152.367 98.5098 152.865 98.6833 153.317C98.8567 153.769 99.1505 154.156 99.5275 154.428C99.9044 154.7 100.348 154.845 100.801 154.845C101.409 154.845 101.992 154.584 102.422 154.12C102.851 153.656 103.093 153.026 103.093 152.37V152.37Z" stroke="#6D6D6D" stroke-width="2" stroke-miterlimit="10"/>
<path d="M101.8 152.37C101.813 152.22 101.797 152.07 101.753 151.927C101.708 151.785 101.637 151.654 101.544 151.543C101.45 151.432 101.336 151.343 101.209 151.282C101.081 151.222 100.944 151.19 100.805 151.19C100.666 151.19 100.528 151.222 100.401 151.282C100.274 151.343 100.16 151.432 100.066 151.543C99.9722 151.654 99.901 151.785 99.8569 151.927C99.8127 152.07 99.7966 152.22 99.8095 152.37C99.8326 152.638 99.9474 152.887 100.132 153.068C100.316 153.249 100.556 153.349 100.805 153.349C101.054 153.349 101.294 153.249 101.478 153.068C101.662 152.887 101.777 152.638 101.8 152.37Z" stroke="#6D6D6D" stroke-width="2" stroke-miterlimit="10"/>
<path d="M103.093 158.828C103.093 158.339 102.959 157.861 102.708 157.454C102.457 157.048 102.1 156.731 101.682 156.543C101.264 156.355 100.804 156.305 100.36 156.399C99.9159 156.493 99.5074 156.727 99.1862 157.071C98.865 157.415 98.6453 157.855 98.555 158.333C98.4646 158.812 98.5075 159.309 98.6784 159.762C98.8492 160.215 99.1403 160.602 99.515 160.877C99.8896 161.151 100.331 161.299 100.784 161.303C101.086 161.305 101.386 161.243 101.666 161.12C101.946 160.996 102.201 160.814 102.416 160.584C102.63 160.354 102.801 160.081 102.917 159.779C103.033 159.478 103.093 159.154 103.093 158.828Z" stroke="#6D6D6D" stroke-width="2" stroke-miterlimit="10"/>
<path d="M101.8 158.828C101.8 158.616 101.742 158.408 101.633 158.231C101.523 158.053 101.368 157.915 101.187 157.833C101.005 157.751 100.805 157.728 100.612 157.768C100.418 157.809 100.24 157.91 100.1 158.059C99.9592 158.208 99.8626 158.398 99.8221 158.606C99.7816 158.815 99.799 159.031 99.872 159.229C99.945 159.426 100.07 159.596 100.233 159.717C100.395 159.838 100.586 159.904 100.783 159.908C100.916 159.91 101.048 159.884 101.171 159.831C101.294 159.778 101.406 159.699 101.501 159.598C101.596 159.498 101.671 159.378 101.722 159.246C101.773 159.113 101.8 158.972 101.8 158.828V158.828Z" stroke="#6D6D6D" stroke-width="2" stroke-miterlimit="10"/>
<path opacity="0.18" d="M293.92 188.463C321.108 188.463 343.148 164.663 343.148 135.304C343.148 105.945 321.108 82.1445 293.92 82.1445C266.732 82.1445 244.692 105.945 244.692 135.304C244.692 164.663 266.732 188.463 293.92 188.463Z" stroke="#6D6D6D" stroke-width="2" stroke-miterlimit="10"/>
<path d="M292.154 110.693L296.824 112.964L298.108 115.234L300.211 116.118L300.452 118.519L299.633 119.905L297.996 120.287L294.489 118.77V118.268L296.48 117.384L295.773 114.732L292.619 113.466L291.215 111.456L292.154 110.693Z" stroke="#6D6D6D" stroke-width="2" stroke-miterlimit="10"/>
<path d="M321.597 168.989L317.858 167.351L313.299 165.583H309.68L306.294 164.82L302.554 165.75L300.452 165.881H299.159L296.712 167.397L294.377 168.402L291.215 166.262L292.033 162.726L290.051 161.796H287.716L287.363 160.661L287.596 158.39L286.777 157.125L285.14 157.376L284.674 158.641L282.693 158.762L280.969 156.492L280.271 153.468L281.995 149.932L285.381 150.183L286.32 151.067H287.725L289.448 149.932L290.965 150.444L293.067 154.352L293.886 154.222L293.653 151.318L292.955 149.811L293.188 147.41L297.496 145.391L298.074 140.739L299.943 139.101L301.469 136.198L302.632 135.947L305.32 134.086L305.441 133.071L303.571 133.202L303.218 132.187H301.934L299.943 132.699L300.883 131.052L304.967 129.796L305.906 128.661L307.543 131.452L308.595 132.587L310.232 132.085L309.525 130.438L307.078 128.577L304.269 125.171L301.348 123.022L298.548 122.519L297.143 121.003L295.273 120.5L295.04 121.003L294.808 124.669L295.273 125.925L294.222 129.963L291.887 127.944L292.231 126.176L289.784 124.92L288.733 123.534L289.31 120.379L292.705 117.727L292.938 114.694L291.654 114.824L290.835 113.689L290.482 111.828L289.664 111.698L289.198 113.717L287.914 113.968L287.328 109.558L286.389 108.925L284.761 108.162L282.891 109.176L285.226 111.567L285.691 113.717L281.486 110.311L278.6 106.775L278.367 103.37L275.325 102.355L272.99 103.984C272.433 104.355 271.858 104.694 271.267 104.998C270.343 105.239 269.404 105.406 268.458 105.501L267.949 107.706L265.261 107.827L265.493 109.213L269.802 109.976L272.025 112.628V117.011L270.732 120.919L270.974 125.088L267.699 131.266L267.001 140.478L268.053 145.782L269.569 149.82L271.293 150.072L270.707 148.052L269.776 146.536L269.19 143.744L270.241 143.493L271.878 148.034L273.05 152.072V155.347L275.265 158.251L279.237 161.405L285.312 163.173L287.182 165.034L288.586 167.053L290.689 168.449L293.274 169.203L295.859 169.072C295.859 169.072 295.738 170.338 295.738 170.933C295.738 171.529 294.101 173.725 294.101 173.725L292.817 176.247L293.757 179.038L296.342 180.173L299.961 184.212L301.598 184.965V186.826L301.805 187.71C310.895 186.124 319.388 181.807 326.311 175.251L326.371 174.32L329.525 168.133L328.008 166.997L321.597 168.989Z" stroke="#6D6D6D" stroke-width="2" stroke-miterlimit="10"/>
<path d="M333.747 119.152L332.463 116.751L330.826 113.959L330.361 110.172L332.463 110.554L332.584 109.288L331.059 109.158L332.351 108.534L333.747 107.651V106.404L332.351 104.384L332.05 101.667C325.255 92.6981 315.935 86.369 305.506 83.6415C295.076 80.9141 284.107 81.9374 274.266 86.5561L276.963 88.6125L275.325 90.8829L273.111 91.3854L272.878 94.8003L271.939 95.1725L270.767 96.5403L270.888 98.8108L272.878 99.0713L272.017 101.211H273.998L277.385 96.559L277.738 94.5398L281.012 94.2885L281.874 92.7811L285.261 92.3996L285.614 90.2502L288.061 90.1292C288.731 89.7218 289.435 89.3823 290.164 89.115C290.84 89.2731 291.506 89.4846 292.154 89.7477L293.877 91.2644H296.385L298.487 89.878L301.176 90.1292C301.56 90.4058 302.001 90.5782 302.46 90.6317C303.27 90.4249 304.054 90.1124 304.795 89.7012L308.19 91.9716L309.586 93.1068V94.9678L311.309 95.219L311.895 94.0838L313.412 94.8375L313.291 95.8518L309.784 96.8567L311.775 99.6482L315.98 102.179L317.703 104.701L320.288 104.952L320.874 103.687L321.804 103.435L318.789 100.979L316.919 100.728L318.435 100.225L317.065 98.0757L319.056 97.9547L321.641 99.4621L322.227 102.496L323.511 104.133L324.562 107.79L327.147 109.809V113.978L329.835 115.839L329.723 117.225L329.37 118.872L330.068 121.143L330.301 122.278L332.291 122.65L333.222 120.51L333.747 119.152Z" stroke="#6D6D6D" stroke-width="2" stroke-miterlimit="10"/>
<path d="M335.273 106.44V107.157L334.687 109.176L335.031 110.944L336.324 111.447V113.847L334.919 113.214L334.566 120.035L333.162 122.827L334.101 126.362L335.617 127.87V134.69L337.134 139.985L338.771 144.023L341.46 144.777L342.399 142.255L342.778 141.939C343.031 139.744 343.157 137.535 343.157 135.323C343.173 125.074 340.434 115.041 335.273 106.44V106.44Z" stroke="#6D6D6D" stroke-width="2" stroke-miterlimit="10"/>
<path d="M308.276 105.65L300.564 101.983L297.178 102.114L296.359 104.514L294.955 102.867L292.387 103.5L292.154 107.669L294.257 109.306L295.773 106.906L297.531 108.804L301.15 112.21L301.848 115.866L304.89 120.035L309.793 119.151L309.681 117.253L308.63 115.113L308.397 110.06L309.56 107.92L308.276 105.65Z" stroke="#6D6D6D" stroke-width="2" stroke-miterlimit="10"/>
<path d="M314.584 108.422L312.834 107.92L311.318 109.306L312.136 112.963H313.653L314.584 108.422Z" stroke="#6D6D6D" stroke-width="2" stroke-miterlimit="10"/>
<path d="M325.458 110.822L321.477 108.552L320.667 107.035L319.728 107.417L320.547 109.938L321.245 113.214L323.002 113.977L323.347 113.465L322.296 111.576L325.338 112.841L325.458 110.822Z" stroke="#6D6D6D" stroke-width="2" stroke-miterlimit="10"/>
<path d="M291.335 156.371L290.87 156.874L294.377 158.009L295.773 159.777L297.996 160.028L298.815 158.642L296.126 158.139L291.335 156.371Z" stroke="#6D6D6D" stroke-width="2" stroke-miterlimit="10"/>
<path d="M301.736 158.771L299.28 159.525L299.634 160.53H302.667L303.253 159.525L302.201 159.646L301.736 158.771Z" stroke="#6D6D6D" stroke-width="2" stroke-miterlimit="10"/>
<path d="M293.92 188.463C321.108 188.463 343.148 164.663 343.148 135.304C343.148 105.945 321.108 82.1445 293.92 82.1445C266.732 82.1445 244.692 105.945 244.692 135.304C244.692 164.663 266.732 188.463 293.92 188.463Z" stroke="#6D6D6D" stroke-width="2" stroke-miterlimit="10"/>
<path d="M225.65 117.81C232.064 110.884 232.064 99.6548 225.65 92.7288C219.237 85.8027 208.838 85.8027 202.424 92.7288C196.01 99.6548 196.01 110.884 202.424 117.81C208.838 124.736 219.237 124.736 225.65 117.81Z" stroke="#6D6D6D" stroke-width="2" stroke-miterlimit="10"/>
<path d="M331.136 99.8896C352.851 111.251 366.103 127.367 363.725 142.618C360.158 165.546 322.623 177.838 279.892 170.077C237.161 162.317 205.417 137.482 208.993 114.517C209.4 111.937 210.232 109.457 211.449 107.194" stroke="#6D6D6D" stroke-width="2" stroke-miterlimit="10"/>
<path d="M225.727 93.749C238.411 86.8075 257.092 83.5135 277.988 85.1326" stroke="#6D6D6D" stroke-width="2" stroke-miterlimit="10"/>
<path d="M183.323 84.1739C184.589 84.1739 185.615 83.0657 185.615 81.6988C185.615 80.3318 184.589 79.2236 183.323 79.2236C182.057 79.2236 181.031 80.3318 181.031 81.6988C181.031 83.0657 182.057 84.1739 183.323 84.1739Z" stroke="#6D6D6D" stroke-width="2" stroke-miterlimit="10"/>
<path d="M183.324 82.7779C183.876 82.7779 184.323 82.2946 184.323 81.6985C184.323 81.1024 183.876 80.6191 183.324 80.6191C182.772 80.6191 182.324 81.1024 182.324 81.6985C182.324 82.2946 182.772 82.7779 183.324 82.7779Z" stroke="#6D6D6D" stroke-width="2" stroke-miterlimit="10"/>
<path d="M183.323 103.277C184.589 103.277 185.615 102.169 185.615 100.802C185.615 99.4353 184.589 98.3271 183.323 98.3271C182.057 98.3271 181.031 99.4353 181.031 100.802C181.031 102.169 182.057 103.277 183.323 103.277Z" stroke="#6D6D6D" stroke-width="2" stroke-miterlimit="10"/>
<path d="M183.324 101.881C183.876 101.881 184.323 101.398 184.323 100.802C184.323 100.206 183.876 99.7227 183.324 99.7227C182.772 99.7227 182.324 100.206 182.324 100.802C182.324 101.398 182.772 101.881 183.324 101.881Z" stroke="#6D6D6D" stroke-width="2" stroke-miterlimit="10"/>
<path d="M185.616 107.288C185.618 106.796 185.484 106.314 185.232 105.904C184.98 105.494 184.62 105.174 184.2 104.985C183.779 104.796 183.316 104.746 182.869 104.841C182.422 104.937 182.011 105.174 181.689 105.522C181.366 105.87 181.147 106.313 181.058 106.796C180.97 107.279 181.016 107.779 181.191 108.233C181.367 108.688 181.663 109.076 182.043 109.348C182.422 109.62 182.868 109.765 183.324 109.763C183.932 109.763 184.515 109.502 184.945 109.038C185.375 108.574 185.616 107.944 185.616 107.288V107.288Z" stroke="#6D6D6D" stroke-width="2" stroke-miterlimit="10"/>
<path d="M183.324 108.367C183.876 108.367 184.323 107.884 184.323 107.287C184.323 106.691 183.876 106.208 183.324 106.208C182.772 106.208 182.324 106.691 182.324 107.287C182.324 107.884 182.772 108.367 183.324 108.367Z" stroke="#6D6D6D" stroke-width="2" stroke-miterlimit="10"/>
<path d="M183.323 90.9102C184.589 90.9102 185.615 89.8021 185.615 88.4351C185.615 87.0681 184.589 85.96 183.323 85.96C182.057 85.96 181.031 87.0681 181.031 88.4351C181.031 89.8021 182.057 90.9102 183.323 90.9102Z" stroke="#6D6D6D" stroke-width="2" stroke-miterlimit="10"/>
<path d="M183.324 89.5152C183.876 89.5152 184.323 89.0319 184.323 88.4358C184.323 87.8397 183.876 87.3564 183.324 87.3564C182.772 87.3564 182.324 87.8397 182.324 88.4358C182.324 89.0319 182.772 89.5152 183.324 89.5152Z" stroke="#6D6D6D" stroke-width="2" stroke-miterlimit="10"/>
<path d="M183.324 91.3193V98.1585" stroke="#6D6D6D" stroke-width="2" stroke-miterlimit="10"/>
<path d="M183.746 95.3672H191.079L198.403 97.6934" stroke="#6D6D6D" stroke-width="2" stroke-miterlimit="10"/>
<path d="M291.904 214.63H299.358" stroke="#6D6D6D" stroke-width="2" stroke-miterlimit="10"/>
<path d="M291.904 218.035H299.358" stroke="#6D6D6D" stroke-width="2" stroke-miterlimit="10"/>
<path d="M297.643 220.511L293.334 225.47" stroke="#6D6D6D" stroke-width="2" stroke-miterlimit="10"/>
<path d="M297.643 226.708L293.334 231.658" stroke="#6D6D6D" stroke-width="2" stroke-miterlimit="10"/>
<path d="M297.996 202.263C297.998 201.772 297.865 201.29 297.613 200.88C297.361 200.471 297.002 200.151 296.582 199.961C296.162 199.772 295.699 199.721 295.252 199.816C294.805 199.911 294.395 200.147 294.072 200.494C293.749 200.841 293.529 201.284 293.44 201.766C293.35 202.248 293.395 202.748 293.569 203.203C293.743 203.657 294.038 204.046 294.417 204.319C294.795 204.592 295.24 204.738 295.696 204.738C296.304 204.738 296.888 204.478 297.319 204.014C297.751 203.55 297.994 202.921 297.996 202.263V202.263Z" stroke="#6D6D6D" stroke-width="2" stroke-miterlimit="10"/>
<path d="M295.696 203.343C296.248 203.343 296.695 202.86 296.695 202.264C296.695 201.668 296.248 201.185 295.696 201.185C295.144 201.185 294.696 201.668 294.696 202.264C294.696 202.86 295.144 203.343 295.696 203.343Z" stroke="#6D6D6D" stroke-width="2" stroke-miterlimit="10"/>
<path d="M297.996 208.75C297.998 208.258 297.865 207.777 297.613 207.367C297.361 206.957 297.002 206.637 296.582 206.448C296.162 206.258 295.699 206.208 295.252 206.302C294.805 206.397 294.395 206.633 294.072 206.98C293.749 207.327 293.529 207.77 293.44 208.252C293.35 208.734 293.395 209.234 293.569 209.689C293.743 210.143 294.038 210.532 294.417 210.805C294.795 211.079 295.24 211.225 295.696 211.225C296.304 211.225 296.888 210.964 297.319 210.5C297.751 210.036 297.994 209.407 297.996 208.75V208.75Z" stroke="#6D6D6D" stroke-width="2" stroke-miterlimit="10"/>
<path d="M295.696 209.829C296.248 209.829 296.695 209.345 296.695 208.749C296.695 208.153 296.248 207.67 295.696 207.67C295.144 207.67 294.696 208.153 294.696 208.749C294.696 209.345 295.144 209.829 295.696 209.829Z" stroke="#6D6D6D" stroke-width="2" stroke-miterlimit="10"/>
<path d="M297.996 236.254C297.998 235.763 297.865 235.281 297.613 234.872C297.361 234.462 297.002 234.142 296.582 233.953C296.162 233.763 295.699 233.713 295.252 233.807C294.805 233.902 294.395 234.138 294.072 234.485C293.749 234.832 293.529 235.275 293.44 235.757C293.35 236.239 293.395 236.739 293.569 237.194C293.743 237.648 294.038 238.037 294.417 238.31C294.795 238.584 295.24 238.73 295.696 238.73C296.304 238.73 296.888 238.469 297.319 238.005C297.751 237.541 297.994 236.912 297.996 236.254V236.254Z" stroke="#6D6D6D" stroke-width="2" stroke-miterlimit="10"/>
<path d="M295.696 237.334C296.248 237.334 296.695 236.85 296.695 236.254C296.695 235.658 296.248 235.175 295.696 235.175C295.144 235.175 294.696 235.658 294.696 236.254C294.696 236.85 295.144 237.334 295.696 237.334Z" stroke="#6D6D6D" stroke-width="2" stroke-miterlimit="10"/>
<path d="M297.996 242.74C297.996 242.249 297.861 241.769 297.609 241.36C297.356 240.951 296.997 240.633 296.576 240.445C296.156 240.257 295.693 240.208 295.247 240.304C294.801 240.399 294.391 240.636 294.069 240.984C293.747 241.331 293.528 241.774 293.439 242.256C293.35 242.738 293.396 243.237 293.57 243.691C293.744 244.145 294.039 244.533 294.418 244.806C294.796 245.079 295.241 245.225 295.696 245.225C296.306 245.225 296.891 244.963 297.323 244.497C297.754 244.031 297.996 243.399 297.996 242.74V242.74Z" stroke="#6D6D6D" stroke-width="2" stroke-miterlimit="10"/>
<path d="M295.696 243.82C296.248 243.82 296.695 243.337 296.695 242.741C296.695 242.144 296.248 241.661 295.696 241.661C295.144 241.661 294.696 242.144 294.696 242.741C294.696 243.337 295.144 243.82 295.696 243.82Z" stroke="#6D6D6D" stroke-width="2" stroke-miterlimit="10"/>
<path d="M303.382 210.284H313.722L308.552 186.091" stroke="#6D6D6D" stroke-width="2" stroke-miterlimit="10"/>
<path d="M327.862 68.5967H45.5926C36.7791 68.5967 29.6343 76.3121 29.6343 85.8295V240.879C29.6343 250.396 36.7791 258.112 45.5926 258.112H327.862C336.676 258.112 343.821 250.396 343.821 240.879V85.8295C343.821 76.3121 336.676 68.5967 327.862 68.5967Z" stroke="#6D6D6D" stroke-width="2" stroke-miterlimit="10"/>
<path d="M39.3193 227.033H57.699" stroke="#6D6D6D" stroke-width="2" stroke-miterlimit="10"/>
<path d="M39.3193 233.24H57.699" stroke="#6D6D6D" stroke-width="2" stroke-miterlimit="10"/>
<path d="M39.3193 239.446H57.699" stroke="#6D6D6D" stroke-width="2" stroke-miterlimit="10"/>
<path d="M256.463 77.5394H198.438C197.981 77.5394 197.542 77.3433 197.219 76.9943C196.896 76.6453 196.714 76.172 196.714 75.6784C196.714 75.1848 196.896 74.7115 197.219 74.3625C197.542 74.0135 197.981 73.8174 198.438 73.8174H256.463C256.92 73.8174 257.359 74.0135 257.682 74.3625C258.005 74.7115 258.187 75.1848 258.187 75.6784C258.187 76.172 258.005 76.6453 257.682 76.9943C257.359 77.3433 256.92 77.5394 256.463 77.5394Z" stroke="#6D6D6D" stroke-width="2" stroke-miterlimit="10"/>
<path d="M169.141 77.5394H111.124C110.667 77.5394 110.228 77.3433 109.905 76.9943C109.582 76.6453 109.4 76.172 109.4 75.6784C109.4 75.1848 109.582 74.7115 109.905 74.3625C110.228 74.0135 110.667 73.8174 111.124 73.8174H169.141C169.598 73.8174 170.036 74.0135 170.359 74.3625C170.683 74.7115 170.864 75.1848 170.864 75.6784C170.864 76.172 170.683 76.6453 170.359 76.9943C170.036 77.3433 169.598 77.5394 169.141 77.5394Z" stroke="#6D6D6D" stroke-width="2" stroke-miterlimit="10"/>
<path d="M101.929 77.5394H43.9123C43.4553 77.5394 43.0169 77.3433 42.6937 76.9943C42.3705 76.6453 42.189 76.172 42.189 75.6784C42.189 75.1848 42.3705 74.7115 42.6937 74.3625C43.0169 74.0135 43.4553 73.8174 43.9123 73.8174H101.929C102.386 73.8174 102.825 74.0135 103.148 74.3625C103.471 74.7115 103.653 75.1848 103.653 75.6784C103.653 76.172 103.471 76.6453 103.148 76.9943C102.825 77.3433 102.386 77.5394 101.929 77.5394Z" stroke="#6D6D6D" stroke-width="2" stroke-miterlimit="10"/>
<path d="M325.397 77.5394H267.372C266.915 77.5394 266.476 77.3433 266.153 76.9943C265.83 76.6453 265.648 76.172 265.648 75.6784C265.648 75.1848 265.83 74.7115 266.153 74.3625C266.476 74.0135 266.915 73.8174 267.372 73.8174H325.397C325.855 73.8174 326.293 74.0135 326.616 74.3625C326.939 74.7115 327.121 75.1848 327.121 75.6784C327.121 76.172 326.939 76.6453 326.616 76.9943C326.293 77.3433 325.855 77.5394 325.397 77.5394Z" stroke="#6D6D6D" stroke-width="2" stroke-miterlimit="10"/>
<path d="M325.397 252.474H267.372C266.915 252.474 266.476 252.278 266.153 251.929C265.83 251.58 265.648 251.107 265.648 250.613C265.648 250.119 265.83 249.646 266.153 249.297C266.476 248.948 266.915 248.752 267.372 248.752H325.397C325.855 248.752 326.293 248.948 326.616 249.297C326.939 249.646 327.121 250.119 327.121 250.613C327.121 251.107 326.939 251.58 326.616 251.929C326.293 252.278 325.855 252.474 325.397 252.474Z" stroke="#6D6D6D" stroke-width="2" stroke-miterlimit="10"/>
<path d="M99.0597 252.474H41.0427C40.5856 252.474 40.1473 252.278 39.8241 251.929C39.5009 251.58 39.3193 251.107 39.3193 250.613C39.3193 250.119 39.5009 249.646 39.8241 249.297C40.1473 248.948 40.5856 248.752 41.0427 248.752H99.0597C99.5168 248.752 99.9551 248.948 100.278 249.297C100.602 249.646 100.783 250.119 100.783 250.613C100.783 251.107 100.602 251.58 100.278 251.929C99.9551 252.278 99.5168 252.474 99.0597 252.474Z" stroke="#6D6D6D" stroke-width="2" stroke-miterlimit="10"/>
<path d="M55.407 89.3184H42.7661V105.444H55.407V89.3184Z" stroke="#6D6D6D" stroke-width="2" stroke-miterlimit="10"/>
<path d="M72.6409 89.3184H60V105.444H72.6409V89.3184Z" stroke="#6D6D6D" stroke-width="2" stroke-miterlimit="10"/>
<path d="M84.0407 96.7627H77.2334V105.444H84.0407V96.7627Z" stroke="#6D6D6D" stroke-width="2" stroke-miterlimit="10"/>
<path d="M90.4427 330.216H75.7166C74.5739 330.216 73.4781 329.726 72.6701 328.853C71.8621 327.981 71.4082 326.798 71.4082 325.564V321.544C71.4082 320.31 71.8621 319.127 72.6701 318.254C73.4781 317.382 74.5739 316.891 75.7166 316.891H109.322C110.465 316.891 111.561 316.401 112.369 315.529C113.177 314.656 113.631 313.473 113.631 312.239V309.801C113.631 308.567 114.085 307.384 114.892 306.511C115.7 305.639 116.796 305.148 117.939 305.148H261.469C262.612 305.148 263.708 305.639 264.516 306.511C265.324 307.384 265.778 308.567 265.778 309.801V309.801C265.778 311.035 266.232 312.218 267.04 313.091C267.848 313.963 268.943 314.453 270.086 314.453H301.107C302.249 314.453 303.345 314.944 304.153 315.816C304.961 316.689 305.415 317.872 305.415 319.106V324.363C305.415 325.597 304.961 326.781 304.153 327.653C303.345 328.526 302.249 329.016 301.107 329.016L90.4427 330.216Z" fill="#92E3A9" stroke="#263238" stroke-linecap="round" stroke-linejoin="round"/>
<path d="M141.36 321.721H134.466C133.355 321.721 132.458 319.627 132.458 317.068V315.84C132.458 313.262 133.32 311.187 134.466 311.187H150.166C151.278 311.187 152.174 309.084 152.174 306.535V304.041C152.174 301.464 153.079 299.389 154.181 299.389H221.203C222.315 299.389 223.211 301.482 223.211 304.041C223.211 306.628 224.116 308.694 225.219 308.694H239.703C240.815 308.694 241.711 310.787 241.711 313.346V318.603C241.711 321.2 240.806 323.303 239.695 323.256L141.36 321.721Z" fill="#92E3A9" stroke="#263238" stroke-linecap="round" stroke-linejoin="round"/>
<path d="M348.947 355.999H32.9688L85.7467 322.501C87.2715 321.54 89.0049 321.033 90.7703 321.031H291.137C292.905 321.032 294.642 321.539 296.169 322.501L348.947 355.999Z" fill="#92E3A9" stroke="#263238" stroke-linecap="round" stroke-linejoin="round"/>
<path d="M290.81 356H91.1064L125.255 315.393C127.078 313.222 129.302 311.487 131.783 310.299C134.264 309.112 136.948 308.498 139.662 308.498H242.245C244.961 308.498 247.646 309.111 250.129 310.299C252.611 311.486 254.837 313.222 256.661 315.393L290.81 356Z" fill="#92E3A9" stroke="#263238" stroke-linecap="round" stroke-linejoin="round"/>
<path d="M284.649 335.314H303.235L284.312 326.195L284.649 335.314Z" fill="#263238" stroke="#263238" stroke-linecap="round" stroke-linejoin="round"/>
<path d="M288.035 341.521H306.277L308.983 351.366L288.035 341.521Z" fill="#263238" stroke="#263238" stroke-linecap="round" stroke-linejoin="round"/>
<path d="M96.3023 335.314H77.7158L96.6384 326.195L96.3023 335.314Z" fill="#263238" stroke="#263238" stroke-linecap="round" stroke-linejoin="round"/>
<path d="M92.9245 341.521H74.6741L71.9771 351.366L92.9245 341.521Z" fill="#263238" stroke="#263238" stroke-linecap="round" stroke-linejoin="round"/>
<path d="M233.758 347.021C233.758 348.407 231.681 349.524 229.122 349.524C226.563 349.524 224.486 348.407 224.486 347.021C224.486 345.634 226.563 344.518 229.122 344.518C231.681 344.518 233.758 345.643 233.758 347.021Z" fill="white" stroke="#263238" stroke-linecap="round" stroke-linejoin="round"/>
<path d="M213.284 347.021C213.284 348.407 211.208 349.524 208.649 349.524C206.089 349.524 204.013 348.407 204.013 347.021C204.013 345.634 206.089 344.518 208.649 344.518C211.208 344.518 213.284 345.643 213.284 347.021Z" fill="#263238" stroke="#263238" stroke-linecap="round" stroke-linejoin="round"/>
<path d="M192.811 347.021C192.811 348.407 190.734 349.524 188.175 349.524C185.616 349.524 183.539 348.407 183.539 347.021C183.539 345.634 185.616 344.518 188.175 344.518C190.734 344.518 192.811 345.643 192.811 347.021Z" fill="white" stroke="#263238" stroke-linecap="round" stroke-linejoin="round"/>
<path d="M172.303 347.021C172.303 348.407 170.226 349.524 167.667 349.524C165.108 349.524 163.031 348.407 163.031 347.021C163.031 345.634 165.108 344.518 167.667 344.518C170.226 344.518 172.303 345.643 172.303 347.021Z" fill="#263238" stroke="#263238" stroke-linecap="round" stroke-linejoin="round"/>
<path d="M151.863 347.021C151.863 348.407 149.787 349.524 147.228 349.524C144.668 349.524 142.592 348.407 142.592 347.021C142.592 345.634 144.66 344.518 147.228 344.518C149.795 344.518 151.863 345.643 151.863 347.021Z" fill="white" stroke="#263238" stroke-linecap="round" stroke-linejoin="round"/>
<path d="M229.458 320.668H225.003C223.15 320.668 221.444 319.691 221.186 318.491C220.927 317.319 219.273 316.379 217.472 316.379H162.247C160.455 316.379 158.8 317.309 158.542 318.491C158.283 319.691 156.568 320.668 154.724 320.668H150.261C148.417 320.668 146.625 321.664 146.263 322.911L144.884 327.61C144.488 328.959 145.746 330.067 147.727 330.067H152.484C154.449 330.067 155.801 331.192 155.491 332.607C155.181 334.049 156.568 335.231 158.602 335.231H221.143C223.168 335.231 224.589 334.049 224.245 332.607C223.943 331.192 225.296 330.067 227.261 330.067H232.009C233.973 330.067 235.24 328.959 234.852 327.61L233.473 322.911C233.103 321.664 231.311 320.668 229.458 320.668Z" fill="#263238" stroke="#263238" stroke-linecap="round" stroke-linejoin="round"/>
<path d="M248.604 316.807C248.112 316.124 247.453 315.602 246.701 315.301C245.949 315.001 245.134 314.932 244.348 315.105C242.797 315.486 242.185 316.863 242.995 318.175C243.491 318.859 244.154 319.378 244.909 319.676C245.664 319.974 246.482 320.037 247.269 319.859C248.811 319.496 249.414 318.119 248.604 316.807Z" stroke="#263238" stroke-linecap="round" stroke-linejoin="round"/>
<path d="M247.019 317.189C246.804 316.892 246.517 316.666 246.19 316.536C245.862 316.406 245.508 316.378 245.166 316.454C244.494 316.621 244.236 317.217 244.58 317.794C244.795 318.091 245.082 318.317 245.409 318.447C245.737 318.577 246.091 318.605 246.433 318.529C247.105 318.361 247.372 317.766 247.019 317.189Z" stroke="#263238" stroke-linecap="round" stroke-linejoin="round"/>
<path d="M259.841 335.185C259.346 334.501 258.685 333.981 257.932 333.681C257.178 333.382 256.362 333.316 255.575 333.491C254.024 333.873 253.421 335.25 254.222 336.562C254.717 337.245 255.378 337.766 256.132 338.065C256.885 338.365 257.701 338.43 258.488 338.255C260.039 337.883 260.642 336.506 259.841 335.185Z" stroke="#263238" stroke-linecap="round" stroke-linejoin="round"/>
<path d="M258.256 335.575C258.041 335.278 257.754 335.052 257.426 334.922C257.099 334.792 256.745 334.763 256.403 334.84C255.722 335.007 255.464 335.603 255.817 336.17C256.03 336.47 256.317 336.698 256.644 336.83C256.972 336.962 257.327 336.991 257.67 336.915C258.342 336.747 258.6 336.152 258.256 335.575Z" stroke="#263238" stroke-linecap="round" stroke-linejoin="round"/>
<path d="M263.641 341.428C263.147 340.744 262.486 340.224 261.732 339.924C260.978 339.625 260.162 339.559 259.376 339.734C257.825 340.116 257.221 341.493 258.023 342.805C258.517 343.489 259.178 344.009 259.932 344.308C260.686 344.608 261.502 344.674 262.288 344.499C263.856 344.126 264.503 342.749 263.641 341.428Z" stroke="#263238" stroke-linecap="round" stroke-linejoin="round"/>
<path d="M262.064 341.819C261.85 341.521 261.563 341.294 261.235 341.164C260.907 341.034 260.553 341.006 260.211 341.084C259.539 341.251 259.28 341.847 259.625 342.414C259.839 342.712 260.126 342.94 260.453 343.071C260.781 343.203 261.135 343.233 261.478 343.159C262.15 342.991 262.417 342.396 262.064 341.819Z" stroke="#263238" stroke-linecap="round" stroke-linejoin="round"/>
<path d="M252.568 323.283C252.074 322.6 251.413 322.079 250.659 321.78C249.905 321.481 249.089 321.415 248.303 321.59C246.752 321.962 246.149 323.339 246.95 324.661C247.444 325.344 248.105 325.865 248.859 326.164C249.613 326.463 250.429 326.529 251.215 326.354C252.766 325.973 253.37 324.605 252.568 323.283Z" stroke="#263238" stroke-linecap="round" stroke-linejoin="round"/>
<path d="M250.983 323.674C250.77 323.376 250.483 323.148 250.155 323.018C249.827 322.888 249.472 322.861 249.131 322.939C248.45 323.097 248.191 323.702 248.536 324.27C248.752 324.568 249.041 324.794 249.37 324.924C249.698 325.054 250.054 325.082 250.397 325.005C251.069 324.838 251.328 324.242 250.983 323.674Z" stroke="#263238" stroke-linecap="round" stroke-linejoin="round"/>
<path d="M251.457 326.745L255.481 333.333" stroke="#263238" stroke-linecap="round" stroke-linejoin="round"/>
<path d="M172.023 328.406C173.718 328.222 174.988 326.961 174.86 325.591C174.732 324.221 173.255 323.259 171.559 323.444C169.864 323.629 168.594 324.889 168.722 326.259C168.85 327.63 170.328 328.591 172.023 328.406Z" stroke="white" stroke-linecap="round" stroke-linejoin="round"/>
<path d="M171.88 324.827C171.564 324.796 171.248 324.888 170.99 325.088C170.731 325.288 170.549 325.582 170.476 325.916C170.476 326.512 170.993 327.005 171.725 327.005C172.042 327.037 172.36 326.944 172.619 326.745C172.879 326.545 173.063 326.251 173.138 325.916C173.164 325.311 172.621 324.827 171.88 324.827Z" stroke="white" stroke-linecap="round" stroke-linejoin="round"/>
<path d="M195.702 328.399C197.397 328.215 198.667 326.954 198.539 325.584C198.411 324.214 196.933 323.253 195.238 323.437C193.543 323.622 192.273 324.882 192.401 326.253C192.529 327.623 194.007 328.584 195.702 328.399Z" stroke="white" stroke-linecap="round" stroke-linejoin="round"/>
<path d="M195.568 324.819C195.25 324.787 194.933 324.879 194.674 325.079C194.414 325.279 194.23 325.573 194.155 325.907C194.112 326.512 194.68 326.996 195.413 326.996C195.73 327.03 196.049 326.939 196.309 326.738C196.569 326.538 196.752 326.243 196.826 325.907C196.86 325.303 196.3 324.819 195.568 324.819Z" stroke="white" stroke-linecap="round" stroke-linejoin="round"/>
<path d="M203.703 323.404C201.979 323.404 200.557 324.521 200.454 325.907C200.351 327.294 201.652 328.41 203.349 328.41C205.047 328.41 206.494 327.285 206.598 325.907C206.701 324.53 205.4 323.395 203.703 323.404Z" stroke="white" stroke-linecap="round" stroke-linejoin="round"/>
<path d="M203.599 324.819C203.282 324.787 202.966 324.88 202.708 325.08C202.45 325.28 202.268 325.574 202.194 325.907C202.151 326.503 202.711 326.996 203.444 326.996C203.761 327.028 204.078 326.936 204.338 326.736C204.597 326.536 204.782 326.242 204.857 325.907C204.9 325.302 204.34 324.819 203.599 324.819Z" stroke="white" stroke-linecap="round" stroke-linejoin="round"/>
<path d="M180.334 323.404C178.61 323.404 177.18 324.53 177.085 325.917C176.99 327.303 178.274 328.42 179.972 328.42C181.669 328.42 183.125 327.294 183.22 325.907C183.315 324.521 182.022 323.404 180.334 323.404Z" stroke="white" stroke-linecap="round" stroke-linejoin="round"/>
<path d="M180.23 324.819C179.913 324.787 179.595 324.879 179.336 325.079C179.076 325.279 178.892 325.573 178.817 325.907C178.774 326.512 179.334 326.996 180.075 326.996C180.392 327.028 180.71 326.936 180.969 326.736C181.229 326.536 181.413 326.242 181.488 325.907C181.531 325.312 180.962 324.819 180.23 324.819Z" stroke="white" stroke-linecap="round" stroke-linejoin="round"/>
<path d="M183.729 325.907H192.216" stroke="white" stroke-linecap="round" stroke-linejoin="round"/>
<path d="M137.268 319.786C138.982 319.27 140.107 317.824 139.78 316.557C139.452 315.29 137.797 314.681 136.083 315.197C134.368 315.713 133.244 317.159 133.571 318.426C133.898 319.694 135.553 320.302 137.268 319.786Z" stroke="#263238" stroke-linecap="round" stroke-linejoin="round"/>
<path d="M136.923 318.496C137.671 318.271 138.161 317.643 138.019 317.093C137.878 316.544 137.157 316.281 136.41 316.506C135.662 316.731 135.172 317.359 135.314 317.908C135.455 318.457 136.176 318.721 136.923 318.496Z" stroke="#263238" stroke-linecap="round" stroke-linejoin="round"/>
<path d="M122.627 335.184C123.124 334.493 123.793 333.967 124.555 333.667C125.317 333.368 126.142 333.307 126.935 333.491C128.486 333.872 129.089 335.25 128.288 336.562C127.79 337.253 127.122 337.779 126.36 338.079C125.598 338.378 124.773 338.439 123.98 338.255C122.429 337.883 121.825 336.506 122.627 335.184Z" stroke="#263238" stroke-linecap="round" stroke-linejoin="round"/>
<path d="M124.221 335.575C124.435 335.277 124.722 335.05 125.05 334.92C125.377 334.79 125.732 334.762 126.074 334.84C126.746 335.007 127.004 335.603 126.659 336.17C126.445 336.468 126.158 336.695 125.831 336.827C125.504 336.958 125.149 336.989 124.807 336.915C124.126 336.747 123.868 336.152 124.221 335.575Z" stroke="#263238" stroke-linecap="round" stroke-linejoin="round"/>
<path d="M118.818 341.428C119.312 340.746 119.971 340.227 120.723 339.927C121.475 339.628 122.29 339.562 123.075 339.735C124.626 340.116 125.238 341.493 124.428 342.805C123.933 343.489 123.272 344.01 122.519 344.309C121.765 344.608 120.949 344.674 120.162 344.499C118.611 344.127 118.017 342.75 118.818 341.428Z" stroke="#263238" stroke-linecap="round" stroke-linejoin="round"/>
<path d="M120.403 341.819C120.618 341.522 120.905 341.296 121.233 341.166C121.56 341.036 121.914 341.008 122.256 341.084C122.928 341.251 123.195 341.847 122.842 342.414C122.628 342.712 122.341 342.94 122.014 343.071C121.686 343.203 121.332 343.233 120.989 343.159C120.317 342.991 120.05 342.396 120.403 341.819Z" stroke="#263238" stroke-linecap="round" stroke-linejoin="round"/>
<path d="M129.899 323.284C130.397 322.592 131.065 322.067 131.827 321.767C132.59 321.467 133.415 321.406 134.207 321.59C135.759 321.963 136.362 323.34 135.56 324.661C135.066 325.345 134.405 325.865 133.651 326.165C132.898 326.464 132.081 326.53 131.295 326.355C129.701 325.973 129.098 324.605 129.899 323.284Z" stroke="#263238" stroke-linecap="round" stroke-linejoin="round"/>
<path d="M131.493 323.674C131.706 323.375 131.993 323.147 132.321 323.017C132.649 322.887 133.004 322.86 133.346 322.939C133.486 322.947 133.621 322.996 133.737 323.079C133.853 323.163 133.946 323.28 134.006 323.416C134.066 323.552 134.091 323.704 134.078 323.854C134.065 324.004 134.014 324.148 133.932 324.27C133.717 324.567 133.43 324.793 133.103 324.923C132.775 325.053 132.421 325.081 132.079 325.005C131.399 324.838 131.14 324.242 131.493 323.674Z" stroke="#263238" stroke-linecap="round" stroke-linejoin="round"/>
<path d="M131.011 326.745L126.987 333.333" stroke="#263238" stroke-linecap="round" stroke-linejoin="round"/>
</g>
<defs>
<filter id="filter0_d" x="0" y="0" width="369" height="356.5" filterUnits="userSpaceOnUse" color-interpolation-filters="sRGB">
<feFlood flood-opacity="0" result="BackgroundImageFix"/>
<feColorMatrix in="SourceAlpha" type="matrix" values="0 0 0 0 0 0 0 0 0 0 0 0 0 0 0 0 0 0 127 0"/>
<feOffset dy="-4"/>
<feGaussianBlur stdDeviation="2"/>
<feColorMatrix type="matrix" values="0 0 0 0 0 0 0 0 0 0 0 0 0 0 0 0 0 0 0.25 0"/>
<feBlend mode="normal" in2="BackgroundImageFix" result="effect1_dropShadow"/>
<feBlend mode="normal" in="SourceGraphic" in2="effect1_dropShadow" result="shape"/>
</filter>
</defs>
</svg>
