<svg width="368" height="356" viewBox="0 0 368 356" fill="none" xmlns="http://www.w3.org/2000/svg">
<g filter="url(#filter0_d)">
<path d="M38.1322 226.932C38.1322 226.932 63.6293 285.636 106.943 316.66C150.257 347.684 208.518 348.6 254.039 316.366C299.56 284.132 298.328 217.637 329.399 163.754C360.47 109.871 358.962 48.4188 302.77 19.0313C246.579 -10.3562 222.278 27.9258 154.764 31.0211C87.25 34.1164 -14.9775 88.6398 38.1322 226.932Z" fill="#92E3A9"/>
<path opacity="0.7" d="M38.1322 226.932C38.1322 226.932 63.6293 285.636 106.943 316.66C150.257 347.684 208.518 348.6 254.039 316.366C299.56 284.132 298.328 217.637 329.399 163.754C360.47 109.871 358.962 48.4188 302.77 19.0313C246.579 -10.3562 222.278 27.9258 154.764 31.0211C87.25 34.1164 -14.9775 88.6398 38.1322 226.932Z" fill="white"/>
<path d="M61.3207 264.343C60.0146 268.399 58.0554 265.374 56.9148 248.893C56.3722 241.164 55.5811 225.358 64.7056 228.115C73.4714 230.784 64.3009 254.977 64.3009 254.977L61.3207 264.343ZM73.6462 265.704C73.6462 265.704 90.4511 245.691 83.0466 240.425C75.3478 234.946 70.7856 250.147 68.6976 257.627C64.2457 273.575 65.0827 277.053 67.6858 273.637L73.6462 265.704ZM78.9443 282.025C78.9443 282.025 94.7926 269.083 89.9268 264.022C84.8586 258.757 79.0914 269.733 76.378 275.158C70.5832 286.721 70.7028 289.505 73.2047 287.246L78.9443 282.025ZM84.9322 298.249C84.9322 298.249 100.781 285.298 95.9055 280.237C90.8466 274.972 85.0794 285.956 82.366 291.382C76.5712 302.945 76.6907 305.72 79.1926 303.47L84.9322 298.249ZM52.6561 267.305C52.6561 267.305 28.0696 257.334 24.9331 265.677C21.6586 274.358 38.022 274.322 46.0335 274.162C63.1144 273.806 66.3245 272.054 62.1945 270.604L52.6561 267.305ZM57.0988 280.095C57.0988 280.095 30.9486 275.052 29.5873 283.831C28.1708 292.974 44.2031 289.79 52.0123 288.082C68.6792 284.462 71.4662 282.123 67.1155 281.5L57.0988 280.095ZM64.1629 293.864C64.1629 293.864 41.9312 290.181 40.993 297.635C40.0088 305.4 53.4932 302.349 60.0514 300.73C74.0601 297.297 76.3688 295.26 72.6712 294.824L64.1629 293.864ZM68.578 305.337C68.578 305.337 46.9073 299.325 45.1229 306.672C43.2833 314.285 57.0804 312.64 63.7398 311.706C78.0429 309.722 80.5539 307.935 76.9299 307.125L68.578 305.337ZM49.3816 246.936C49.3816 246.936 37.2953 218.829 26.8371 224.949C15.9558 231.317 30.1852 243.289 37.2861 248.964C52.417 261.141 56.8321 261.728 54.5877 257.236L49.3816 246.936Z" fill="#92E3A9"/>
<path opacity="0.4" d="M61.3207 264.343C60.0146 268.399 58.0554 265.374 56.9148 248.893C56.3722 241.164 55.5811 225.358 64.7056 228.115C73.4714 230.784 64.3009 254.977 64.3009 254.977L61.3207 264.343ZM73.6462 265.704C73.6462 265.704 90.4511 245.691 83.0466 240.425C75.3478 234.946 70.7856 250.147 68.6976 257.627C64.2457 273.575 65.0827 277.053 67.6858 273.637L73.6462 265.704ZM78.9443 282.025C78.9443 282.025 94.7926 269.083 89.9268 264.022C84.8586 258.757 79.0914 269.733 76.378 275.158C70.5832 286.721 70.7028 289.505 73.2047 287.246L78.9443 282.025ZM84.9322 298.249C84.9322 298.249 100.781 285.298 95.9055 280.237C90.8466 274.972 85.0794 285.956 82.366 291.382C76.5712 302.945 76.6907 305.72 79.1926 303.47L84.9322 298.249ZM52.6561 267.305C52.6561 267.305 28.0696 257.334 24.9331 265.677C21.6586 274.358 38.022 274.322 46.0335 274.162C63.1144 273.806 66.3245 272.054 62.1945 270.604L52.6561 267.305ZM57.0988 280.095C57.0988 280.095 30.9486 275.052 29.5873 283.831C28.1708 292.974 44.2031 289.79 52.0123 288.082C68.6792 284.462 71.4662 282.123 67.1155 281.5L57.0988 280.095ZM64.1629 293.864C64.1629 293.864 41.9312 290.181 40.993 297.635C40.0088 305.4 53.4932 302.349 60.0514 300.73C74.0601 297.297 76.3688 295.26 72.6712 294.824L64.1629 293.864ZM68.578 305.337C68.578 305.337 46.9073 299.325 45.1229 306.672C43.2833 314.285 57.0804 312.64 63.7398 311.706C78.0429 309.722 80.5539 307.935 76.9299 307.125L68.578 305.337ZM49.3816 246.936C49.3816 246.936 37.2953 218.829 26.8371 224.949C15.9558 231.317 30.1852 243.289 37.2861 248.964C52.417 261.141 56.8321 261.728 54.5877 257.236L49.3816 246.936Z" fill="white"/>
<path d="M32.2822 234.83C32.2822 234.83 58.8555 261.362 65.846 275.149C73.8852 290.99 79.9191 309.491 82.1267 324.691" stroke="#92E3A9" stroke-width="1.25197" stroke-linecap="round" stroke-linejoin="round"/>
<path d="M60.2539 266.237L61.2749 238.815" stroke="#92E3A9" stroke-width="1.25197" stroke-linecap="round" stroke-linejoin="round"/>
<path d="M65.8462 275.149L76.0285 251.356" stroke="#92E3A9" stroke-width="1.25197" stroke-linecap="round" stroke-linejoin="round"/>
<path d="M63.7856 271.902L37.939 268.94" stroke="#92E3A9" stroke-width="1.25197" stroke-linecap="round" stroke-linejoin="round"/>
<path d="M71.7329 287.708L85.2725 270.044" stroke="#92E3A9" stroke-width="1.25197" stroke-linecap="round" stroke-linejoin="round"/>
<path d="M69.1851 282.451L49.9795 283.83" stroke="#92E3A9" stroke-width="1.25197" stroke-linecap="round" stroke-linejoin="round"/>
<path d="M74.0323 295.633L59.3613 297.376" stroke="#92E3A9" stroke-width="1.25197" stroke-linecap="round" stroke-linejoin="round"/>
<path d="M77.7944 303.985L84.8034 293.196" stroke="#92E3A9" stroke-width="1.25197" stroke-linecap="round" stroke-linejoin="round"/>
<path d="M78.6958 307.721L61.4126 308.272" stroke="#92E3A9" stroke-width="1.25197" stroke-linecap="round" stroke-linejoin="round"/>
<path d="M318.141 275.914C312.567 276.323 315.381 272.668 334.945 263.631C344.144 259.388 363.082 251.072 363.984 262.795C364.848 274.046 330.972 274.918 330.972 274.918L318.141 275.914ZM322.252 290.626C322.252 290.626 354.583 300.41 357.545 289.523C360.627 278.155 339.912 280.068 329.804 281.188C308.225 283.581 304.371 286.169 309.78 287.53L322.252 290.626ZM304.776 304.341C304.776 304.341 328.029 316.375 331.929 308.441C335.985 300.187 319.861 298.746 311.959 298.186C295.109 296.994 291.779 298.435 295.706 300.232L304.776 304.341ZM287.759 318.786C287.759 318.786 311.012 330.82 314.912 322.886C318.968 314.632 302.844 313.191 294.952 312.631C278.092 311.439 274.762 312.871 278.69 314.676L287.759 318.786ZM310.488 267.375C310.488 267.375 311.15 234.617 299.45 234.937C287.299 235.275 295.026 253.953 298.981 263.026C307.416 282.38 311.067 285.262 310.938 279.819L310.488 267.375ZM296.948 278.449C296.948 278.449 290.85 246.215 279.472 248.768C267.634 251.436 279.049 268.265 284.788 276.341C297.031 293.685 301.198 295.775 299.919 290.519L296.948 278.449ZM283.436 292.983C283.436 292.983 277.513 265.854 267.956 268.274C258.013 270.791 268.066 284.764 273.116 291.506C283.887 305.897 287.456 307.579 286.251 303.158L283.436 292.983ZM271.479 303.407C271.479 303.407 268.563 275.834 258.804 277.248C248.64 278.734 257.093 293.659 261.379 300.881C270.513 316.304 273.87 318.332 273.162 313.814L271.479 303.407ZM333.888 254.078C333.888 254.078 362.558 227.101 350.178 218.02C337.3 208.574 329.344 230.472 325.701 241.225C317.92 264.236 319.263 269.546 323.715 264.876L333.888 254.078Z" fill="#92E3A9"/>
<path opacity="0.4" d="M318.141 275.914C312.567 276.323 315.381 272.668 334.945 263.631C344.144 259.388 363.082 251.072 363.984 262.795C364.848 274.046 330.972 274.918 330.972 274.918L318.141 275.914ZM322.252 290.626C322.252 290.626 354.583 300.41 357.545 289.523C360.627 278.155 339.912 280.068 329.804 281.188C308.225 283.581 304.371 286.169 309.78 287.53L322.252 290.626ZM304.776 304.341C304.776 304.341 328.029 316.375 331.929 308.441C335.985 300.187 319.861 298.746 311.959 298.186C295.109 296.994 291.779 298.435 295.706 300.232L304.776 304.341ZM287.759 318.786C287.759 318.786 311.012 330.82 314.912 322.886C318.968 314.632 302.844 313.191 294.952 312.631C278.092 311.439 274.762 312.871 278.69 314.676L287.759 318.786ZM310.488 267.375C310.488 267.375 311.15 234.617 299.45 234.937C287.299 235.275 295.026 253.953 298.981 263.026C307.416 282.38 311.067 285.262 310.938 279.819L310.488 267.375ZM296.948 278.449C296.948 278.449 290.85 246.215 279.472 248.768C267.634 251.436 279.049 268.265 284.788 276.341C297.031 293.685 301.198 295.775 299.919 290.519L296.948 278.449ZM283.436 292.983C283.436 292.983 277.513 265.854 267.956 268.274C258.013 270.791 268.066 284.764 273.116 291.506C283.887 305.897 287.456 307.579 286.251 303.158L283.436 292.983ZM271.479 303.407C271.479 303.407 268.563 275.834 258.804 277.248C248.64 278.734 257.093 293.659 261.379 300.881C270.513 316.304 273.87 318.332 273.162 313.814L271.479 303.407ZM333.888 254.078C333.888 254.078 362.558 227.101 350.178 218.02C337.3 208.574 329.344 230.472 325.701 241.225C317.92 264.236 319.263 269.546 323.715 264.876L333.888 254.078Z" fill="white"/>
<path d="M340.584 228.897C340.584 228.897 320.624 271.698 307.057 286.151C291.475 302.766 271.69 318.332 254.149 327.956" stroke="#92E3A9" stroke-width="1.25197" stroke-linecap="round" stroke-linejoin="round"/>
<path d="M315.316 275.576L349.303 263.889" stroke="#92E3A9" stroke-width="1.25197" stroke-linecap="round" stroke-linejoin="round"/>
<path d="M307.057 286.151L340.906 286.632" stroke="#92E3A9" stroke-width="1.25197" stroke-linecap="round" stroke-linejoin="round"/>
<path d="M310.046 282.274L301.556 251.348" stroke="#92E3A9" stroke-width="1.25197" stroke-linecap="round" stroke-linejoin="round"/>
<path d="M294.465 298.773L322.399 305.951" stroke="#92E3A9" stroke-width="1.25197" stroke-linecap="round" stroke-linejoin="round"/>
<path d="M299.698 293.392L289.001 272.09" stroke="#92E3A9" stroke-width="1.25197" stroke-linecap="round" stroke-linejoin="round"/>
<path d="M285.864 305.106L276.859 289.167" stroke="#92E3A9" stroke-width="1.25197" stroke-linecap="round" stroke-linejoin="round"/>
<path d="M277.42 313.324L293.894 316.277" stroke="#92E3A9" stroke-width="1.25197" stroke-linecap="round" stroke-linejoin="round"/>
<path d="M273.282 316.099L264.507 296.611" stroke="#92E3A9" stroke-width="1.25197" stroke-linecap="round" stroke-linejoin="round"/>
<path d="M240.481 279.419C238.641 282.131 237.86 279.517 240.601 267.171C241.888 261.381 244.749 249.604 250.847 253.491C256.706 257.227 244.703 273.148 244.703 273.148L240.481 279.419ZM249.238 282.923C249.238 282.923 265.941 271.636 261.646 266.264C257.185 260.678 250.525 270.916 247.361 275.985C240.619 286.801 240.481 289.523 243.139 287.548L249.238 282.923ZM249.587 295.998C249.587 295.998 264.047 289.71 261.545 285.004C258.969 280.104 252.347 286.997 249.164 290.43C242.385 297.75 241.87 299.814 244.206 298.666L249.587 295.998ZM250.452 309.135C250.452 309.135 264.911 302.847 262.409 298.142C259.834 293.241 253.211 300.134 250.029 303.567C243.259 310.887 242.744 312.951 245.071 311.804L250.452 309.135ZM233.481 279.783C233.481 279.783 217.587 267.456 213.466 272.943C209.171 278.663 221.202 281.962 227.125 283.475C239.745 286.685 242.486 286.054 239.764 284.151L233.481 279.783ZM233.96 290.083C233.96 290.083 215.849 281.055 212.933 287.228C209.907 293.659 222.379 294.584 228.487 294.922C241.52 295.651 244.077 294.495 241.014 293.143L233.96 290.083ZM236.158 301.646C236.158 301.646 220.622 294.415 218.304 299.707C215.895 305.204 226.472 305.711 231.642 305.862C242.679 306.182 244.823 305.151 242.201 304.083L236.158 301.646ZM236.903 310.976C236.903 310.976 222.25 302.198 219.371 307.214C216.364 312.435 226.822 314.018 231.954 314.703C242.891 316.162 245.126 315.353 242.643 314.018L236.903 310.976ZM235.468 264.165C235.468 264.165 232.709 241.039 223.685 243.431C214.303 245.895 222.158 257.583 226.132 263.222C234.603 275.247 237.712 276.564 237.05 272.819L235.468 264.165Z" fill="#92E3A9"/>
<path opacity="0.4" d="M240.481 279.419C238.641 282.131 237.86 279.517 240.601 267.171C241.888 261.381 244.749 249.604 250.847 253.491C256.706 257.227 244.703 273.148 244.703 273.148L240.481 279.419ZM249.238 282.923C249.238 282.923 265.941 271.636 261.646 266.264C257.185 260.678 250.525 270.916 247.361 275.985C240.619 286.801 240.481 289.523 243.139 287.548L249.238 282.923ZM249.587 295.998C249.587 295.998 264.047 289.71 261.545 285.004C258.969 280.104 252.347 286.997 249.164 290.43C242.385 297.75 241.87 299.814 244.206 298.666L249.587 295.998ZM250.452 309.135C250.452 309.135 264.911 302.847 262.409 298.142C259.834 293.241 253.211 300.134 250.029 303.567C243.259 310.887 242.744 312.951 245.071 311.804L250.452 309.135ZM233.481 279.783C233.481 279.783 217.587 267.456 213.466 272.943C209.171 278.663 221.202 281.962 227.125 283.475C239.745 286.685 242.486 286.054 239.764 284.151L233.481 279.783ZM233.96 290.083C233.96 290.083 215.849 281.055 212.933 287.228C209.907 293.659 222.379 294.584 228.487 294.922C241.52 295.651 244.077 294.495 241.014 293.143L233.96 290.083ZM236.158 301.646C236.158 301.646 220.622 294.415 218.304 299.707C215.895 305.204 226.472 305.711 231.642 305.862C242.679 306.182 244.823 305.151 242.201 304.083L236.158 301.646ZM236.903 310.976C236.903 310.976 222.25 302.198 219.371 307.214C216.364 312.435 226.822 314.018 231.954 314.703C242.891 316.162 245.126 315.353 242.643 314.018L236.903 310.976ZM235.468 264.165C235.468 264.165 232.709 241.039 223.685 243.431C214.303 245.895 222.158 257.583 226.132 263.222C234.603 275.247 237.712 276.564 237.05 272.819L235.468 264.165Z" fill="white"/>
<path d="M225.571 251.827C225.571 251.827 239.322 276.732 241.456 288.295C243.921 301.574 244.326 316.392 242.633 328.018" stroke="#92E3A9" stroke-width="1.25197" stroke-linecap="round" stroke-linejoin="round"/>
<path d="M239.285 280.593L246 260.66" stroke="#92E3A9" stroke-width="1.25197" stroke-linecap="round" stroke-linejoin="round"/>
<path d="M241.456 288.277L254.113 272.872" stroke="#92E3A9" stroke-width="1.25197" stroke-linecap="round" stroke-linejoin="round"/>
<path d="M240.647 285.476L222.296 278.04" stroke="#92E3A9" stroke-width="1.25197" stroke-linecap="round" stroke-linejoin="round"/>
<path d="M243.047 298.71L256.835 288.481" stroke="#92E3A9" stroke-width="1.25197" stroke-linecap="round" stroke-linejoin="round"/>
<path d="M242.321 294.326L227.907 291.436" stroke="#92E3A9" stroke-width="1.25197" stroke-linecap="round" stroke-linejoin="round"/>
<path d="M243.011 304.99L231.854 303.291" stroke="#92E3A9" stroke-width="1.25197" stroke-linecap="round" stroke-linejoin="round"/>
<path d="M243.958 311.901L251.454 305.399" stroke="#92E3A9" stroke-width="1.25197" stroke-linecap="round" stroke-linejoin="round"/>
<path d="M243.81 314.828L230.988 311.715" stroke="#92E3A9" stroke-width="1.25197" stroke-linecap="round" stroke-linejoin="round"/>
<path d="M35.6856 301.103C36.2467 303.674 34.2507 302.615 28.4927 294.059C25.7517 290.092 20.426 281.793 26.2116 280.646C31.7304 279.516 34.3703 295.251 34.3703 295.251L35.6856 301.103ZM42.7589 298.239C42.7589 298.239 45.5736 282.549 39.9443 281.864C34.076 281.162 36.3663 290.688 37.5712 295.331C40.1467 305.23 41.6828 306.894 42.0139 304.225L42.7589 298.239ZM50.7153 305.497C50.7153 305.497 55.2132 293.89 51.0096 292.582C46.6405 291.222 46.9533 298.809 47.1832 302.544C47.6707 310.469 48.5997 311.937 49.2436 309.989L50.7153 305.497ZM58.9936 312.497C58.9936 312.497 63.4914 300.89 59.2879 299.582C54.9188 298.222 55.2316 305.809 55.4615 309.544C55.949 317.469 56.878 318.937 57.5219 316.989L58.9936 312.497ZM31.9144 305.204C31.9144 305.204 15.551 306.983 16.4616 312.417C17.3814 318.056 26.2208 313.262 30.4887 310.834C39.5856 305.666 40.7722 303.781 38.0863 304.208L31.9144 305.204ZM38.3531 310.807C38.3531 310.807 22.7163 315.717 24.6847 320.849C26.7727 326.186 34.4163 319.8 38.1047 316.598C45.9599 309.784 46.7325 307.703 44.1939 308.637L38.3531 310.807ZM46.4566 316.144C46.4566 316.144 33.3217 320.645 35.1429 324.941C36.9825 329.388 43.3476 323.829 46.383 321.045C52.8217 315.103 53.4747 313.333 51.3408 314.178L46.4566 316.144ZM52.4169 321.045C52.4169 321.045 38.8314 324.229 40.1651 328.676C41.554 333.319 48.4434 328.418 51.7731 325.955C58.874 320.716 59.665 319.017 57.4575 319.64L52.4169 321.045ZM23.8017 295.215C23.8017 295.215 8.51447 283.59 4.78924 289.941C0.90765 296.549 12.3133 298.835 17.9241 299.858C29.8816 302.002 32.4479 301.032 29.8816 299.262L23.8017 295.215Z" fill="#92E3A9"/>
<path opacity="0.4" d="M35.6856 301.103C36.2467 303.674 34.2507 302.615 28.4927 294.059C25.7517 290.092 20.426 281.793 26.2116 280.646C31.7304 279.516 34.3703 295.251 34.3703 295.251L35.6856 301.103ZM42.7589 298.239C42.7589 298.239 45.5736 282.549 39.9443 281.864C34.076 281.162 36.3663 290.688 37.5712 295.331C40.1467 305.23 41.6828 306.894 42.0139 304.225L42.7589 298.239ZM50.7153 305.497C50.7153 305.497 55.2132 293.89 51.0096 292.582C46.6405 291.222 46.9533 298.809 47.1832 302.544C47.6707 310.469 48.5997 311.937 49.2436 309.989L50.7153 305.497ZM58.9936 312.497C58.9936 312.497 63.4914 300.89 59.2879 299.582C54.9188 298.222 55.2316 305.809 55.4615 309.544C55.949 317.469 56.878 318.937 57.5219 316.989L58.9936 312.497ZM31.9144 305.204C31.9144 305.204 15.551 306.983 16.4616 312.417C17.3814 318.056 26.2208 313.262 30.4887 310.834C39.5856 305.666 40.7722 303.781 38.0863 304.208L31.9144 305.204ZM38.3531 310.807C38.3531 310.807 22.7163 315.717 24.6847 320.849C26.7727 326.186 34.4163 319.8 38.1047 316.598C45.9599 309.784 46.7325 307.703 44.1939 308.637L38.3531 310.807ZM46.4566 316.144C46.4566 316.144 33.3217 320.645 35.1429 324.941C36.9825 329.388 43.3476 323.829 46.383 321.045C52.8217 315.103 53.4747 313.333 51.3408 314.178L46.4566 316.144ZM52.4169 321.045C52.4169 321.045 38.8314 324.229 40.1651 328.676C41.554 333.319 48.4434 328.418 51.7731 325.955C58.874 320.716 59.665 319.017 57.4575 319.64L52.4169 321.045ZM23.8017 295.215C23.8017 295.215 8.51447 283.59 4.78924 289.941C0.90765 296.549 12.3133 298.835 17.9241 299.858C29.8816 302.002 32.4479 301.032 29.8816 299.262L23.8017 295.215Z" fill="white"/>
<path d="M10.8232 293.703C10.8232 293.703 33.4321 300.214 41.4989 305.648C50.6702 311.756 58.843 319.159 65.745 327.609" stroke="#92E3A9" stroke-width="1.25197" stroke-linecap="round" stroke-linejoin="round"/>
<path d="M35.704 302.473L27.7017 287.388" stroke="#92E3A9" stroke-width="1.25197" stroke-linecap="round" stroke-linejoin="round"/>
<path d="M41.4985 305.648L39.5669 289.843" stroke="#92E3A9" stroke-width="1.25197" stroke-linecap="round" stroke-linejoin="round"/>
<path d="M39.3831 304.501L24.519 310.443" stroke="#92E3A9" stroke-width="1.25197" stroke-linecap="round" stroke-linejoin="round"/>
<path d="M48.6001 310.701L50.3845 297.226" stroke="#92E3A9" stroke-width="1.25197" stroke-linecap="round" stroke-linejoin="round"/>
<path d="M45.5825 308.61L35.6577 314.961" stroke="#92E3A9" stroke-width="1.25197" stroke-linecap="round" stroke-linejoin="round"/>
<path d="M52.3061 314.303L44.9385 319.524" stroke="#92E3A9" stroke-width="1.25197" stroke-linecap="round" stroke-linejoin="round"/>
<path d="M56.9424 317.709L57.3563 309.847" stroke="#92E3A9" stroke-width="1.25197" stroke-linecap="round" stroke-linejoin="round"/>
<path d="M58.5984 319.462L49.4463 324.799" stroke="#92E3A9" stroke-width="1.25197" stroke-linecap="round" stroke-linejoin="round"/>
<path d="M184.299 356C253.021 356 308.731 349.768 308.731 342.08C308.731 334.392 253.021 328.16 184.299 328.16C115.577 328.16 59.8672 334.392 59.8672 342.08C59.8672 349.768 115.577 356 184.299 356Z" fill="#263238"/>
<path d="M144.407 131.467C144.407 131.467 140.396 121.505 130.674 116.933C120.952 112.362 96.1904 125.632 93.9276 131.245C91.6649 136.857 100.21 135.594 98.0484 139.703C95.8868 143.813 67.1428 150.786 63.39 159.912C59.6372 169.038 68.1362 172.96 66.5817 177.407C65.0273 181.855 54.7162 190.295 59.3704 199.999C64.0247 209.703 84.8399 203.762 91.2234 202.054C97.6069 200.346 94.1668 204.971 96.4295 208.449C98.6922 211.927 115.129 207.898 120.814 202.81C126.498 197.722 124.134 208.52 129.681 207.088C131.704 206.572 136.45 196.78 141.031 180.405C145.612 164.03 148.73 146.01 144.407 131.467Z" fill="#263238"/>
<path d="M115.23 258.081C115.23 258.081 110.567 261.808 104.533 267.803C98.4991 273.797 89.4942 294.273 87.3142 297.448C85.1343 300.623 80.4617 304.564 80.4617 304.564C80.4617 304.564 72.1834 304.03 71.8063 305.907C71.4292 307.783 71.19 311.306 70.0862 313.129C68.9825 314.952 66.8577 317.416 67.8603 320.556C68.8629 323.696 70.123 326.853 71.8891 326.017C73.6551 325.181 74.2254 324.043 75.7338 319.88C77.2423 315.717 89.6046 306.814 93.9277 300.944C98.2508 295.073 114.485 279.552 116.592 277.329C118.698 275.105 122.111 275.79 123.463 266.415C124.815 257.04 119.839 255.066 115.23 258.081Z" fill="white" stroke="#263238" stroke-linecap="round" stroke-linejoin="round"/>
<path d="M116.592 277.338C118.707 275.105 122.111 275.799 123.463 266.424C124.815 257.049 119.839 255.066 115.23 258.081C115.23 258.081 110.567 261.808 104.533 267.803C99.2073 273.086 91.5913 289.603 88.3628 295.634C89.9534 297.675 92.1473 299.201 94.6543 300.01C99.8144 293.57 114.587 279.455 116.592 277.338Z" fill="#92E3A9" stroke="#263238" stroke-miterlimit="10"/>
<path d="M76.6629 309.998L78.8336 304.51C76.4053 304.457 72.073 304.564 71.8063 305.907C71.4384 307.775 71.19 311.306 70.0862 313.129C68.9825 314.953 66.8577 317.416 67.8603 320.556C68.8629 323.696 70.123 326.845 71.8891 326.017C73.6551 325.19 74.2254 324.043 75.7338 319.88C76.4145 318.012 79.2659 315.202 82.5956 312.133C80.3881 309.883 76.6629 309.998 76.6629 309.998Z" fill="#B2B2B2" stroke="#263238" stroke-linecap="round" stroke-linejoin="round"/>
<path d="M128.025 159.121C128.025 159.121 117.999 157.173 115.148 162.554C112.297 167.935 121.357 192.057 121.743 194.681C122.129 197.305 109.482 205.754 105.959 215.138C102.436 224.522 104.717 233.043 108.866 245.175C113.014 257.307 117.217 263.133 116.068 268.621C114.918 274.109 115.01 281.162 116.988 286.481C118.965 291.8 129.644 316.954 129.414 320.28C129.184 323.607 125.036 328.152 125.128 329.637C125.22 331.123 133.13 335.908 135.991 338.87C138.851 341.832 144.481 343.682 144.977 342.045C145.474 340.409 140.424 335.819 139.569 331.496C138.713 327.174 135.742 317.532 135.181 311.75C134.62 305.969 130.472 274.393 129.938 270.996C129.626 268.16 129.567 265.303 129.764 262.457C129.764 262.457 139.882 245.878 141.592 232.634C143.303 219.39 144.545 200.943 145.805 196.575C147.065 192.208 149.852 182.344 149.852 182.344C150.979 177.249 151.289 172.018 150.772 166.832C149.751 159.352 138.355 157.875 134.685 158.195C131.015 158.516 128.025 159.121 128.025 159.121Z" fill="white" stroke="#263238" stroke-linecap="round" stroke-linejoin="round"/>
<path d="M134.611 307.152C133.323 296.479 130.343 273.851 129.892 271.022C129.579 268.186 129.521 265.329 129.717 262.484C129.717 262.484 139.835 245.904 141.546 232.66C142.052 228.702 142.512 224.282 142.953 219.906C136 219.63 121.632 218.127 108.203 210.815C107.294 212.184 106.538 213.642 105.949 215.165C102.417 224.575 104.708 233.07 108.856 245.202C113.004 257.334 117.208 263.16 116.058 268.648C114.908 274.136 115 281.189 116.978 286.508C118.146 289.728 122.543 300.232 125.781 308.744C128.821 309.045 131.887 308.492 134.611 307.152Z" fill="#92E3A9"/>
<path opacity="0.3" d="M130.417 222.449C129.313 229.565 127.096 225.66 126.351 224.228C125.606 222.796 118.597 214.222 118.993 217.441C119.388 220.661 124.162 256.72 126.351 268.14C128.246 277.924 131.208 296.202 132.955 307.81C133.498 307.614 134.041 307.401 134.611 307.134C133.323 296.46 130.343 273.833 129.892 271.004C129.58 268.168 129.521 265.311 129.718 262.465C129.718 262.465 139.836 245.886 141.546 232.642C142.052 228.684 142.512 224.263 142.954 219.887C138.941 219.716 134.946 219.276 130.996 218.571C130.803 219.95 130.61 221.248 130.417 222.449Z" fill="#263238"/>
<path d="M126.517 229.235C126.517 229.235 128.679 251.143 129.102 259.21" stroke="#263238" stroke-linecap="round" stroke-linejoin="round"/>
<path d="M134.611 307.152C133.323 296.479 130.343 273.851 129.892 271.022C129.579 268.186 129.521 265.329 129.717 262.484C129.717 262.484 139.835 245.904 141.546 232.66C142.052 228.702 142.512 224.282 142.953 219.906C136 219.63 121.632 218.127 108.203 210.815C107.294 212.184 106.538 213.642 105.949 215.165C102.417 224.575 104.708 233.07 108.856 245.202C113.004 257.334 117.208 263.16 116.058 268.648C114.908 274.136 115 281.189 116.978 286.508C118.146 289.728 122.543 300.232 125.781 308.744C128.821 309.045 131.887 308.492 134.611 307.152Z" stroke="#263238" stroke-miterlimit="10"/>
<path d="M105.177 217.566C109.776 222.325 121.255 230.997 142.154 227.581C143.542 215.129 144.655 200.435 145.759 196.602C147.019 192.235 149.806 182.37 149.806 182.37C150.933 177.276 151.243 172.044 150.726 166.858C149.705 159.378 138.309 157.902 134.639 158.222C130.969 158.542 128.062 159.111 128.062 159.111C128.062 159.111 118.036 157.163 115.185 162.545C112.333 167.926 121.393 192.048 121.78 194.672C122.166 197.295 109.519 205.745 105.996 215.129C105.646 215.974 105.398 216.774 105.177 217.566Z" fill="#808080"/>
<path opacity="0.3" d="M150.689 166.885C149.668 159.405 138.272 157.928 134.602 158.248C130.932 158.568 128.025 159.138 128.025 159.138C128.025 159.138 127.565 159.049 126.82 158.96L127.832 163.896C127.832 163.896 139.283 174.614 139.651 180.68C140.019 186.746 135.218 191.754 134.133 198.185C133.047 204.615 131.548 215.324 130.453 222.467C129.359 229.609 127.133 225.678 126.388 224.246C125.643 222.814 118.634 214.239 119.029 217.459C119.14 218.348 119.581 221.8 120.225 226.54C125.937 228.319 133.204 229.066 142.218 227.59C143.607 215.138 144.72 200.444 145.823 196.61C147.083 192.243 149.87 182.379 149.87 182.379C150.961 177.285 151.237 172.06 150.689 166.885V166.885Z" fill="#263238"/>
<path d="M105.177 217.566C109.776 222.325 121.255 230.997 142.154 227.581C143.542 215.129 144.655 200.435 145.759 196.602C147.019 192.235 149.806 182.37 149.806 182.37C150.933 177.276 151.243 172.044 150.726 166.858C149.705 159.378 138.309 157.902 134.639 158.222C130.969 158.542 128.062 159.111 128.062 159.111C128.062 159.111 118.036 157.163 115.185 162.545C112.333 167.926 121.393 192.048 121.78 194.672C122.166 197.295 109.519 205.745 105.996 215.129C105.646 215.974 105.398 216.774 105.177 217.566Z" stroke="#263238" stroke-linecap="round" stroke-linejoin="round"/>
<path d="M122.754 154.886C123.543 156.46 124.139 158.116 124.53 159.823C124.778 161.691 126.857 164.982 129.929 167.588C133.001 170.194 134.905 167.721 134.767 164.19C134.629 160.659 132.716 152.191 132.716 152.191C132.716 152.191 126.36 155.491 122.754 154.886Z" fill="white" stroke="#263238" stroke-linecap="round" stroke-linejoin="round"/>
<path d="M113.943 141.002C113.662 140.956 113.373 140.97 113.099 141.045C112.824 141.12 112.57 141.253 112.355 141.434C112.141 141.615 111.97 141.841 111.857 142.094C111.743 142.347 111.689 142.621 111.698 142.897C111.551 145.111 115.506 146.107 115.506 146.107L113.943 141.002Z" fill="white" stroke="#263238" stroke-linecap="round" stroke-linejoin="round"/>
<path d="M127.758 126.851C127.758 126.851 121.145 136.635 114.219 139.694C114.219 139.694 115.139 150.688 119.158 154.281C123.178 157.875 129.69 157.19 133.535 154.281C137.38 151.373 135.715 133.824 135.715 133.824C135.715 133.824 129.782 130.871 127.758 126.851Z" fill="white"/>
<path opacity="0.3" d="M127.758 126.851L127.574 127.109L127.657 128.372C130.205 133.953 131.574 139.971 131.686 146.072C131.752 148.019 131.41 149.96 130.68 151.776C129.95 153.592 128.846 155.246 127.436 156.638C129.651 156.399 131.759 155.584 133.534 154.281C137.379 151.382 135.714 133.824 135.714 133.824C135.714 133.824 129.782 130.871 127.758 126.851Z" fill="#263238"/>
<path d="M127.758 126.851C127.758 126.851 121.145 136.635 114.219 139.694C114.219 139.694 115.139 150.688 119.158 154.281C123.178 157.875 129.69 157.19 133.535 154.281C137.38 151.373 135.715 133.824 135.715 133.824C135.715 133.824 129.782 130.871 127.758 126.851Z" stroke="#263238" stroke-linecap="round" stroke-linejoin="round"/>
<path d="M123.104 138.778C123.31 139.696 123.31 140.645 123.104 141.562C122.782 143.395 121.209 144.035 123.481 144.364" stroke="#263238" stroke-linecap="round" stroke-linejoin="round"/>
<path d="M121.559 147.229C121.559 147.229 125.238 148.954 129.837 144.24" stroke="#263238" stroke-linecap="round" stroke-linejoin="round"/>
<path d="M116.398 141.5C116.398 141.5 117.898 139.187 121.062 140.504" stroke="#263238" stroke-linecap="round" stroke-linejoin="round"/>
<path d="M126.857 139.952C126.857 139.952 130.536 137.035 133.424 139.259" stroke="#263238" stroke-linecap="round" stroke-linejoin="round"/>
<path d="M125.698 134.5C126.433 133.568 127.506 132.939 128.7 132.741C129.895 132.543 131.123 132.791 132.137 133.433" stroke="#263238" stroke-linecap="round" stroke-linejoin="round"/>
<path d="M245.973 207.723C290.272 193.032 313.868 146.396 298.675 103.558C283.482 60.721 235.254 37.9043 190.955 52.5959C146.655 67.2874 123.06 113.924 138.253 156.761C153.446 199.598 201.674 222.415 245.973 207.723Z" fill="#92E3A9"/>
<path d="M206.972 93.7715L215.618 95.5059L218.562 98.4589L222.397 99.0281L223.621 102.559L222.728 104.943L220.107 106.099L213.687 105.085L213.512 104.329L216.547 102.284L214.459 98.5389L208.72 97.7829L205.657 95.248L206.972 93.7715Z" fill="#8F8F8F"/>
<path d="M276.629 170.905L269.777 169.793L261.498 168.779L255.409 170.087L249.449 170.167L243.47 172.835L239.975 173.787L237.813 174.249L234.217 177.469L230.639 179.835L224.596 177.745L224.752 172.132L221.073 171.519L217.145 172.408L216.152 170.736L215.766 167.232L213.926 165.622L211.258 166.591L210.909 168.664L207.616 169.553L203.946 166.796L201.72 162.482L203.449 156.532L209.235 155.687L211.075 156.683L213.429 156.176L215.986 153.836L218.746 154.041L223.639 159.173L224.973 158.693L223.575 154.406L221.873 152.378L221.432 148.687L228.008 144.079L227.374 136.848L229.949 133.699L231.503 128.781L233.343 127.98L237.206 124.155L237.05 122.599L233.95 123.488L233.03 122.092L230.869 122.563L227.705 124.04L228.707 121.229L235.146 117.849L236.332 115.804L240.012 119.361L242.173 120.687L244.749 119.335L243.001 117.12L238.227 115.208L232.34 111.089L226.684 108.91L221.8 109.168L218.911 107.389L215.6 107.309L215.379 108.199L216.253 113.784L217.476 115.519L217.099 121.976L212.473 119.655V116.871L207.874 115.857L205.62 114.149L205.519 109.186L210.293 103.974L209.64 99.3308L207.524 99.989L205.758 98.5748L204.516 95.8442L203.091 95.9509L203.008 99.1619L200.929 100.007L198.427 93.5672L196.588 92.9535L193.58 92.402L190.82 94.599L195.64 97.4185L197.167 100.478L188.889 96.8671L182.8 92.7934L181.227 87.7502L175.772 87.3232L172.415 90.6409C171.589 91.4039 170.72 92.1225 169.812 92.7934C168.344 93.4914 166.825 94.0859 165.268 94.5723V97.97L160.789 99.1352L161.662 101.136L169.196 100.718L173.841 103.903L175.368 110.556L174.558 116.906L176.398 123.133L173.031 133.628L175.036 147.744L178.633 155.349L182.588 160.881L185.623 160.623L183.959 157.723L181.861 155.784L179.921 151.817L181.604 151.052L185.927 157.279L189.284 162.936L190.416 167.872L195.153 171.43L202.925 174.747L213.751 175.21L217.55 177.389L220.604 179.924L224.623 181.249L229.222 181.463L233.499 180.342C233.499 180.342 233.739 182.29 233.959 183.233C234.18 184.176 232.166 188.009 232.166 188.009L230.878 192.27L233.417 196.112L238.126 196.895L245.613 201.662L248.621 202.214L249.283 205.06L249.927 206.314C264.658 200.655 277.444 191.099 286.821 178.741L286.609 177.336L289.737 166.903L286.793 165.737L276.629 170.905Z" fill="#8F8F8F"/>
<path d="M279.83 91.4861L276.859 88.3374L273.18 84.7796L271.083 79.2561L274.762 79.0604L274.523 77.1214L271.92 77.4772L273.861 76.063L275.921 74.2307L275.48 72.3273L272.426 69.8012L270.982 65.8165C256.46 54.7613 238.603 48.5931 220.125 48.2495C201.646 47.906 183.557 53.4058 168.607 63.913L173.85 66.0477L171.882 70.0592L168.322 71.6246L169.104 76.8457L167.66 77.7351L166.179 80.2434L167.163 83.6233L170.585 83.2853L169.95 86.8431L173.289 86.1227L177.373 77.8774L177.272 74.711L182.68 73.1456L183.535 70.575L189.1 68.7961L188.944 65.4429L193.028 64.3667C194.016 63.5101 195.084 62.7448 196.22 62.0808C197.408 62.0777 198.594 62.158 199.77 62.3209L203.247 63.9664L207.368 63.077L210.422 60.2307L215.021 59.6348C215.763 59.9134 216.564 60.017 217.357 59.9372C218.341 59.7237 220.981 57.758 220.981 57.758L227.466 59.955L230.225 61.1646L230.878 64.0109L233.913 63.7529L234.502 61.8406L237.317 62.4277L237.473 63.9931L231.954 66.7771L236.25 70.2371L244.197 72.514L248.014 75.6805L252.429 75.1379L252.972 73.0299L254.453 72.3095L248.474 69.6411L245.245 69.9346L247.628 68.6271L244.528 65.9054L247.821 65.016L252.668 66.3679L254.701 70.7174L257.461 72.7186L260.496 77.8508L265.518 79.9588L266.953 86.2294L272.131 88.115L272.407 90.2408V92.838L274.376 96.0045L275.158 97.6322L278.625 97.481L279.462 93.9232L279.83 91.4861Z" fill="#8F8F8F"/>
<path d="M277.991 71.793L278.239 72.887L277.954 76.1335L279.159 78.6684L281.495 78.962L282.323 82.5731L279.748 82.1284L281.514 92.5172L280.116 97.2046L282.875 102.186L285.947 103.911L288.302 114.175L292.689 121.602L296.838 127.09L301.621 127.259L302.32 123.123L302.844 122.501C302.51 119.109 301.96 115.741 301.198 112.414C297.689 96.988 289.628 82.8773 277.991 71.793V71.793Z" fill="#8F8F8F"/>
<path d="M232.341 80.3497L218.102 77.6279L212.454 79.0422L211.902 82.9468L208.977 80.9812L204.875 82.8579L205.924 89.2175L210.026 90.9252L211.755 86.7626L215.352 88.9773L222.618 92.802L225.065 98.0586L231.614 103.235L239.561 100.131L238.706 97.3204L236.195 94.4742L234.061 86.9583L235.284 83.3026L232.341 80.3497Z" fill="#8F8F8F"/>
<path d="M243.903 82.2534L240.784 82.1289L238.706 84.7617L241.345 89.9739L243.903 89.4313V82.2534Z" fill="#8F8F8F"/>
<path d="M263.007 81.9417L255.538 79.9582L253.643 77.9658L252.199 78.8731L254.444 82.3775L256.761 87.0649L259.972 87.5719L260.386 86.6913L257.957 84.2187L263.504 85.0192L263.007 81.9417Z" fill="#8F8F8F"/>
<path d="M221.385 162.838L220.778 163.763L227.061 164.208L230.032 166.36L233.849 165.942L234.75 163.558L230.05 163.772L221.385 162.838Z" fill="#8F8F8F"/>
<path d="M239.699 162.695L235.836 164.714L236.774 166.111L241.888 165.017L242.514 163.282L240.794 163.852L239.699 162.695Z" fill="#8F8F8F"/>
<path d="M206.972 93.7715L215.618 95.5059L218.562 98.4589L222.397 99.0281L223.621 102.559L222.728 104.943L220.107 106.099L213.687 105.085L213.512 104.329L216.547 102.284L214.459 98.5389L208.72 97.7829L205.657 95.248L206.972 93.7715Z" stroke="#263238" stroke-miterlimit="10"/>
<path d="M276.629 170.905L269.777 169.793L261.498 168.779L255.409 170.087L249.449 170.167L243.47 172.835L239.975 173.787L237.813 174.249L234.217 177.469L230.639 179.835L224.596 177.745L224.752 172.132L221.073 171.519L217.145 172.408L216.152 170.736L215.766 167.232L213.926 165.622L211.258 166.591L210.909 168.664L207.616 169.553L203.946 166.796L201.72 162.482L203.449 156.532L209.235 155.687L211.075 156.683L213.429 156.176L215.986 153.836L218.746 154.041L223.639 159.173L224.973 158.693L223.575 154.406L221.873 152.378L221.432 148.687L228.008 144.079L227.374 136.848L229.949 133.699L231.503 128.781L233.343 127.98L237.206 124.155L237.05 122.599L233.95 123.488L233.03 122.092L230.869 122.563L227.705 124.04L228.707 121.229L235.146 117.849L236.332 115.804L240.012 119.361L242.173 120.687L244.749 119.335L243.001 117.12L238.227 115.208L232.34 111.089L226.684 108.91L221.8 109.168L218.911 107.389L215.6 107.309L215.379 108.199L216.253 113.784L217.476 115.519L217.099 121.976L212.473 119.655V116.871L207.874 115.857L205.62 114.149L205.519 109.186L210.293 103.974L209.64 99.3308L207.524 99.989L205.758 98.5748L204.516 95.8442L203.091 95.9509L203.008 99.1619L200.929 100.007L198.427 93.5672L196.588 92.9535L193.58 92.402L190.82 94.599L195.64 97.4185L197.167 100.478L188.889 96.8671L182.8 92.7934L181.227 87.7502L175.772 87.3232L172.415 90.6409C171.589 91.4039 170.72 92.1225 169.812 92.7934C168.344 93.4914 166.825 94.0859 165.268 94.5723V97.97L160.789 99.1352L161.662 101.136L169.196 100.718L173.841 103.903L175.368 110.556L174.558 116.906L176.398 123.133L173.031 133.628L175.036 147.744L178.633 155.349L182.588 160.881L185.623 160.623L183.959 157.723L181.861 155.784L179.921 151.817L181.604 151.052L185.927 157.279L189.284 162.936L190.416 167.872L195.153 171.43L202.925 174.747L213.751 175.21L217.55 177.389L220.604 179.924L224.623 181.249L229.222 181.463L233.499 180.342C233.499 180.342 233.739 182.29 233.959 183.233C234.18 184.176 232.166 188.009 232.166 188.009L230.878 192.27L233.417 196.112L238.126 196.895L245.613 201.662L248.621 202.214L249.283 205.06L249.927 206.314C264.658 200.655 277.444 191.099 286.821 178.741L286.609 177.336L289.737 166.903L286.793 165.737L276.629 170.905Z" stroke="#263238" stroke-miterlimit="10"/>
<path d="M279.83 91.4861L276.859 88.3374L273.18 84.7796L271.083 79.2561L274.762 79.0604L274.523 77.1214L271.92 77.4772L273.861 76.063L275.921 74.2307L275.48 72.3273L272.426 69.8012L270.982 65.8165C256.46 54.7613 238.603 48.5931 220.125 48.2495C201.646 47.906 183.557 53.4058 168.607 63.913L173.85 66.0477L171.882 70.0592L168.322 71.6246L169.104 76.8457L167.66 77.7351L166.179 80.2434L167.163 83.6233L170.585 83.2853L169.95 86.8431L173.289 86.1227L177.373 77.8774L177.272 74.711L182.68 73.1456L183.535 70.575L189.1 68.7961L188.944 65.4429L193.028 64.3667C194.016 63.5101 195.084 62.7448 196.22 62.0808C197.408 62.0777 198.594 62.158 199.77 62.3209L203.247 63.9664L207.368 63.077L210.422 60.2307L215.021 59.6348C215.763 59.9134 216.564 60.017 217.357 59.9372C218.341 59.7237 220.981 57.758 220.981 57.758L227.466 59.955L230.225 61.1646L230.878 64.0109L233.913 63.7529L234.502 61.8406L237.317 62.4277L237.473 63.9931L231.954 66.7771L236.25 70.2371L244.197 72.514L248.014 75.6805L252.429 75.1379L252.972 73.0299L254.453 72.3095L248.474 69.6411L245.245 69.9346L247.628 68.6271L244.528 65.9054L247.821 65.016L252.668 66.3679L254.701 70.7174L257.461 72.7186L260.496 77.8508L265.518 79.9588L266.953 86.2294L272.131 88.115L272.407 90.2408V92.838L274.376 96.0045L275.158 97.6322L278.625 97.481L279.462 93.9232L279.83 91.4861Z" stroke="#263238" stroke-miterlimit="10"/>
<path d="M277.991 71.793L278.239 72.887L277.954 76.1335L279.159 78.6684L281.495 78.962L282.323 82.5731L279.748 82.1284L281.514 92.5172L280.116 97.2046L282.875 102.186L285.947 103.911L288.302 114.175L292.689 121.602L296.838 127.09L301.621 127.259L302.32 123.123L302.844 122.501C302.51 119.109 301.96 115.741 301.198 112.414C297.689 96.988 289.628 82.8773 277.991 71.793V71.793Z" stroke="#263238" stroke-miterlimit="10"/>
<path d="M232.341 80.3497L218.102 77.6279L212.454 79.0422L211.902 82.9468L208.977 80.9812L204.875 82.8579L205.924 89.2175L210.026 90.9252L211.755 86.7626L215.352 88.9773L222.618 92.802L225.065 98.0586L231.614 103.235L239.561 100.131L238.706 97.3204L236.195 94.4742L234.061 86.9583L235.284 83.3026L232.341 80.3497Z" stroke="#263238" stroke-miterlimit="10"/>
<path d="M243.903 82.2534L240.784 82.1289L238.706 84.7617L241.345 89.9739L243.903 89.4313V82.2534Z" stroke="#263238" stroke-miterlimit="10"/>
<path d="M263.007 81.9417L255.538 79.9582L253.643 77.9658L252.199 78.8731L254.444 82.3775L256.761 87.0649L259.972 87.5719L260.386 86.6913L257.957 84.2187L263.504 85.0192L263.007 81.9417Z" stroke="#263238" stroke-miterlimit="10"/>
<path d="M221.385 162.838L220.778 163.763L227.061 164.208L230.032 166.36L233.849 165.942L234.75 163.558L230.05 163.772L221.385 162.838Z" stroke="#263238" stroke-miterlimit="10"/>
<path d="M239.699 162.695L235.836 164.714L236.774 166.111L241.888 165.017L242.514 163.282L240.794 163.852L239.699 162.695Z" stroke="#263238" stroke-miterlimit="10"/>
<path opacity="0.2" d="M244.537 50.7578C252.269 65.2517 255.392 81.634 253.514 97.8411C251.635 114.048 244.839 129.356 233.982 141.835C223.124 154.314 208.69 163.408 192.498 167.97C176.306 172.532 159.081 172.359 142.99 167.472C149.447 179.545 158.886 189.891 170.468 197.592C182.051 205.293 195.42 210.11 209.39 211.617C223.36 213.124 237.498 211.273 250.551 206.23C263.604 201.187 275.168 193.106 284.217 182.705C293.267 172.304 299.522 159.904 302.427 146.605C305.333 133.307 304.8 119.52 300.875 106.468C296.95 93.4163 289.754 81.503 279.927 71.7849C270.099 62.0667 257.943 54.8442 244.537 50.7578V50.7578Z" fill="black" stroke="#263238" stroke-linecap="round" stroke-linejoin="round"/>
<path d="M245.973 207.723C290.272 193.032 313.868 146.396 298.675 103.558C283.482 60.721 235.254 37.9043 190.955 52.5959C146.655 67.2874 123.06 113.924 138.253 156.761C153.446 199.598 201.674 222.415 245.973 207.723Z" stroke="#263238" stroke-miterlimit="10"/>
<path opacity="0.18" d="M245.973 207.723C290.272 193.032 313.868 146.396 298.675 103.558C283.482 60.721 235.254 37.9043 190.955 52.5959C146.655 67.2874 123.06 113.924 138.253 156.761C153.446 199.598 201.674 222.415 245.973 207.723Z" stroke="#263238" stroke-miterlimit="10"/>
<path d="M133.875 155.714C133.875 155.714 123.251 155.527 117.438 159.271C111.625 163.016 112.894 165.925 114.578 168.975C116.261 172.026 120.878 172.533 129.055 170.603C137.233 168.673 147.396 163.443 153.771 159.609C160.145 155.776 180.638 134.135 180.638 134.135L185.872 131.307C185.872 131.307 191.842 130.026 193.23 129.341C194.619 128.656 192.706 127.936 191.584 128.176C190.462 128.416 186.856 128.728 186.856 128.728C186.856 128.728 193.433 125.775 193.93 124.529C194.426 123.284 194.261 122.564 192.743 123.64C191.225 124.716 186.01 126.228 186.01 126.228C186.01 126.228 193.976 120.66 194.141 119.673C194.307 118.686 193.764 118.045 192.623 119.05C191.483 120.055 184.17 124.031 184.17 124.031L189.404 117.289C189.404 117.289 189.57 115.27 187.564 117.076C186.001 118.62 184.336 120.063 182.579 121.399C181.36 121.996 180.104 122.519 178.817 122.964C178.633 121.954 178.808 120.913 179.314 120.011C180.059 118.908 181.641 118.232 180.169 116.044C179.755 115.421 179.249 116.24 178.927 117.44C178.606 118.641 175.129 122.244 175.11 123C175.504 124.937 176.008 126.852 176.619 128.737C176.619 128.737 163.723 140.593 157.441 145.725C151.158 150.857 149.245 151.844 149.245 151.844L133.875 155.714Z" fill="white"/>
<path opacity="0.3" d="M129.055 170.577C137.232 168.638 147.396 163.417 153.77 159.583C159.05 156.408 174.006 141.011 179.001 135.826L178.909 135.452C178.909 135.452 161.699 151.382 154.377 155.981C147.056 160.579 130.95 166.957 125.458 168.38C121.9 169.225 118.209 169.418 114.577 168.949C116.251 172 120.878 172.525 129.055 170.577Z" fill="#263238"/>
<path d="M133.875 155.714C133.875 155.714 123.251 155.527 117.438 159.271C111.625 163.016 112.894 165.925 114.578 168.975C116.261 172.026 120.878 172.533 129.055 170.603C137.233 168.673 147.396 163.443 153.771 159.609C160.145 155.776 180.638 134.135 180.638 134.135L185.872 131.307C185.872 131.307 191.842 130.026 193.23 129.341C194.619 128.656 192.706 127.936 191.584 128.176C190.462 128.416 186.856 128.728 186.856 128.728C186.856 128.728 193.433 125.775 193.93 124.529C194.426 123.284 194.261 122.564 192.743 123.64C191.225 124.716 186.01 126.228 186.01 126.228C186.01 126.228 193.976 120.66 194.141 119.673C194.307 118.686 193.764 118.045 192.623 119.05C191.483 120.055 184.17 124.031 184.17 124.031L189.404 117.289C189.404 117.289 189.57 115.27 187.564 117.076C186.001 118.62 184.336 120.063 182.579 121.399C181.36 121.996 180.104 122.519 178.817 122.964C178.633 121.954 178.808 120.913 179.314 120.011C180.059 118.908 181.641 118.232 180.169 116.044C179.755 115.421 179.249 116.24 178.927 117.44C178.606 118.641 175.129 122.244 175.11 123C175.504 124.937 176.008 126.852 176.619 128.737C176.619 128.737 163.723 140.593 157.441 145.725C151.158 150.857 149.245 151.844 149.245 151.844L133.875 155.714Z" stroke="#263238" stroke-linecap="round" stroke-linejoin="round"/>
<path d="M137.968 325.03L133.231 327.378L128.917 322.255C127.777 325.208 125.036 328.481 125.109 329.664C125.201 331.158 133.112 335.935 135.972 338.897C138.833 341.858 144.462 343.708 144.959 342.072C145.456 340.435 140.406 335.846 139.55 331.523C139.21 329.931 138.603 327.609 137.968 325.03Z" fill="#B2B2B2" stroke="#263238" stroke-linecap="round" stroke-linejoin="round"/>
</g>
<defs>
<filter id="filter0_d" x="0" y="0" width="368" height="356" filterUnits="userSpaceOnUse" color-interpolation-filters="sRGB">
<feFlood flood-opacity="0" result="BackgroundImageFix"/>
<feColorMatrix in="SourceAlpha" type="matrix" values="0 0 0 0 0 0 0 0 0 0 0 0 0 0 0 0 0 0 127 0"/>
<feOffset dy="-4"/>
<feGaussianBlur stdDeviation="2"/>
<feColorMatrix type="matrix" values="0 0 0 0 0 0 0 0 0 0 0 0 0 0 0 0 0 0 0.25 0"/>
<feBlend mode="normal" in2="BackgroundImageFix" result="effect1_dropShadow"/>
<feBlend mode="normal" in="SourceGraphic" in2="effect1_dropShadow" result="shape"/>
</filter>
</defs>
</svg>
