<svg width="1440" height="300" viewBox="0 0 1440 300" fill="none" xmlns="http://www.w3.org/2000/svg">
<path fill-rule="evenodd" clip-rule="evenodd" d="M0 150L80.4 162.5C159.6 175 320.4 200 480 206.25C639.6 212.5 800.4 200 960 162.5C1119.6 125 1280.4 62.5 1359.6 31.25L1440 0V300H1359.6C1280.4 300 1119.6 300 960 300C800.4 300 639.6 300 480 300C320.4 300 159.6 300 80.4 300H0V150Z" fill="black"/>
<g filter="url(#filter0_d)">
<path d="M47 160C47 121.34 78.3402 90 117 90C155.66 90 187 121.34 187 160C187 198.66 155.66 230 117 230C78.3402 230 47 198.66 47 160Z" fill="#55ACEE"/>
<path d="M114.904 146.897L115.051 149.319L112.602 149.023C103.691 147.886 95.9058 144.03 89.2955 137.554L86.0641 134.341L85.2317 136.714C83.4688 142.003 84.595 147.589 88.2673 151.346C90.2259 153.422 89.7852 153.719 86.4068 152.483C85.2317 152.087 84.2033 151.791 84.1055 151.939C83.7628 152.285 84.938 156.783 85.8681 158.563C87.1412 161.035 89.7362 163.457 92.5761 164.89L94.9754 166.027L92.1354 166.077C89.3935 166.077 89.2955 166.126 89.5895 167.164C90.5686 170.377 94.4367 173.788 98.7455 175.271L101.781 176.309L99.1372 177.891C95.2201 180.165 90.6176 181.45 86.0151 181.549C83.8115 181.598 82 181.796 82 181.944C82 182.438 87.9736 185.207 91.45 186.294C101.879 189.507 114.267 188.123 123.57 182.636C130.18 178.731 136.79 170.97 139.875 163.457C141.54 159.453 143.205 152.137 143.205 148.627C143.205 146.353 143.351 146.057 146.093 143.338C147.709 141.756 149.227 140.026 149.521 139.532C150.01 138.593 149.962 138.593 147.464 139.433C143.303 140.916 142.715 140.718 144.771 138.494C146.289 136.912 148.101 134.045 148.101 133.204C148.101 133.056 147.366 133.303 146.534 133.748C145.653 134.242 143.694 134.984 142.225 135.429L139.581 136.269L137.182 134.638C135.86 133.748 133.999 132.759 133.02 132.463C130.523 131.771 126.704 131.87 124.452 132.661C118.331 134.885 114.463 140.619 114.904 146.897Z" fill="white"/>
</g>
<g filter="url(#filter1_d)">
<path d="M312 200C312 166.863 338.863 140 372 140C405.137 140 432 166.863 432 200C432 233.137 405.137 260 372 260C338.863 260 312 233.137 312 200Z" fill="#3B5998"/>
<path d="M378.254 235.279V202.635H387.265L388.459 191.386H378.254L378.269 185.756C378.269 182.822 378.548 181.25 382.762 181.25H388.395V170H379.383C368.558 170 364.748 175.457 364.748 184.634V191.388H358V202.637H364.748V235.279H378.254Z" fill="white"/>
</g>
<g filter="url(#filter2_d)">
<path d="M556 200C556 172.386 578.386 150 606 150C633.614 150 656 172.386 656 200C656 227.614 633.614 250 606 250C578.386 250 556 227.614 556 200Z" fill="#0077B5"/>
<path fill-rule="evenodd" clip-rule="evenodd" d="M592.081 180.881C592.081 184.15 589.62 186.765 585.669 186.765H585.597C581.793 186.765 579.333 184.15 579.333 180.881C579.333 177.542 581.868 175 585.744 175C589.62 175 592.007 177.542 592.081 180.881ZM591.335 191.412V225.457H580.003V191.412H591.335ZM632.198 225.457L632.199 205.937C632.199 195.48 626.609 190.613 619.152 190.613C613.136 190.613 610.443 193.917 608.939 196.235V191.413H597.607C597.756 194.608 597.607 225.458 597.607 225.458H608.939V206.445C608.939 205.427 609.013 204.412 609.312 203.684C610.131 201.651 611.996 199.546 615.126 199.546C619.228 199.546 620.868 202.668 620.868 207.243V225.457H632.198Z" fill="white"/>
</g>
<g filter="url(#filter3_d)">
<path d="M808 180C808 152.386 830.386 130 858 130C885.614 130 908 152.386 908 180C908 207.614 885.614 230 858 230C830.386 230 808 207.614 808 180Z" fill="#323E4D"/>
<path fill-rule="evenodd" clip-rule="evenodd" d="M864.474 163.549H869.37V156.447H864.236V163.31C864.236 163.442 864.342 163.549 864.474 163.549ZM864.582 191.822C864.475 191.822 864.378 191.754 864.351 191.65C864.259 191.298 864.204 190.869 864.196 190.338V177.452C864.196 177.319 864.302 177.212 864.434 177.212H873.717C873.848 177.212 873.955 177.105 873.955 176.972V169.776H879.089V181.091H869.33V191.822H864.582ZM870.485 211.442H870.484C865.304 211.441 861.708 209.776 859.275 207.425C860.353 207.497 861.477 207.532 862.644 207.532C868.342 207.532 873.987 205.491 875.854 203.017L876.229 202.521L875.105 199.17C876.172 198.934 877.231 198.537 878.105 198.049L881.226 207.36C879.435 209.734 874.976 211.368 870.896 211.438C870.758 211.441 870.622 211.442 870.485 211.442Z" fill="#2A323B"/>
<path fill-rule="evenodd" clip-rule="evenodd" d="M875.855 203.017C873.988 205.491 868.342 207.533 862.645 207.533C848.486 207.533 840.827 202.283 840.827 191.154V177.212H835.027C834.895 177.212 834.789 177.105 834.789 176.972V165.653C834.789 165.55 834.854 165.458 834.951 165.426L835.585 165.213C841.264 163.302 844.287 159.323 845.096 152.69C845.292 151.086 846.629 150.221 847.788 150.221H863.998C864.129 150.221 864.236 150.328 864.236 150.46V163.31C864.236 163.442 864.343 163.55 864.474 163.55H873.717C873.848 163.55 873.955 163.657 873.955 163.789V176.972C873.955 177.105 873.848 177.212 873.717 177.212H864.434C864.303 177.212 864.196 177.319 864.196 177.452V190.338C864.205 190.869 864.259 191.299 864.351 191.65C864.378 191.754 864.475 191.822 864.582 191.822H872.472C872.574 191.822 872.665 191.888 872.697 191.986L876.229 202.522L875.855 203.017ZM864.577 205.212C868.074 205.153 871.723 203.874 873.501 202.154C873.568 202.089 873.589 201.99 873.559 201.902L871.198 194.856C871.155 194.727 871.016 194.663 870.89 194.711C869.541 195.23 868.063 195.532 866.773 195.532C863.57 195.532 861.919 193.791 861.864 190.357L861.864 175.105C861.864 174.972 861.971 174.865 862.102 174.865H871.385C871.516 174.865 871.623 174.758 871.623 174.625V166.137C871.623 166.004 871.516 165.897 871.385 165.897H862.142C862.011 165.897 861.904 165.789 861.904 165.657V152.808C861.904 152.675 861.797 152.568 861.666 152.568H854.241C854.237 152.568 853.911 152.579 853.863 152.977C852.989 160.136 849.669 164.764 843.724 167.094C843.633 167.129 843.573 167.216 843.573 167.314V174.625C843.573 174.758 843.679 174.865 843.811 174.865H849.373C849.505 174.865 849.611 174.972 849.611 175.105V191.154C849.611 196.376 852.681 205.215 864.184 205.216H864.185C864.315 205.216 864.445 205.214 864.577 205.212Z" fill="#FFFFFE"/>
<path d="M847.279 180.963H840.827V177.212H847.069C847.185 177.212 847.279 177.307 847.279 177.424V180.963Z" fill="#83838D"/>
</g>
<g filter="url(#filter4_d)">
<path d="M1324 99.5902C1351.61 99.5902 1374 77.296 1374 49.795C1374 22.294 1351.61 0 1324 0C1296.39 0 1274 22.294 1274 49.795C1274 77.296 1296.39 99.5902 1324 99.5902Z" fill="white"/>
<path d="M1324 0C1296.39 0 1274 22.295 1274 49.795C1274 70.9017 1287.17 88.9344 1305.77 96.1885C1305.32 92.2542 1304.95 86.1885 1305.93 81.8852C1306.84 77.9919 1311.78 57.1312 1311.78 57.1312C1311.78 57.1312 1310.3 54.1394 1310.3 49.7542C1310.3 42.8279 1314.33 37.664 1319.35 37.664C1323.63 37.664 1325.69 40.8606 1325.69 44.6721C1325.69 48.9344 1322.97 55.3279 1321.53 61.2704C1320.34 66.2296 1324.04 70.2869 1328.94 70.2869C1337.83 70.2869 1344.66 60.9427 1344.66 47.5C1344.66 35.5737 1336.06 27.2542 1323.75 27.2542C1309.51 27.2542 1301.16 37.8687 1301.16 48.8525C1301.16 53.1148 1302.81 57.705 1304.86 60.205C1305.28 60.6967 1305.32 61.1475 1305.19 61.6394C1304.82 63.1967 1303.96 66.5983 1303.79 67.295C1303.59 68.1967 1303.05 68.4017 1302.11 67.9508C1295.85 65.041 1291.94 55.9835 1291.94 48.6475C1291.94 32.9508 1303.38 18.5246 1324.99 18.5246C1342.31 18.5246 1355.81 30.8196 1355.81 47.295C1355.81 64.4673 1344.95 78.2787 1329.88 78.2787C1324.82 78.2787 1320.05 75.6558 1318.44 72.541C1318.44 72.541 1315.93 82.0492 1315.32 84.3852C1314.21 88.7296 1311.16 94.1394 1309.1 97.459C1313.79 98.8935 1318.73 99.6721 1323.92 99.6721C1351.53 99.6721 1373.92 77.3771 1373.92 49.8771C1374 22.295 1351.61 0 1324 0Z" fill="#E60019"/>
</g>
<g filter="url(#filter5_d)">
<path d="M1099 80C1071.39 80 1049 102.386 1049 129.999C1049 157.616 1071.39 180 1099 180C1126.61 180 1149 157.616 1149 129.999C1149 102.386 1126.61 80 1099 80Z" fill="#1ED760"/>
<path d="M1120.83 151.03C1119.95 152.481 1118.06 152.936 1116.61 152.051C1105.05 144.984 1090.49 143.388 1073.35 147.303C1071.7 147.681 1070.05 146.646 1069.67 144.995C1069.3 143.343 1070.33 141.697 1071.98 141.32C1090.74 137.032 1106.83 138.877 1119.81 146.809C1121.26 147.693 1121.72 149.583 1120.83 151.03Z" fill="white"/>
<path d="M1126.86 137.621C1125.74 139.428 1123.38 139.995 1121.58 138.885C1108.34 130.75 1088.16 128.394 1072.5 133.146C1070.47 133.76 1068.33 132.615 1067.71 130.588C1067.1 128.558 1068.24 126.418 1070.27 125.8C1088.16 120.372 1110.39 123.001 1125.59 132.342C1127.4 133.454 1127.97 135.818 1126.86 137.621Z" fill="white"/>
<path d="M1127.38 123.657C1111.5 114.23 1085.32 113.363 1070.17 117.963C1067.73 118.701 1065.16 117.327 1064.42 114.894C1063.68 112.459 1065.06 109.887 1067.49 109.148C1084.89 103.867 1113.8 104.887 1132.08 115.735C1134.27 117.035 1134.99 119.861 1133.69 122.047C1132.39 124.235 1129.56 124.957 1127.38 123.657Z" fill="white"/>
</g>
<defs>
<filter id="filter0_d" x="39" y="90" width="156" height="160" filterUnits="userSpaceOnUse" color-interpolation-filters="sRGB">
<feFlood flood-opacity="0" result="BackgroundImageFix"/>
<feColorMatrix in="SourceAlpha" type="matrix" values="0 0 0 0 0 0 0 0 0 0 0 0 0 0 0 0 0 0 127 0"/>
<feOffset dy="12"/>
<feGaussianBlur stdDeviation="4"/>
<feColorMatrix type="matrix" values="0 0 0 0 0 0 0 0 0 0 0 0 0 0 0 0 0 0 0.25 0"/>
<feBlend mode="normal" in2="BackgroundImageFix" result="effect1_dropShadow"/>
<feBlend mode="normal" in="SourceGraphic" in2="effect1_dropShadow" result="shape"/>
</filter>
<filter id="filter1_d" x="304" y="140" width="136" height="140" filterUnits="userSpaceOnUse" color-interpolation-filters="sRGB">
<feFlood flood-opacity="0" result="BackgroundImageFix"/>
<feColorMatrix in="SourceAlpha" type="matrix" values="0 0 0 0 0 0 0 0 0 0 0 0 0 0 0 0 0 0 127 0"/>
<feOffset dy="12"/>
<feGaussianBlur stdDeviation="4"/>
<feColorMatrix type="matrix" values="0 0 0 0 0 0 0 0 0 0 0 0 0 0 0 0 0 0 0.25 0"/>
<feBlend mode="normal" in2="BackgroundImageFix" result="effect1_dropShadow"/>
<feBlend mode="normal" in="SourceGraphic" in2="effect1_dropShadow" result="shape"/>
</filter>
<filter id="filter2_d" x="548" y="150" width="116" height="120" filterUnits="userSpaceOnUse" color-interpolation-filters="sRGB">
<feFlood flood-opacity="0" result="BackgroundImageFix"/>
<feColorMatrix in="SourceAlpha" type="matrix" values="0 0 0 0 0 0 0 0 0 0 0 0 0 0 0 0 0 0 127 0"/>
<feOffset dy="12"/>
<feGaussianBlur stdDeviation="4"/>
<feColorMatrix type="matrix" values="0 0 0 0 0 0 0 0 0 0 0 0 0 0 0 0 0 0 0.25 0"/>
<feBlend mode="normal" in2="BackgroundImageFix" result="effect1_dropShadow"/>
<feBlend mode="normal" in="SourceGraphic" in2="effect1_dropShadow" result="shape"/>
</filter>
<filter id="filter3_d" x="800" y="130" width="116" height="120" filterUnits="userSpaceOnUse" color-interpolation-filters="sRGB">
<feFlood flood-opacity="0" result="BackgroundImageFix"/>
<feColorMatrix in="SourceAlpha" type="matrix" values="0 0 0 0 0 0 0 0 0 0 0 0 0 0 0 0 0 0 127 0"/>
<feOffset dy="12"/>
<feGaussianBlur stdDeviation="4"/>
<feColorMatrix type="matrix" values="0 0 0 0 0 0 0 0 0 0 0 0 0 0 0 0 0 0 0.25 0"/>
<feBlend mode="normal" in2="BackgroundImageFix" result="effect1_dropShadow"/>
<feBlend mode="normal" in="SourceGraphic" in2="effect1_dropShadow" result="shape"/>
</filter>
<filter id="filter4_d" x="1266" y="0" width="116" height="120" filterUnits="userSpaceOnUse" color-interpolation-filters="sRGB">
<feFlood flood-opacity="0" result="BackgroundImageFix"/>
<feColorMatrix in="SourceAlpha" type="matrix" values="0 0 0 0 0 0 0 0 0 0 0 0 0 0 0 0 0 0 127 0"/>
<feOffset dy="12"/>
<feGaussianBlur stdDeviation="4"/>
<feColorMatrix type="matrix" values="0 0 0 0 0 0 0 0 0 0 0 0 0 0 0 0 0 0 0.25 0"/>
<feBlend mode="normal" in2="BackgroundImageFix" result="effect1_dropShadow"/>
<feBlend mode="normal" in="SourceGraphic" in2="effect1_dropShadow" result="shape"/>
</filter>
<filter id="filter5_d" x="1041" y="80" width="116" height="120" filterUnits="userSpaceOnUse" color-interpolation-filters="sRGB">
<feFlood flood-opacity="0" result="BackgroundImageFix"/>
<feColorMatrix in="SourceAlpha" type="matrix" values="0 0 0 0 0 0 0 0 0 0 0 0 0 0 0 0 0 0 127 0"/>
<feOffset dy="12"/>
<feGaussianBlur stdDeviation="4"/>
<feColorMatrix type="matrix" values="0 0 0 0 0 0 0 0 0 0 0 0 0 0 0 0 0 0 0.25 0"/>
<feBlend mode="normal" in2="BackgroundImageFix" result="effect1_dropShadow"/>
<feBlend mode="normal" in="SourceGraphic" in2="effect1_dropShadow" result="shape"/>
</filter>
</defs>
</svg>
